<mxfile host="app.diagrams.net" modified="2023-04-14T13:20:26.484Z" agent="Mozilla/5.0 (Windows NT 10.0; Win64; x64) AppleWebKit/537.36 (KHTML, like Gecko) Chrome/111.0.0.0 Safari/537.36" etag="f6f4Gby81osLpIRqidXt" version="21.1.4" type="device" pages="2">
  <diagram name="Page-1" id="3tnzgZpxdOjFRnp20HnH">
    <mxGraphModel dx="1764" dy="973" grid="1" gridSize="10" guides="1" tooltips="1" connect="1" arrows="1" fold="1" page="1" pageScale="1" pageWidth="850" pageHeight="1100" math="0" shadow="0">
      <root>
        <mxCell id="0" />
        <mxCell id="1" parent="0" />
        <mxCell id="aYRsWOZ5WbEbDBHg8Gad-1" value="" style="shape=image;verticalLabelPosition=bottom;labelBackgroundColor=default;verticalAlign=top;aspect=fixed;imageAspect=0;image=data:image/jpeg,/9j/4AAQSkZJRgABAQAAAQABAAD/2wCEAAUDBAgICAgICAgICAgICAgICAgICAgICAgICAgICAgICAgIChALCAgOCQgIDhUNDhERExMTCAsWGBYSGBASExIBBQUFCAcIDwkJDxIPDw8SEhISEhISEhISEhISEhISEhISEhISEhISEhISEhISEhISEhISEhISEhISEhISEhISEv/AABEIAtAFAAMBIgACEQEDEQH/xAAdAAEAAgIDAQEAAAAAAAAAAAAABwgFBgECBAMJ/8QAbhAAAgIBAgIEBAkUDQcICQMFAAECAwQFEQYSBxMhMQgUQVEXIjI1VmFxkdMVFiM0NlJUVWZ0dYGSlJWlprO04xgnM0JTYnJzobGy0tQkJnaCk8HDJUZjZIa1xMVDR4OEoqTC0fBERWWFN+Hxo//EABwBAQABBQEBAAAAAAAAAAAAAAADAQIEBQYHCP/EAEERAAIBAgQDBAcGBgIBAwUAAAABAgMRBAUSITFBUQYTYXEUIlKBkaGxBzIzcsHRFSM1QuHwNGIWU4LxJENUorL/2gAMAwEAAhEDEQA/ALlgAAAAAAAAAAAAAAAAAAAAAAAAAAAAAAAAAAAAAAAAAAAAAAAAAAAAAAAAAAAAAAAAAAAAAAAAAAAAAAAAAAAAAAAAAAAAAAAAAAAAAAAAAAAAAAAAAAAAAAAAAAAAAAAAAAAAAAAAAAAAAAAAAAAAAAAAAAAAAAAAAAAAAAAAAAAAAAAAAAAAAAAAAAAAAAAAAAAAAAAAAAAAAAAAAAAAAAAAAAAAAAAAAAAAAAAAAAAAAAAAAAAAAAAAAAAAAAAAAAAAAAAAAAAAAAAAAAAAAAAAAAAAAAAAAAAAAAAAAAAAAAAAAAAAAAAAAAAAAAAAAAAAAAAAAAAAAAAAAAAAAAAAAAAAAAAAAAAAAAAAAAAAAAAAAAAAAAAAAAAAAAAAAAAAAAAAAAAAAAAAAAAAAAAAAAAAAAAAAAAAAAAAAAAAAAAAAAAAAAAAAAAAAAAAAAAAAAAAAAAAAAAAAAAAAAAAAAAAAAAAAAAAAAAAAAAAAAAAAAAAAAAAAAAAAAAAAAAAAAAAAAAAAAAAAAAAAAAAAAAAAAAAAAAAAAAAAAAAAAAAAAAAAAAAAAAAAAAAAAAAAAAAAAAAAAAAAAAAAAAAAAAAAAAAAAAAAAAAAAAAAAAAAAAAAAAAAAAAAAAAAAAAAAAAAAAAAAAAAAAAAAAAAAAAAAAAAAAAAAAAAAAAAAAAAAAAAAAAAAAAAAAAAAAAAAAAAAAAAAAAAAAAAAAAAAAAAAAAAAAAAAAAAAAAAAAAAAAAAAAAAAAAAAAAAAAAAAAAAAAAAAAAAAAAAAAAAAAAAAAAAAAAAAAAAAAAAAAAAAAAAAAAAAAAAAAAAAAAAAAAAAAAAAAAAAAAAAAAAAAAAAAAAAAAAAAAAAAAAAAAAAAAAAAAAAAAAAAAAAAAAAAAAAAAAAAAAAAAAAAAAAAAAAAAAAAAAAAAAAAAAAAAAAAAAAAAAAAAAAAAAAAAAAAAAAAAAAAAAAAAAAAAAAAAAAAAAAAAAAAAAAAAAAAAAAAAAAAAAAAAAAAAAAAAAAAAAAAAAAAAAAAAAAAAAAAAAAAAAAAAAAAAAAAAAAAAAAAAAAAAAAAAAAAAAAAAAAAAAAAAAAAAAAAAAAAAAAAAAAAAAAAAAAAAAAAAAAAAAAAAAAAAAAAAAAAAAAAAAAAAAAAAAAAAAAAAAAAAAAAAAAAAAAAAAAAAAAAAAAAAAAAAAAAAAAAAAAAAAAAAAAAAAAAAAAAAAAAAAAAAAAAAAAAAAAAAAAAAAAAAAAAAAAAAAAAAAAAAAAAAAAAAAAAAAAAAAAAAAAAAAAAAAAAAAAAAAAAAAAAAAAAAAAAAAAAAAAAAAAAAAAAAAAAAAAAAAAAAAAAAAAAAAAAAAAAAAAAAAAAAAAAAAAAAAAAAAAAAAAAAAAAAAAAAAAAAAAAAAAAAAAAAAAAAAAAAAAAAAAAAAAAAAAAAAAAAAAAAAA43G4ByDp1i85x1i8679vt+YaWD6A69YvOvfHOitgdgcbjcoDkHXmQ5kLA7A68yOdwDkHG43AOQcbnHOvOhYHYHG5xzIA7bjc686OrmvOv/APfYitgfQAFAAAAAAAAAAAAAAAAAAAAAAAAAAAAAAAAAAAAAAAAAAAAAAAAAAAAdQwYjiXNtxsW++mmORZTB2KmVvUKcY9s11vJPlfKpNdna0l2b7qiTbVuLKN2VzKHKfvmn8C8VZOraVDU4YNdLurduJjyzOfrY7Pk662NG1Lck12Ke3ea1pXSpk5Gn+OQ0du63UY6Zh4UM2E7srJhdOOVvN0xhTCuqm6zmbaare/Ku0k7mW+3B2fDiWua28SWARYukjU55Oo4VGgu7L02rGtupjqFC5llVznVGEpVpSe0Huve3PHLpevnh5uo42kW36dg0VW25Msuuhu10VXZGPGmdbnK2mU+rl5OaEl3pok9Fn0XLmufAa49SXgRxp3HeoW5FFFujeLrMw7MjBunnVzpyL4Qru8VlOqtyptdMrZ7yj/6GW2+za8nC3STqOo4L1DH0C6VClfBwjnUeMOWNOVdqhTZCKlPmhJJOS3LfR5pN7fFfuW97G9iUUwYHgviLG1bBx9QwpuePkwc4OUeWUXGUoWVyj+9nGcZxa3a3g9m+81jWOO86nWfiNTpKyLpYcs6q1Z8Kq5Y0L1Q3LrKPSW87W8E5djXaWRpyba5oq5pJPkyRTmJomkcdOWqR0fPwLsDMux5ZOK5WV5GNl1V9lqqvqe6sh27wnGL2W/c474vRukLVMvKz8OjQ65W6bdXRkN6nCMOe2pXQ5HLGTmuRrt2RcqE3fZbb3uuA7yJJu53NE0XjptaotTw56XbpVMcq+E7q8iM8KcLpwyqrKklOtvHyFslunU0+3sMdkdIOpV4T1NcP5VuDKnxivqszGnndTKuVsLLcPuhFrk3jCyycVP1L5WlTupXtt8UV1q1ySwmRzxT0kWYmJpGbj6f45j6xZg0Y7WUqpwv1CLnjxnGVLj1W228+ZbNpbHqfHlmNl4WJqmnWYCz7vF8TIWRTlY88nl5o0WSr2nVZNJ8u8dm13juZWv8AquQ1q9rm+HJolnHFmRlZWJpOE9RnhWOnLyLMiGHhUZCUZPFVzhOy7ISknJQrcY9zkn2Hr4Y4yjlZN2nZONZg6nRVDIniXTrsjbRN8sb8a+reN1HP6RvZSjLscV2b0dKS3t+/wKqSNt3OzIu4S6V4ZWtZGiZmFPBy6pW102O9X42VbRCF11NFnVw3sjRdXZttvyvt27N8zoHGWTdl6pRmYEMKjSop3ZPjivjNSqjkQddcaYvk6ltttpprbZ+S6VCcb3XK/uLVOL4M3Zs53I3r6RM+zDhqdGg5V+m2Qd1c68rGWdLG2lOGT4jPZOuUIxkoxslNqyPpe/bpr/SZLH0bTtax8FZONnQxXODy41WUWZbprqr7a5Rs2sslCT3jtyeXfsKhNtJLdu3FFdatxJK3OxHGtccargUSysvQnHFp2nlW06jTfLGx0/k2Q6lVGVkK6+aTUe3aL8ibUgQtTSaa2a3XlTT7mn5iydJx4/Lf6BTTPSACheAAAAAAAAAAAAAAAAAAAAAAAAAAAAAAAAAAAAAAAAAAAAAAAAAAAAAAAAAAAAAAAAAAAAAAAAAAAAAAAAAAAAAAAAAAAAAAAAAAAAAAAAAAAAAAAAAAAAAQJLM0vTONNRsy4wqj8T8XIoapstUcq665X3RjTCXJbOL7ZbLftHjmlapxlp1mGo3L4n5WRe3TdXGWRTbT4vdKNsIqVsUuyW3kXabPoum6jHizPz7NLyYYORg42FXlO7T3HmxrbZytlXDLdypkprl9I5eeMTjXdN1CXFenahXpeVZhY2JkYVuVG3T1HmybKpxtjXPLVzpglLm9JzdnpYyNl3lO/jpte6te3S3XxMX1um1zUOkvgPG0zD0huU8jNzOItOjqGW52weU83JnPLiqudxqonKT+Rrybbtvdvbb+h3Cllc0LratNnbRl5GnKd7jdl41d9dNkch3c1NXLdByqXZJ0V9yTT9PTlpeoZkNJrwNPvzXjavgajdKu7CpjCnDscrIf5Xk1ylbJS9Kkmux7tEg405ShCUoSrlKEZSrm4OdbaTcJuuUoOSfY+WUluuxtdpjuu1Fb77kiim2mtiCuEeAtP1PN4qwb4WRrozqaMSdd98J4sZYVUvkLVncpy5uWW6b70xxZpum43FGAtXvxo1XaHbLMtttWDi5GbRdXDxmUXYoxtknZ2OTeyXftubf0V6fqNGq67fl6Zk4lGo5dWVj2236fYlGuiul12wxcuyUbG47rZNbb7tdz66vpufZxXhZy0m+3T6cG/Bsyndp/LGd99Vsb40zyuulTFV7P0in2vaL22eQ63ru7209eduXjcppWlWW9zF9GGbB8SZ1Oj3TyOHo6bVO2cb7MrDp1br+VV4l85yXpsbtlCD5d1v5jKeE7iVz4a1C9x2uxq67Me6PZZTN30Rk4TXbHmjvF7d6bJOhBRWySSXcktl7yNB6etMzc7RMvAwMK3MyMyEa4qu3FqhVy2VzcrJZV1fpXGMtuRSe67l3mNSmu9i3sk18Cri1FriR3xtLQ56fZToMsmWuwVEsSGlzzZZVeS+WVTvUXyQx3Hm5nd6Tlbffs1kemvCqU+F79ShB32Z2Pi6hZWp/Ja1i3Ttq2p9NKrr3KSUV5TN8WcMajN4PEGk4bxdbxoKjJ0/Itxo+P4XOlZiX3U3ToU04qyuzne3Zvs9lF0iV6rnX6Bk06HnPxHN8ey6nk6Sp1JVX0dRFyz1Cy7eUZpp8vLJemUt4rKVWOtNPbfi9+HDy6Ebi7O6PJwtoWkalk25GjVywLtF1PGhDKjLKUciCrx7s2m7FucfSTpuuqTfbvtJPbdP06fJ8Ra9q2Plym9K0SWPi1YMZzrqy8u6t235GWq2ndCHZCFcm4fvmtz66zbrV1k6tN0HL0uep5eK9S1TIzNKc6aIRpx7r6qKMy5zyFiUxrjsltsn3rc+2fpWXoeqalrGHjSz8DUqqrdRxKZ115mPkYtco+NYqvnCq+udXNzVucZcyTjzepINSd992tru/TmXWtbbYx/HVVfDGVpGZpqdGHmajj6XqGBCUnizrylPqsqqlvlpvqnD1UOXmUtnvscYGh4i45yGqK+zRKc5Lb0qzLdQujZkqPcrnFJc3ecUO3i+7Rs/qZYWiYmTHUaIZM6XmahmUdbGhKnHsnGnGranJ88nKXb6VLtMzxXo2oYmu069gYvxQrnp3xMzcKF1NGRGEL5ZNOTjPIlGqySlKUJQlOPY1tuyl7bPjZpleO6W1znjbQ8O7iHQbbaK52SWe5yceybx6KpUuyPdY4SbcebfbfsNE1/C0bH4t1JahT/kr0vHzOSMMmyDyJ329fcoY++05Rj29iT7fKySNLoz9R1PF1DKwp6djYNOTDHovtoszMi/K6qMrbI4tllVFMKqmlHnlKTte/Ko9uB6nVKOJNR1JaHnX4l2DjYNUqsjR1Ocse62yVqjfqEHGmSsW3NtLzxRfSmo7N8I2423v+wavvY9nRXoOO/Fdb02MsLG1LTk8jT3bZkVStlKu3EuhKxrqpwg8iMtklLrY9iabcdaRqOlUReLxbRqOBrTstU9Yunmwqun17sps0/UMefLj0qKgowjywSg4vfdqUh8L4+q2ZmLiR0zI0LQcDCuhCEszDuvy75xVFFP8Akl9sqKaqp22J8/bNV/Oo+PDGZxBj6ZThaxoduqZEaVU7sXK0+6vI5Y7R8dWbk1uFz5VzSirYt+m33fKUUrN7/Pf48w7tLY+HCvRzXlYukrOzoanh6ZDP8U6uyc68tZN7eJlZF8JJWThhrq3Wk4805vmktka30d8A4mp4OsOP+T52LxDqcdOzIys5sSeFlRnh+kU0rKa5wj8jfZtvts9mpD6KOGr9F0q2qyqLtsyM3OjgYk4SrxlkWStr0/FsulCElBcsFKThHmk+1LtPF0H6dqGJDU6s/Tr8J5Oq6hqNU534V0JVZd0Z1174uROStS33Tio9nY33Fjq2Ts+YUbNbDU+kq6N+dTg6RlalXpc7Kc2yjIw6bIXVUV3vq8W+5XW1NT5VKKe7hNJS2W8gaPnV5WPRk1NurIprvrbWzddsIzg2vI+WSId4y4XycrKzbMnQMq3LhfYtM1zRc3Dwct0yip0LJduZTOLq5lVvJWKXUt8sfSuUo8E4+bVp2FVqNsbs6vHqjlWw9TO9RSm00lv2+XZb9/lI6sY6U1xLqbldpmfABCSgAAAAAAAAAAAAAAAAAAAAAAAAAAAAAAAAAAAAAAAAAAAAAAAHBiuKvlLL+tr/AM3Iyhjtb02rMosxr+t6q2PLNU3341jjum1G7GnCyKe2z2kt02n2NoQlpkm+FykldEQ9COg6vPh3TJ0a28amWKpQo8Qxbuqi3J8vWWPml7rMv4M0JLR7FZLnnHU9T5puKi5TWXYpT5V2Rbe/YvObroHCWFp+G8DEjkU4sk4qvx7OnKqMly8tF1lztx15lXKOze67Tjg7g/A0iFteBXfVXdPrJwszczKh1kpSlOyMcu6arnKU25OOzk9t99kZlTEqSkvaaa2S68fiQxptNM1DgVf538VfW+h/mMky3TzFLhnWdkl/kF/ctv3pktI4I07Fz7tTphkxzcj5YtlqGoWxuUYyhCNtN2RKqcYRk1FOO0Ozl22R7uK+HMTVcaWHmwtsxpy3nXXkZOMrOxrksli2wlZW+Z7wk3FtJtbpbRureSlySXyLtD0vqxwkl8TcL6zo/MQ/3ES9DOm61fo04YOoYGFj2Z2qxjKen3ZOTW3n3xlOFiza6ubdSa3re2679tyXdP4fx8fDjgU+MRxow6uK8dzJXQh5Iwyp3PIgkuxbTWySS2R5OC+DtP0auynT6raarZ9bOueXmZMesbk5ThHKumq5Scm5OO3Nst99lsVdKMkuLae/hf8Aco6bdm+Rz0ecLY+i6bi6bjOcqsaMlz2bdZZOc5W22T27N5TnN7eTdLyEe8aY2ZbxjRHAya8XJXDeW4WW0q+ttZ9SjCcHJNRc3Btrt2i/OTIjVbeBdNnqMNWlDKefWko3rUdRSjDnVjpVKyeqWO5rd08vI+3eL3LKVbTJylxafjx6lZwuklwND6HofFHPvztYvts4h0tW4N+DJV10YELXursWuuCdtV8EpK6blum0uxJvCPQNRz8rjinTs149ltsKY0KqiSyLJaZVy1ytu7aVPm5OZPs5t/IS3qHB2nXahVqk6Jxz6YKqGTRkZOPKdSmpqq6OPZGGTVzL1Fqkn3bbdhjqOjHSa7L7a1qNVmRNWZE69c1uuV81FRUrXDNXWSUUlu9+xbGSsSlqfVJWsrKzvwI3Tk7Hy4k4i03GxczCza55EsfR55Wo49MFZy4MU6pwsnzRjvKLvahzbuNVr82+p6fwZqmnYscnhvX/ABjT+pjbjadqcIZeHKlRc666cyDjbj07PZbdya3fpdze9D6PNIwq8+qjFko6nHq8925WXk2ZMFCdajO7JunZtyWzXZJerZ5ZdF+jcnVQoyKsaXq8KjUNQowLN2m+swashY802t2nDaW75tyGNVLhwfVfpyL9EnxRHPGWsfFHhzhTKxMenAlfrmiOijq98bHsV84RSqrcHLHU47qMXFuO3at9zds7gbP1HKwMnVtQxrqNOyFmY2JhYNuJGeVBNU25Ft+XdKfV7tqMVBNvt8xnuJOBNL1KGNDLotlXiOuWNTTmZuJTTOjfqZwpxLq61ZBPaMtt0uxPY2HDx41Vwri5uFcIwi7LLLbHGEVFOdtspWWz2S3lNuTe7bbZR1rfdVt38wqW7vuRZ4MkOp0rJw7Xtn4mp51eoRk31nXyvlNWSTe+06nXJS7n2tbnHEjd/HOjRxu2WDp2oW6jKPby4+TFV4tc2u6TvSkovydpuuucEafmXvKnC+jLlGNdmTg5mXp99tcfUwutwra5XRXkU99vJserhvhbC06FscSlwlfLnvunZbdk5FiXKrL8q+crrpJdzlJ7eTYuddanLm01bzGhqy5dSJ9Z4Inq1PENmJPqdUwuIbM7TMhcsZ1ZNOnaclU5S7qrFDlafpd+STT5Ejnog41jqFHE2p5eLbGNcaPG8NQTs6zE0uuGbRCuyfbvZVZGMZyTacebbt2lThrhLC02d9mIsmMsmcrL+uz8/KjZZLlUrHDLvnFWtQgudJPaKW+x9dO4YwaJ51lOPCEtSs63N2c+W+zq1U5ODlywbgu3lS3bbe7bZesQtLi1fhZ9N1f6FvdNSTRGOicGZ+NiVZPC+vyeBZX12Jp2owWdhOufp41VZG6vx6k3tsm2u3ftMRxprK1TgvDyq8erAlfqODW6aVB01X16wqLbKVFcs65WwnYu/fn7W+1kj09Fui11qmmjJxsfljCWNi6lqWLi2qKUfk2NRkxquk0vTSlFufbzOW7PfxDwJpefjY+FkY81iYvL4vj42Vl4VNfV8rq9Jh3Vxm4OEXHm35Wt1tuxHEqMlJ7tO/D/AG4dJ722uYHSdMytP1HUtS1XOjkae9LxIrIvjRRCjxezMnkVSqq74ctkJ87XbzuP701bpCwr9V1CnNops1XDp0/Fss0eOp5Wj52FZkuy6rKgqbIV3WTguRxskmnTsn5t31Poq0XKioZVedlVqUZKvK1rWcmreDUo71X5soS7UuxoyWv8E6fnZCy7YZEMtURx1lYmbmYVyojOVir58S6DcOayb2e/qvcLO+ipauflb6B05WtyMX0H6hTfpKjTbmWeL5eZTZHPhOGbjWLJsteLlc85Oy2qFsIc+/plGL2T3S35GI4d0PF0+hY+HUqq+edjXNOyc7LHzWW3XWylZdbJvdznJyfnMujHnJSk2uBNFNJJnYAFC4AAAAAAAAAAAAAAAAAAAAAAAAAAAAAAAAAAAAAAAAAAAAAAAAAAAAAAAAAAAAAAAAAAAAAAAAAAAAAAAAAAAAAAAAAAAAAAAAAAAAAAAAAAAAAAAAAAAAAAAAAAAAAAAEc9PWo5GLpdNuPfdjy+KenRnZRZOqXVTyIxnByrabhJPZrue4BIxxJHIANT0ngLR8XJ8cx9Nw6snmnON0aIc1crG3N1braltt7uCW+785tSOTgSbk7t7lEkjsAAVAAAAAAAAAAAAAAAAAAAAAAAAAAAAAAAAAAAAAAAAAAAAAAAAAAAAAAAAAAAAAAAAAAAAAAAAAAAAAAMVxLrOPp2JkZuXPq8fGrlbZLbd7LsUYr99OUmkl5XJI9uLfC2ELa5KddkYzrnF7xnCaUoyi13ppp/bIA8MPU9Rni0afi4ebPCjtmahl1418sWKhJxopnkRh1aSlzTkm+x9UbR4Lup6hPR1hajh5mPPBcY4tuTjX0wyMO1OdPVWWwSscNpR9L3R6rzgEvgAAAAAAAAAAAAAAAAAAAAAAA67AEc9PvH0eHtFvzI8ssqxrHw65dsZ5Fibi5LfthCMZza8vJt5SXD0J16kacFeUmkl5ls5KKbZx0qdL2jcOx5cq92Zbhz14WOlZkSi99pSTajTW2vVTa32e2+xBer+FtkOb8V0eqNafpXflznNrzuNVcVF+1u/dNC6COjrI4v1TIy9RyLp4tE42517l8myr7HKUaIza9Luotya9TFJLbmi1czQOj3RcCpU4mm4dMEtuzHrc5e3Oc4uVktvLJtnUYnD5fljVKrF1atlq3tGN+W3MxYupV3T0ogDhrwt4Smo6hpE6621vdiZCucV5X1NsI77d/qieuHekXR9RwLdSxM6mzGohKzIm24Sx4wr6yfjFc0pUtQTfau5NrcwnHnQtw/q1VkLdPqxrpL0uVh1wx74y8kt648tu3msjJe13FNulngHUuFcu7DldbLEzK3GvJpc6qcyiNkZuq2MZbdZCUYOVbb27Gt00TYLL8uzaap0b0al+Dd4tc7eNi2dWpR3luupZbou8ImOva7XpFelOim6WV1WXLM5pyrortthOWN4suSU41rePWPl5u+W3bP0T8/fBNltxbpXtrMX/yOQ/8AcfoGYHavKqWW4tUKXDSn133v9CTCVXUi2+p2ABzZlAAAAAAAAAAAAAAAEHdM3hB4PD+X8T68WzUMyEYyvhC2NFVHOlKEJ2uM27nBqXKo9ilHd9ptfQz0p4PE+LZdiqdGRRKMcnEtcXbTz79XOMo9llUuWW0uz1Mk0is/hOdFOsw1zL1HEw8rPw8+atjPFpsybKLOSMZ0211KU4JSXpXtytSST3TSkrwN+jjUtLjm6lqNNmI8yFVOPiWpwuVdc5SlddU+2tuTSipJS2Unsk1v1+My7LIZZCtTqXrO11fnzVuVjDhVqOo01sWUAByBmAAAAAAAAAAAAAAAAMAArzxN4UWmYGdmYM9Ozp2YeXkYk5x6jknPGunTKUea1Plbg2t/OeH9ltpP0s1H/wCW+GJN1LoZ4ZyL7sq/Sse3IyLbL7rZOxuy22crLJtc227nKT7F5Sn/AITvB+DomvvF0+t041mJRlKrmnZGuyyd0JKErJOXI3Uns32czS2WyO67OYHK8yqxw8oTU3G977Nrjz/QwcROrTWq6sTp+y10r6Waj72N8Mdf2W+lfS3UP/lfhiA/Bx4Vw9Y4gxsPUKndi9VfdOrmnBTlVBygpSraly82z2TW+23duXHr6EOFUtviPifbUm/fb3J+0GX5RleIVCUJyelPZ7b38fAUKlWpG6aI4x/C20Zv5Jp2pwXnjDFn/Q8mJvXBPTvw3qtkaa85Y18tlCnMi8aU2+6MLJvqpz37OVSbe67DFcUeDfwzl1zVOJZg3NNRvxsi7eL/AHrdN0p1Nb/xU350U76T+C8nQNUv03JanyctlF8VyxyKJ79Xco7vlb5ZRce3aUJLd7buLK8oyvNpOlQlOnUtdKVn+/1KVKtWlvKzR+lkJHYqR4InS1k+Mw0HUr5312xn8TrrW52V2Qi5yxZzk93U4Rk4b93LyrslFK25ymbZXVy/EOhV4rmuDXJmVRqqpG6OwANcSgAAAAAAAAAAAAAAHVBES+Ed0oX8L4mHkY2NTk2ZORKlxulOMYwjXKbknBp82/Kvtm6dGPEFmq6Rp+o21wqsy8au+dcG3CDmt+WLl2tL2yeeEqxpKs16km0n4r/4LFUTk480bQACAvAAAAAAAAAAAAAAAAAAAAAAAAAAAAAAAAABGXhKesa+yOmfpdZJpGPhLfM/a/KszTmn5U/Hae1eZ9oBJwAAAAAAAAAAAAAAAAAAAAAAAAAAAAAAAAAAAAAAAAAAAAAAAAAAAAAAAAAAAAAAAAAAAAAAAAAAAAAAAAAAAAAANF6fvmZ1n6zl/bgbNwj634P1njfmYGs9P3zM6z9Zy/twNm4R9b8H6zxvzMADKAAAAAAAAAAAAAAAAAAAAAAAA6oqP4eufN3aNi8z6tV5lso+Rzk6IRk/O0lNL+Wy3BVnw79BsnRpWpwjJwx7cjGvai2o+MKudEpNepjzUyju/LZFe70XZOdOGZ0nPhe3vadjGxSbpOxlPARy6ZaVqNEXHr4ajK2yK9V1VmNjQpb/AIrlRal/IkWQ2PzR6OuN9R0HNjnadYoza5Lqppyoyat03XdFNbrdbppqSfc0Wb4O8K/TblGOqYORhWd0rKGsqj25P1FsU+/ZQlt52b3tV2UxscVOvSg5wm77cVflbj5EGGxMNCi3ZosoRx4QHAsNe0TLxlBSyqYvIw5bLmjkUpyhBPyKceat+1Zv5Eevhfpc4c1LlWJquJKctuWq6fi1zb8ipyVCbfuI3ZSjNdjTT83lOMgq+CrRm4yhKLT3TT28zMempFrimfn/AOComuMNITWzU85NPsa207M7H9tH6DlfOCugO/TOLPi7XmY/iay87IhixrmrYwy6MmEK1L1O0JZC+1En7Is5YSltvtFvbz7Lc23aXMaeYYmFWDv6kU/zb3+pFhqTpxafU+oKb5nhaao/3LTMOHm57brf7Lgero98JnWc3V9OxMvH02GLl5dGNZKqrKjdDr5qqLjOzJlBbWTj2uL7NyN9l8f3TrafVSve6e3Eu9Jhe1y3wZB3TN4QWDoN0sLGpeoZ8UusqjYq6MdvbaN9yUm7dnv1cU353HdENw8K/Xus3eHpbq3/AHNQyVZt5ufxlrf2+X7RFhezuNxEVOEdnwu0r+VyssRCPFl1UcMhnoa6fNL1+cMS2L0/UZepxrZqdeQ0t34tfslOXe+SSjLzc2zZM8TXYrBVsNUdOrFxkuT/AN3RfCpGavFnCOSAPCE6dMrhvUqtPx8CjIVuFVlu222cXF2XZNXJyQXaksdPff8Afe0RRleFdrz/AHPB0uH8uGTZ/ZyYmywPZ7GYuKnSjqT8UR1K8IOze5dU5Ib6AelO/W9DztU1fxPGWHl31TnRGymiuirFxshzs6+2x8yd093vtsl2eeLOOfCuvV069FwaHRCTjHJzutlK7Ztc0MemcHVF965pt7d6j3EVDI8VXrSowjeUXZ8LJ+ZV14Rim3xLbhFbOhHwkPirnVabq2NRjX5MlXj5OO7PF7LX6midVspOqUu6MueSbaWy33Mr4QfTrlcN6nTp9GBTkq3Bqy3bbbZBxlZfk1cijBdqSoT33/fMtq5LiqWIWHlG03ydvjfgV76OnVfYnyQRTS7ws9YfqNOwI/ypXy/qkiR/Bt6adT4l1HJxM3HwqaqsR5EXjQvjY59dXBKUrbppw5ZS7knvt2mVjOzWOwtF1qsbRXO6f0I4YiE5JJlhgcSZUzjnwotSxNRz8KjTcTlw8zKxYztttm5rHvnSpyjBxSbUN9vbNbgcvq4ybhSV34tL6k1SpGCuy2gRSSfhV8RN9mLpSjv5KMpz28uzeVtv9osd0p9MOlcP41V2ROV9+RWrMfEo5XbZF91kuZpVU79nPLv2fKpNNGdi+z2Nws406kPWneyW97eRFDEQmm0+BJrBS/WfCx1mVjeJp+n0Vb9kcjxjJs237E7K7Kot/wCqjZujzwrVbfXRrWBXRXZNR8cxJWShVv2c1uPZzScN++UZNpfvWZFbsnmMKfeOnst9mm/gmFiqbdrlrAePByIXQhbXONldkYzhOLUoThNKUZxkuyUXFpprznsOeaadmZB1Bjtb1OjDotysq2FNFEJWW22SUYVwit25N/8A53FYekTwrnCydOh4UJwi2ll5nOo2eTmhjVyjKMd92nOab7N4oz8DlWIxjaoxulxfBLzb2IqlWMFuy2BwUwt6buPqqvGbdMlHHUed22aRmQx+Tv5nbuko+3zG0cC+FdTNShrOA6ZxhKUb8FuyqycVuq3j2S5qm9tlLmkt2t+VbtZ8uzOL0t01GpbjoabXuLFiYvjt5lp0GUS448IniXNud2Hb8TMNzkqK6qa7JS5OV7W33QfW2JOLajyx9OuwnbwUelbM4gx8zG1LknmYHUy8YhCNayKbudJ2Vw2jG6M65buKjFqcNktm3djuzGLwmH9IqJadrpO7V+op4mE5aUTwUa8Nr5pq/sZjfpGWXlKNeG3801f2Nxvz+WbLsH/VIeTIsd+GY7wPH/nVi+3j5X5tsvqUH8D/AOavE/mMv82y/G5k/aH/AFP/ANkfqxgPwgU28PCuC1PS5penliXRk/K4Qti4L352e+W+zcqFMJWWTjCEIuU5zkoxjGK3k5Sl2Rikm235igPhM8b067r1luLPrMPGqhiY9i9Taq3Odl0V87KyyST8sYRflMbsLQqSzKNRL1YJtvlwsMZNKFupq3RXZZDXdGlVv1i1TA5Ut+3fKpWz28jTaftNn6XR/wBxTLwQeizIy86nXcyqVeDiNzxFZFxeXkbShGcV3ump7y5u5zUUt9pbXRJO3uYUcVj7UnfQtLa63/QYGm4wd+Zwmcnj1DMrornddZCqqqMp2WWSUIQhFbylKUntGKSb3ZWXpJ8KqFVtmPoeJDI5HKPjuW5wolJdm9eNBxssr9uUoPs9T5TlsDluIxknGlHVbi+CXm3sZE6sYLdlpVIblI8nwhuMqa4ZV2LRXjWSUa7LNPyIY85STmlC6U1zScYyeyl3RbJB6MvCmxsmyGPreJHClNxiszHlOzG5pNL5NTPeyiHtqVnt7Jbmxq9msZTg5xSmlx0u7Xu4lkcRFu3DzLPA8mHfCyEbK5RnCcYyhOLUoSjJJxcZLslFppprznrNC1Z2Mg6tg0zpO6RNM4dxfGdQuacm40Y9aU8nImlu4U1trfbs3lJqK3W7W63rNrXhP67mX9VpGnY9MZSkq65QuzsqaXc9q5QSe3a0ov3WbTAZLicXFzhH1V/dLaPxf6EU68IOze/QuYhuUnxvCX4owch06hiYs5V7dbj241+JkRUoqce6fyNuMotc0H2ST2J/6GOmzTOI/kEVLD1GMOazCvlGTkl6qWNYtlfBLv7IyXe47dpJjMgxeHp95KKlD2ovUveUhXhJ2vuSyEGVk6cPCOu0zNzdI07Cj4xjy6mWZkWb1xk4RlvVjwXp2ufscpJbrti0YWAy+tjKnd0ld+5Lz3LqtWMFdmk+HBxTDJ1TD06qaktOostyOWSajflODVckv38aq4S/9uWR8Hn5mNE+x+P/AGD88dSzr8u+7IybJ3ZF85W3Wze87LJNyk5PztsnHgPwlcvStNw9OhpdF0MSiFCtlkzjKagtt3FVtJs9MzvsrXhl1ChRWqUXeW6W7Tvx8Wa6hiY97JvmXdBWjom8JDK1rWcHS7NMoohlytjK2GTOcoclF1yajKGz7a0vtll0eY47AVcJNU6qs+PFP6GxhUU1dHYAGMSAAAAAAAAAAAAAAAAAAAAAAAAAAAAAAAjHwmuzhvKl/B5Onz28+2fjrb2u8k4jHwnvmXz35I2YDk/Mvihirf8ApQBJwAAAAAAAAAAAAAAAAAAAAAAAAAAAAAAAAAAAAAAAAAAAAAAAAAAAAAAAAAAAAAAAAAAAAAAAAAAAAAAAAAAAAAANF6fvmZ1n6zl/bgbNwj634P1njfmYGs9P3zM6z9Zy/twNm4R9b8H6zxvzMADKAAAAAAAAAAAAAAAAAAAAAAAA6swnF/D+LqmHkYGbX1uNkw6uyG7i9t1KMoyXbGcZRi013OKZmmyCemLwgPjd1qGlz0yN9PV0W2ZXjTrlGF0nz8tKolu4xTfqu32jIwWHrVqiVFXkvW22e3O5ZUcVH1uBAXSr4PutaRZZbhVWanp6blG3HjzZNUN3tG/Gj6ZySXbOtSj5Xy77KH7qnCUoTjKE4tqUJxcZRa71KL7Uz9TKpqaTTTTW6a7U0+5p+VGB4o4G0nVE1qGnYuS9tlO2mErIrbb0lm3NDs+daO/yr7Q8Th4qniY94lz4S/Z/IwauBjLeLsfmcbXwT0h63o0ovTtRyKYRabx5S63Flt5JY9u9fauzdJPt7Gi2PFfgucP5Sk8N5WnWPdrqrXkUpv56vJ5pNe1GUSB+lLwe9Z0WqzJplXqeHWpSssx4Srvqrim5WWY0m/kaS3bhKe3a3sludZh+1OTZqu6rxUXL2kvruvmY7oVqW6J68H/p8p16cdOz64YmqcrcOV/5Nl8q3l1HM+au5RTbqbfYm032pTyfllpeddi3U5OPZKq/HshdTZF7ShZCSnBp+dSSP0u4C1talpmBnxSisvEx8jlXbyO2uE3D/VcmvtHn/bHs9Ty2tGdD8Opdrwf7dDNwld1E1LijRvCJ4N07L4e1W2zFo67Fw8nLotjVCNtVtFUrouM4pSSfJs1vs03vuUI0zLsx76MippW0XVX1trdKymcZwbXlXNFH6MdOnzNa79is/wDRbD84K4OTUV3tpL3W9kdN9n9eTwuIjUeqK5PfkY2NilJNFsPBk6HMbMxlxBrlSzbs2yd+NRkRVlSjOcpPKuhLstttlzSSkmlFp7NyXLMvHPRNoerYlmLdgY1TcHGrIx6q6cjHl+9nVZCKeyaT5XvF7bNNG28NafDExMbGrSVdFFVMElslGuuMIpLyLlijKHnWMzavUxDqqTVn6qTaSSeyRnQpR06bH5i8X6Jk6NqmVhWTccnAyXGN1bcG3Bqyi+DT5oc0HCxdu65kXs8HXj18QaLRkWteOUN4uYlst7qlF9Yku5ThKE/Ik5yS7isHhn4cauKZWJduRg4t8uzvlF3Y6ft+loj7xt/gGapNZerYe76uzHxr0vIp12Trk15m1bH7hHoXaChHH5JSxrX8yKjd9b7NfEwsO+7rOC4FrNQ0jGvkp3Y9Ns0uVTsrhOSim3spSTaW7fZ7bKS+GLw3iafr1U8SmuiGVhV32V1QVcHfG66ErFGCUYuUIw3272m/KXsKX+HX696f9j1+kWnMdiK1RZnTgm7O6ty4GRjEu7bI60ziG+HDENExHJ3aprl0rYQb57Kq8bTa6aGvLGeRZF+7UTB03dFePoXB1bwsWqWVGzDWqZir577a2nK19bJOVVLyljtQTUfSx33faRp4KnD71HifC595UYMbc+cH2xU6lCulpdyl188eW/l6tebsvrl41dsJ1WwhOuyLhOE4qUJxktnGUZLaSa7NmbPtNi1lmYKFF3tLvJb8W3dJ+S/Qhw1PvINvpY/Njow0+7L1vSsfGUndPPxXFw74Ku6Nk7PaUIQlNvyKDP0az9AwsmasyMTGvsUVBTtortmord8ilOLajvKT2/jPzmM4Y4A0XTLZX4Gm4mJdNOLtpohCzlffCMtt4Q7F6VbLsRtZoe0faB5nXjVjHQoxt4/IyMPh+7i097lJvDP4SwNNz8C/Cx6sZ51OR4xCmCrqlLHdMYWKEPSxm427PlS35U3u92ejwEl/y1qH2O/8RUZfw+flnRf5nP8A7eIYzwEfXjUPrBfpFZ2bqyn2Xbk23wu9/wC4wrJYmyLmmB4p4dws+i6jKxqbq7YSjONlcZbqS7Wm1up+VNdqaTXajPo+OX6iX8lnlVKcoyTi2n4G2kk+J+WmbSq7ba091XOcE35VGTjv/QT50BdE9vFlstY1y26zAqVWNTWpuE8t49caVDnXpqsaEYqL5dnKTls1tLeB9a+Wcj+ft/OSP0O8H3Bhj8MaJCtbRlp+Ne0vn8mqORY/tztk/tnsXbLMpYfA0e72qTVtXNRtvZ8r7GqwtJSm+i5GM1DoK4WuoeO9Jx6048qspc674vbsavjLnck9n6ZtPyp7spZ0ycDz4e1a/TXY7quWGRi2yW0rMaxy5HNLs6yMoTg9uxuDa2T2P0hiUv8ADqrXxcwJeWWnRi37UcjIa/tP3zmOxObYh49UZylOM001Jt+N1cnxVKKp6krNEpeBPxPZm6HbhWycp6bkOquTe/8Ak1666mO77fSyd0UvJFRS7iwJVHwBG/8Al5eRPTml7bWbv/UveLXHP9p6EKGZVYRVlqv8Um/myfDScqabKieHPxhd4xh6JVNxpVKzcqKbXW2TsnXjwl29sYKqye3dvKL70ttc8C/gzG1LVMrNy6oXw0uqh1V2RU6+vyZWqFkoy7JOEaLNt+5yT70j1eHJoFtWs4mocrePmYkaFPZ7K/HsscoN9y3hbW159peY93gJa5VTnapgzko25mPi3UqT25vFZXxtUfPLbJi9u/aMn5GdvTSp9mnLD/ef3muO7Wr4Iw3vX9YuBKiPdsveKHeFfwXRpGv8+NXGrG1ClZSqilGFV/WShkQhFdkYNxjPbuTtaWySL67lJfDZ1yrI13HxKpKcsDDjG7Zp8l2RY7Ore3dJV9TL/XRzvYWrUWZRUb6Wnq6W8feT4xLuznweNDxuKtOyuHNQssh8T7Fn6bkUuPW0RtlKGTXtKLU6XOcZbPvdsu1bLay3Qx0V4HC+PdXiTtvvyZQlkZN2ynYq+ZV1xjBbQqjzy7O17ybbfZtA/gIaDc8rU9ScWqIUV4dc2vS2WzsjfbGL8rhGFW/88i3kURdrcZKONq0KU33blfSntd7v57+ZXCU1oUmt+pyUc8Nv5pq/sbjfn8svGyjnht/NNX9jcb8/lk3YP+qQ8mUx34fvIv6O6tWnqFcdE65ahyW9X4vKMLerUH1m0ptLbl33Jajh9KHn1T7d+H/W5mD8Dtf51YvtY2T+ba/3l8joe22c+j5h3fdwn6qd5K74vYx8JR1U76mt+RQLjvh3ju6iXxWp1nJx12yr55ZNK27eeVGNOUUltvzOPZsYTor4k0PTb1PV9Es1OUZ79ZPIXJVs+xLBnBVXPs7pyfbv3eT9F3BFYvDI6L8WWJPiDDqjVkUTqjnKCUY5FVk41RunFd90JygnLvcXLfflW2syftFSxTWDrwVOE3bVTvF3fC9upLWw7gtUXe3UmXot6RdG12jm0vIjvXCPWYkoqrIx16lKVPzi2S5oOUe5Jm+H5d8Ma3l6Zl0Z2DdKjJx5qcJx9rvhOPdOuS3Ti+xptM/RXot4vr1vRsTVIRUPGKW7K091VfW5VX1p9+ythNLfta2flNZ2o7MTyuopRblTnwb436P9yXDYjvFZ8UVs8M/pJstyVw/iWbY+Oq7c9xfbbfJc9VMmn21wi4Ta8spLf1B5/A26MsbUJ36znVRvqw7lTh1WRUqpZUYRnbfKMltPkjOpR71zSk++CIR6RNQlmaxquVN7yvz8qzfyKMr58sV/FUdkvaSLs+CJhxq4T05pemulmWTfnk8zIin9xGK+0dJnFJ5TkVOnT9WVVrU1x3V3v8vIgpfzarcuRLLoh87Epn4YnRljaZdRq2BUqsfNunVlVQW1VeU4yshZCK7IKcI2bpbJOvdL0zLpEL+GRixs4UzJtbujIwrI+1J5VVO/3Nkl9s4zs3jalDHU7PaUlFrk09tzJxNNSg/Dci7wLukq1XS4ezLeeuUZ26fKb3lCcN5340W32wceayK8nJZ50laXiPVacLFyMzImq6Mamy62b/ewri5Sa872XYvK9j85+iTUZ4eu6PkQezhqOKpPz12XQqtX24TmvtlxfC71OWPwplxg+V5NmLQ35eSV9cpxXuwjKPuSZv8AtVkkKebQhTVlWa4db2f7kOHrt0m3/aU66TOMsvX9Uv1DJb3sl1ePQt3GiiLfU0QXnSe7f76UpPyl3OgPoxxeH9Mpi6oPPyK4WZuQ4p2StklJ1RntuqYP0qj2J7OTW7ZRvoyxo5Gt6RTNbwt1PArkv4ksqlT/APhbP0xq8nuIyu3FVYSFHBUfVgo3aWyfT9SzBx1yc5cTBcZcK4Wr4duFnUQvouW0oSWzjJeonCS7a7IvtUl2o/PXjnRMrhzW8nEqusrv07JjPFyIPkscPS3Y9ya7FNwlBtLs33R+lJRrw2cWNfE0JpbO7TcW2XtyV+VXv9zCK+0YHYbFuWLeGm706kWtPK/l5F+MglFT5otD0BcdriHRMfMk4LKi5Y2ZCHYoZNW3M1Hd8sZwlCxLyKxLyGQ1/oy0DMstycrSsG/Iu9NZdbj1zsnLlS5pSa3b2S94gHwCNSn1ms4bfyPlw8iEfNNu+uxr3VGr7lFrsr1Mv5LNHnOGll2YVKVKTik9rO2z3S93AmotVKactz8vuKKY152bXCKhCGXkwjGK2jGMbpqMUvIkkkXV6E+jDQMrh7SsjJ0nBvvuwqbLbbMeuVlkpR3cpSa3cn5yl3GPrhn/AF7lfn7D9BvB++ZfRPsdjfmone9uMVVhgMO4Sab5ptf2+BiYOKc5XR7NC6NtBwcivKw9KwcfIqcnXdVj1wsrcoyhJxklum4ykvts3BHJweTTqzqu822+rbf1NmopcEdgAUKgAAAAAAAAAAAAAAAAAAAAAAAAAAAAAAjPwo/mT1b/ANx/7ywyTCNfCZW/Cmrb/OYj97PxWv6QCSgfDFe8IN9rcItv7SPuAAAAAAAAAAAAAAAAAAAAAAAAAAAAAAAAAAAAAAAAAAAAAAAAAAAAAAAAAAAAAAAAAAAAAAAAAAAAAAAAAAAAAaL0/fMzrP1nL+3A2bhH1vwfrPG/MwNZ6fvmZ1n6zl/bgbNwj634P1njfmYAGUAAAAAAAAAAAAAAAAAAAAAAABwUQ8M5/wCdNn1li/8AFL3lEPDN+amz6zxv+Idn2DgpZjb/AKS/Qw8b+GWV8GPjaOs6BjOVnNmYMY4eWn6vmpSjXa/Op1KEt+7m5l+9ZK6Pzf6G+kPL4b1GOZQnbj2JV5uK5cscinffsf7y6DbcZ7djbXapNO9/Rt0j6Vr+Mr8DJhJqK63Hm1DIx33ON1O/NFb9ikt4vyNmL2oyGrgcTOUFenJtprgr8n0sMLXU4pPijcz52R9K/cOykjRulXpF07h7CnkZVsXY4vxfGhOPX5Fmz5YQh3qO/fNrliu/yJ8zQo1Kk1CCbk7LYypSSV2UX6bdJoweIdXxcaKhRXlScIx9TBWxjc64ryRi7HFLycperoLw54/Dei1TTjNadiylGXfFzphNxfma5ttvaKWdGHCmZxhxDZO2LdN2VPN1O2O6hVTOx2SqjL95OfbXCPk7+6D2/QTFqUIxjFJRilFJLZJJbJJLuSR3Ha7HfyaGFctUqcU5c97W4/ExMND1pS5M1Hpz+ZvW/sVn/otp+cOPZyThP52UZfctP/cfo905/M3rf2Kz/wBFtPzeN39nkNdDER6r9GQY7aUT9TNNujZVVOD3jOuMovzxlFOL95o9ZBfgr9KGLqml42m3XRhqWBTCiVVk0rMiiiKrhfWn22bQjFT23akm32STct6/ruNgY12Xl3V00UQlZZZKSUYxS3/1pPuSW7baS3bPNMbgatHESoyTunb57NdbmfTqJxuUu8NPKjZxRyJ7ujAxaZLzSlPIv2+5ui/tmz+AhgSln6tlcvpKsbGo5vJzX2WT5V5+yjf3vOQnx/r9/EGtZebXVZKzPylHHoSc7er9LRjVJR9VNQjBdnlLs+Dd0dy4d0eFN6Xj+VPxjMcZcyjZJKMKVLuahWkm12OXM1umj0rPcRDA5FSwcn/MklePwbf+8zBoRdSs5rgiVyl3h1+ven/Y9fpFpc1ziu9opX4cWVXPXMOEZwlOvAipxjJOUOa++UVJLti3Fp7PyNHL9iIt5pT9/wBCfGfhMzHgD40Xmazdt6avHw64v+LbZkSkvfph7xb8qB4B2VCGVrVbnFTsqwZQi5JSlGueXzOMe+Sjzx327uZFu4Tj5GvfI+2cZfxSrfqvhZFcF+EvefYA6Skl7XunLGWVF8Pr5a0T+Zzv7eKYzwEvXfUPrCP6RA9fh45dcs3R6ozi7K8fMnZFSTlCNlmOoOS74qXJPbf51mP8BrJhHWc+DlFSnhLli2lKXLfBy5V3vZNdx6xCD/8AFrW6v/8AY1T/AOQXVR8cn1Ev5MjtGaf/APhni1XMqpqsnbZCuuuuc7LLJxhGEIreU5zk0oxSTbbPKYRblZG05H5haz8s5H8/b+ckfo10IfM3oX2J039DoPzj1WalffKL3jK2yUWu5pzk0/eP0P6Cc2qzhrROSyMlHS8KptNPlsrxq4Tg/NKMoyTXtHp/b2nL0bDO3L9Ea3B/ekSAUt8Or16wPsc/0m4ufKaXmKT+G7m02a7iV121znTgxhbGM1KVU5XXTjCaT9JJwcZbPt2lF+VHN9iIN5pTt4/RmRjPw2bX4APqte9zTf8Axxa9FSPAIy64265U5xU5xwJwi5RUpwi8xScY97UXOO/m54+cttGXYQdr4NZrWv1X0RXCfhIiDwmtf4fxtJeLrsZ3vJbli41G3jkra09rqJNpU8nNs7JPl9M16bfldK+HcLU1kxzdHxdS3oudmNdj02321crfJzzor5JS27H2bPdrbZ7Ei+GXO98UWK1y5I4eMsZPfZUtScuX2uvd/wBvckPo98JbRsDTMLCyNNz4WYuNVTLxavDspk6q4wc4ud9TXM4t7cv759/edRlVLE5fl0alCDrd996N7xivy77vmY1VxqVGpPTY1qfS30h3UeLQ0zIU5R5FkQ0bL8Y3fZzJNOlS9vq9keTgDwc9d1jJeXrVktPpuslffO2Ubs/InNuc5KKbVU5Sct5WtNN78kiT34V+g+TTtTfu04a/8Wz0YHhW8P2SUbMbU6E/386KJwXu9VkSl70TWqpmVGMvRsN3TlxlGN37unwJLU21qlcmbgzhrD0nDpwMGmNOPRHljFdrk32zsnJ9s7JS3k2+9sz6NV4G480rW6XdpmZTkxjtzwi3C6rfb91psSsr7+9rt8m5tRw+JjVVR96mpX3ve9/G+5mxcberwBRzw3fmmr+xuN+fyi70ro/PL3yjHhoZVdnE6Vc4zdeBjVzUZJ8k1bkzcJbd0uWcHt/GR2PYKDeaR2/tkYmN/DPh4HHzV4/1tlf2C+ZQfwRMmuvirE6ycYdZj5NcOaSjz2Sr3jCO/fJ8r2Xl2L5dfD56Pvkv2gwf8T4f2L6stwH4XvPtsRx4R9kI8Law57bPDnFbvb08tow+3zuJu2paxjY0HZkX00QXfO22FcVt55TaSKmeFb0z4ep4/wARdKtV9ErIWZuXB/IbOqanVj0v/wBLHnUZymuz0kUm+3bn+z+W18RjaahF6VKLb5JJ3e5PXqxjB3K2ovH4GtdkeFYOafLPKzJVb+WtT5W17XWRs95lQujngrP17OrwcCpybalfe0+ox6t9pXXS8kV27Lvk+xJs/RDgPhyjSdOxNOxt+qxaYVJtbSm12zskvn5zc5v25M7/AO0PNaMoQwsHeSab8EkYeCpSu5cj84+OsGWLqup4848sqM/Mqcf5N9kVt51st0/M0Xe8EfKjbwnpyT3dcsyqS80o5mQ0vuHF/bII8Mvo+tw9S+LOPW3h6hyRyJRW6ozIR5fT/OxthGLT+ejZ51vmvAm6QqMfxjQsqxVyvueThTnJKNlsoRhfjJvum1CM4ry7W+XbeLPan8TyKlVpes6bWpLirKz28CtH+VWafMt2yFPDJy418KZUG+2/Iwq4e3JZVd233NMveJndi/8A8lPfDW6QMfMtxdFxLY2rDtd+ZKEuaEb+Rwpp3XY5whOxy79nNLsaaOI7NYOpXx9OMVspKTfRLfcysTNRg789iEejHBlk61pGPBbu3U8KPdvtHxmDm37UYKTftJlyfDA02V/CmVKMebxa7Due3eoq6FcpfaVm/ubkPeBb0e25GdLXciDji4SsrxOaL+T5U4OE7Ib9kq6oSnHf5+a27YPa2XF+iU6lg5eBkLenLotx7Nu9Rsg47x80lumn50jpu1ecU5ZtTlB3VFxv53u/kY+HovunfmfnN0X5UaNc0e2b2hXqmBOT80I5VLm/udz9L6u0/MrjPhzM0XUb8DLjKvIxbPSzjulZDfmpvpl5YSjtJP29uxpovz0KcfY+v6Tj5ULIeMRhCvMoi/TUZCj6ZSj2NQk05Rfc4teZ7SdvKXpCo4yl60JRs2uC5r9Rg3pbg+JIG5Rrw18qNnE8YJ9tOm41Uvak7sm3b7m2PvlzeI9bxtPxrsvKuhTj0QlZZZZLaMYxXvuT7lFbttpJNs/OvpL4is17W83UIQm3m5CjjVJOdnVRUaMatRXa7OSEFsvK2YXYLDNYx4iatCnF78rv/Fy/GzWlR5snLwC8CTyNYytvSQqw6E9uxynO+bSftKEd/wCWi2uT6mXuMjHwbeAZcP6JTTekszKm8zLS/eW2RjGNO/8AEqhCL27OZSa7yT7fUv3GaDtBjo4vMKlaLvFysvJbE2HpuFNJn5hcZr/lHUPazsv9IsP0E8H75l9E+x2N+aiUG6SMOzH1nVabYuM69RzYyT/n57NedNNNPypouT4MHHmn5XD2HjvJoqydPp8VyKLLVCdapclVZtNpuuVXLLmXZvzLfeLO77aU5Vssw86aulbdb/27GHhWo1JJmZ6eulqHCkMGyeC83xyd0FGOQqOr6mMJN7uufNvzrzdxvfCerPOwMLNlU6HmYuPlOmUud1O+mFrrc0lzuPPtvst9u5FPPCU4mhxVxHp2laXZHJrx5LDqurfPVZkZdtfjFkZLslTCNdac12fI5vfZJlz9IxYUUU0QW0Ka4VRXmjCKjFe8kcDmGChhsPSbVqk03JeF9rrlsZlOblN77I94ANOZAAAAAAAAAAAAAAAAAAAAAAAAAAAAAAAI58JWHNwrq6/6PHf3OZjS/wBxIxHnhHJvhbV9v4Gp/aWVQ3/QgDedOnzU1S7uaut7e7FM9R4tGaeNjtdqdNTT9p1xPaAAAAAAAAAAAAAAAAAAAAAAAAAAAAAAAAAAAAAAAAAAAAAAAAAAAAAAAAAAAAAAAAAAAAAAAAAAAAAAAAAAAAAaL0/fMzrP1nL+3A2bhH1vwfrPG/MwNZ6fvmZ1n6zl/bgbNwj634P1njfmYAGUAAAAAAAAAAAAAAAAAAAAAAAB1ZVDwj+h3X9c4h8b0/FhLEnj4tLyLMiiuMJR5lY5Vyn1rjHm37Ivfbs3LXNCKM3LcyrYGq6tG2qzW/Rlk6cZxsyI8ToH0P4iU6PdR1jr+SPMilXlPKkoqzJjZs+Ry5YrkfNHlhGLT5UQhxP4MeuYF7v0XOhkxg96t7Z4ebH2lKPyJtd3NzR38y8lzEcSMrDZ9i6Mm9WpSbbUt02/B/oRyw8GuHwKVQ4S6UIR6lT1Vr556phy7O791llc69/c9nC/gz67qWQsnX86NCls7fk887Pnt+9dk96o+7zT28xcoMyH2krqLVOMIN84xSfx3KLDx5tvzNV6PuCdO0LEjh6fRGmtbOc/VW3WJbOy2b7Z2P3l3JJbI2nc5BoalSdSTlNtye93uydJJWRpXTp8zWufYrO/RbT83T9G+ne+K4a1zeSW+l50U99vTSxrIxXuuUkvtn5zUbc0eb1PMub3N+3+g9V+z1SWGxD/AN4M1mO3lEtR0veDfkX5M9T4fthCd0/GLcKyXU8t0vTSni3pbR3m3LklyqLb2lttFRzb0JccZ04VZeNkShB7RszNSoupr37OaKWTOW23zkWXm07IhOuDjJSi4RakmmpbrdNNdjTXlPSzjqPabF4daLRlbZOUbte/YyZYeE99/cQf0DdAWLoE45+ZOOZqajKMJJPxfEUuyXi8ZpSlY49jsls9m0lHd7zkjszqzRY3HVsVUdStJyk/9svAyKcIwVkivXhJ9DWrcRaljZmn34VVdGHHHksq7JqsdivunvFU49icOWce1tPdPsIol4KvEj//AFWj/fOZ/hC7oRssD2gxeDio0WlbwTfxIp0IzbuUkXgq8SLtWVpCa7msjM/whvXQX0B63omu4up5uTp9lFEMmM40X5NlzdtFlUeWNuNCLXNNN7yXZv3lokcMuxfaTGYqDjVaerZ+qr/G1xDDRi01yGxBvhP9FWp8SvSnp12JV4is3rXk231OXjPivJ1fU02b7dRPffbvj39u05g1GGryoVFUj95dd/k9iaUVJWfApDLwVuJG23laQ2+9vJzG37reGcw8FbiRPdZWkJruaycxNfbWGXd2B0X/AJfmOjRqWnppVvoY/okPEgXwZOiTVOHL9St1G/DsWZXjQr8VtvtknTO6UufrqK9k1ZHbbfuZHHSF4N3EGfq2p5tGRpqozc7Jyq42ZOVGxQuunOCnGGLKKmoyW+zfusuCNjVU83r06zrxtqfgrfDgSuknFR5IpA/BV4k+iNJ++Mv/AAh3j4K3Eu23jOk7PvTyczZ/a8TLuobmzr9rMwrx0zkmvJEccLBcLkIeE30W6lxHXpkNOtxapYU8mVjyrbqt1dGiMerdNNjb9JLffbvXeQf+xV4k+iNI++Mr/Bl3kDEwHaHF4KKVBpWvyTe/HcuqUIze5SGPgr8SJ7rJ0lNdzWTl7/ohYXwaej3O4b0rIw8+zGtuuz7MuLxZ2WV9XOjFpSlK6qEufmol2bbbOPb5pZRxIjzDPMTjlas0978EmVpUI036pXHwvNQ4WlVTjam7parXHnxfEFW8qqub/wDTu19WseUlvyzfM9m47drKz8FdHGsa7Ox6Tg3X0Qm4vItddFMVv2KVtklGViW28YOT7e49fT/i5dXEusrMU+snm3W1ykn6bEnLfFcX5YLH6qK83Lt5C6ng/wCoaddw/pq06dTrpxaa7K4Si51XqC6+F8U943dZzN7+qcubtTTO3p46vkWW06mHbm6u93vGPOyXj5mE4KtValtYrHR4LXE01vKzTK3t6meVe2va+R4sl/SYfifwd+J8Gqd3i2PlwgnKSw7+ts5V3uNVsISsftRTftF+nIwnFvEeFpmNZlZ+TVj0Vr007ZKK38kYrvnN+RJNvyI1GH7cZp3qtpld/d0/JW3Jng6Vj86uj3ifK0PVMXUKJThPHtSvr3ceuockr6LY7reMoprZ9zUH3pH6V0yU4Ra7U4pp+6fn1wzw5Pi7im/xPHnXhZWoXZeTLlSWPhzvlObscVyxtlBuMY+WcvL2s/QelcqS9or22xFKvVpTilGppvNdHtZP5jCRaT6XKica+DbxFmarqeZj5umxpzNQzMqqM8nNhZGrJyLboKyMMRxU1GaTSbW+/azA/sVOI/onSfvnM/wZd4GmwvaXG4aKVKSVlZbL62JZYeDd3cpF+xU4j+itH++Mz/CH1XgvcUfR2mffmf8A4MuxsNiar2sx9Xeck/8A2r9inosPEpTR4KnEE5b352mJP1Uo25dstvcnjR3983vhDwT8KmUZ6pqWRl7droxq1i1P+LKblOycf5PIyzYRBU7TY6UdClpX/VJfNIqsNBO9jAcJ8LYGlY8cbT8SrFpXbyVR25n89Ob3lZP25Nv2zPhg0U6kpycpNtvm938SdJJWRi9e0jHzse7Ey6a78a+DrsqsjzQnF+RryNPZprtTSa2aKp9I3gt5lV0sjQMiF1XNzxxcmx1ZFUt94qnIUeWxLs2c+RrbvfeXASBscvzbEYJvunZPjF7p+aI6lKM1uikk+B+k2dficnqfUbKD31bF5eXbbZ2rK55Q2Xqd32eQ2Poz8Fi/rIZGvZNfVp8zwsSUpTs9q/IaSrW/eoKTafZKJbbY7P8A/O0z6naXEuDhTUad+LhGzfvI1h43u7vzMdouk0YVFWNjVV00UwjXXVXFQrrhFbKMYruRkgDnpScm23dsySOOmPoo07iWiMMlOnKq38XzKlHrq9+1wkpdltLfa4P3U4vtK039AnGWjZLu0i3rn2qORgZaxbZQ811eTOtdvzqlNe2XbDRuMDnmIwtN0k1KHsyWpfAgnQjJ34PqikWb0R8f63OuvVHb1UZJxlqGoU2UVt9jmqMadjUtvKo7k3dCfg/4GgTjm5Ni1DUo9tdsocmPi7rt8Xqbbdneusk9/Modu84bHEkX4rtBia1Puo2hB8YwWlPzKRw8U9XF+J3ABpTIID8IHoCp1+96jg314mouMY3K2LeNlqEeWDtcE5VWqKjHnSlvGKXL2bkHQ8GLih2cjWDGO+3WvKl1e2+2+yqc9vL6nf2i9Y2OgwfajHYaiqMZJxWyUle3kY08LCctTIQ6BegfF4dn49kWrN1JwlCNsYuFGNCa2nGiMvTSnJdjsls9t0lHd7zbE7BmmxWKq4mbqVZXk+fh0JoQjBWijsACAvAAAAAAAAAAAAAAAAAAAAAAAAAAAAAABoPhDfMxrH1tH8/Ub8aH0/pPhnWd/oNv7anBr+kA27h75TxPraj81E9xiuFHvgYLfa3iYzb/APYwMqAAAAAAAAAAAAAAAAAAAAAAAAAAAAAAAAAAAAAAAAAAAAAAAAAAAAAAAAAAAAAAAAAAAAAAAAAAAAAAAAAAAAAaL0/fMzrP1nL+3A2bhH1vwfrPG/MwNZ6fvmZ1n6zl/bgbNwj634P1njfmYAGUAAAAAAAAAAAAAAAAAAAAAAAAAAAAAAAAAPhkRbjJJ7NxaT7tm12PdH3ATswUl1Dwe+NciHV35lV9e6fJdqGRZDddz5ZwaMf+xg4n82B99z+BL0IHV4btjjsPHRT0Jfl/yYssJTfG5T3o76DOMNP1HTLrMqqOFiZ+JfdRXqGQ4dRVk12XRjTyKMt4Rl6Xue5cJIHJocfmFTG1FUqKKf8A1VianTUFZHIAMIkAAAAAAAAAAAAAAAAAAAAAAAAI76WuivS+JaFHMrcMitNUZdO0cipvd7b91tW73dct137bPtK4ZHg6cWaVfK3SM6ufkjdi5d2DkSit+ycHtGPl7FZJdpc+B2RtcHneJw0HTTUoezJXj8ORDOhGTvz6lOYcFdKElyPLy4x7uZ6jjbv/AFoTcz16R4Nmv6ndC7iDWeaK7Wlfk5+Tt5YKeTtXU/bXOuzuZbsMnln9b+yMIPrGKT+dy3uFzbZqnR5wNpug4kcPT6FTBNSsm/TXX2bbOy+zvsm/eXckl2G1NnINJVqyqScpNuT5vcnSSVkdgAUKgAAAAAAAAAAAAAAAAAAAAAAAAAAAAAAAAAAAAAAAAAAAAAAAAAAAAAAAAAAAAAAAAAA0jp5hzcNayv8AqVj+5cZf7jdzSunNN8N61t9L739pR3f9CAM9wdPm03T5d3NhYj9+itmXMLwK09L01rtTwMNp+08eszQAAAAAAAAAAAAAAAAAAAAAAAAAAAAAAAAAAAAAAAAAAAAAAAAAAAAAAAAAAAAAAAAAAAAAAAAAAAAAAAAAAAABovT98zOs/Wcv7cDZuEfW/B+s8b8zA1np++ZnWfrOX9uBs3CPrfg/WeN+ZgAZQAAAAAAAAAAAAAAAAAAAAAAAAAAAAAAAAAAAAAAAAAAAAAAAAAAAAAAAAAAAAAAAAAAAAAAAAAAAAAAAAAAAAAAAAAAAAAAAAAAAAAAAAAAAAAAAAAAAAAAAAAAAAAAAAAAAAAAAAAAAAAAAAAAA0/pr+Z3WvsdlfmpG4GpdMUU+Htb3+lec/trHsa/pAMh0e+tGlfY3B/RajOmudGbb0TR2+1vS9Pbft+KUmxgAAAAAAAAAAAAAAAAAAAAAAAAAAAAAAAAAAAAAAAAAAAAAAAAAAAAAAAAAAAAAAAAAAAAAAAAAAAAAAAAAAAAGi9P3zM6z9Zy/twNm4R9b8H6zxvzMDWen75mdZ+s5f24GzcI+t+D9Z435mABlAAAAAAAAAAAAAAAAAAAAAAAAAAAAAAAAAAAAAAAAAAAAAAAAAAAAAAAAAAAAAAAAAAAAAAAAAAAAAAAAAAAAAAAAAAAAAAAAAAAAAAAAAAAAAAAAAAAAAAAAAAAAAAAAAAAAAAAAAAAAAAAAAAADVel2HNw/ri7v+SdRf3OJbL/cbUav0rJvQNbS7W9I1JJe34lcAduiyfNoWiy7t9I057e7h0s2Y1bolaegaHt9KNOX21h0p/0o2kAAAAAAAAAAAAAAAAAAAAAA+UiNeL+mLStLzLMK7xm26rl610VwnXBySlyOUrI7zSa3ST23279yS2iAulnA0rh2Obm1QWRqmrW2vHWSoWrF6z019tUZR9LFSm2t923OEe5SM3LqEa1XRJOTeyS/3kjXZhWnSp64tJLqbFV0+6G2ltmLdpbvHT238r5Ztv7W5LcZIqh4OfBHxRzfHr4b4eDNOKkk43ZSSlCHb3xrTU37fVrubM30vdJfEGmapkYdd9FNMeWyjq6K5uVE1vW5yvUm7O9S22W8Xt2bG1xmT05YjucM7uKu7v5cORg4XMqkaXeVls3ZWLK7hFcOl3pK17Tsqqqm2mmm7FovqlCmE7PTQ2tVvXcy5lZGW3KkuVx8u5kekjpB13D0vRc3HsohDNxKJZFnUxnb41OiNz2jPeuNUouTSS3Ti/JsYSyes9FmvXvbfp12J/4tSWq6fqk+7GH4n4iwtMoeTnZEMelSUeaXM3KbTahCEE5WT2Te0U32PzEFZPSVr8eHMbUoXUStll3499s6IdZy/wDoZQjHapRTjKL3jv2w/jM9fD2sX8Q8L6xbqqqyrMTxqePN1VwlVOnDjdXOPVxSUoylLtS3ak090yv8KqQWuo1pUtLtxve210UlmsJerBPU1fckXgXpQ03WcyzDw1kSlVTK/rLKlXVKEbIVvlblz829sexxXZub8yqXgpP/AJcu9vT71/8AMYr/ANxayRHmuDjhq7pwvaye/HdE+XYmVanqlxuYXijiDE03HnlZt0aaYdjct3KUn6mFcV6ac3s/Sped+RkYQ8IXSXbyPGzo177K110P/WcVduo++/aI08JjXL8jXLMSUpKjBrqjVXv6TnupjfOzb599ZGO/mgiT8HG4a0/h3AhqUceOPmY1UnKVUrLr7p1xnOyPUxdvOpT9UvUbxW67DPjllKhQp1ailOVXgo8l+r8DAnmNSpWlCDUVDm+pvfAXG+BrVd1mFObVFihYrIck1zLeE+Xd+kklLZ/xZd2xtW5BfQXkcOYOXl06dqlt92fKtVU5NNlDUKetlCuEp1xjbZ8kl29jey2Xfv8ALijjDiiyrUcyPU6NiYXP1NV1MJZWVyNrs69ST3S7JRiotySXN2swKuXudZ04Xitratnv7uvgZkMwUaSlPd+HAnsxWTreJVfVjW5NNeRfv1NE7YRtt2336uEnzT7n3LyEQ9FnHur69p2o4ytoo1LGVDpzHVvW67ptTcqUnHrYxrs2aW284dnY94U4dlqeVrlSpy/+UpZUoQy727IqyPOnOXPCe8dlLZOL8nYjLw+RVJuoptRdNXa+j8iGvm8YqDgrqRd3c6qW5CHH/SDqfD+nYmJlXUZ2s3q2c8hVqFNVXWSVdnVwhBTnttFLZLeEm99vTanj9Meq6fk4rys3D1XGvrhZfCiFcLMbnfp64yqUV1kEv33Nvv8AbMSGU1p0+8jazvbxtxt/mxNLNKSlofHYs8dCtvSz0gcTaVnuDvorxLm7sOVVEJ124+/pVKV8XJXRTjzLdbNprsaPNxh0v6vDE0y7EzsTmycWTyYVUVyvqvrm4T6yNvOoQluuXZLfkm+7YnpZFiKihKDi1PZb+De+23AsnnFGDakmmiznacSK14vS3qb4ftvlqGP8UlnRprj4vX1zocIyb6tLlb35nz8u3pWu9rbdcnW+KsLS8NSor1DUs257zVShVhVShCUY5KqcYuabl6f0sI7NNy2XNi1stq0ZaZ2Tu18PPkS08zp1FeKb2uTA2cRK0ax0ocQaNqix87Kx8+mCpndGqmuEHC1RlZGqdcYyjZH0yTlv3JtduxsXTvxrxBpV9NmJZRVp+RFRptjVCyzrVBSnC7rk1GT7XHlSTivOmTfwatrhC69dXi77P5cS3+KUnBys/Ve5O5wVuXSlrNmhUX1ZmPLUbNSeI4xx4O+VbrUoKMHvBz5++XJttKK7GnvOHA0NShg0rVbars5pu2VMFCK3e8YPb0spRXY5RST27F5Xi4nAVMPtNq92rc9uPuMjDY2Fd+qnw4mygAxDNAAAAAAAAAAAAAAAAAAAAANF6fvmZ1n6zl/bgbNwj634P1njfmYGs9P3zM6z9Zy/twNm4R9b8H6zxvzMADKAAAAAAAAAAAAAAAAAAAAAAAAAAAAAAAAAAAAAAAAAAAAAAAAAAAAAAAAAAAAAAAAAAAAAAAAAAAAAAAAAAAAAAAAAAAAAAAAAAAAAAAAAAAAAAAAAAAAAAAAAAAAAAAAAAAAAAAAAAAAAAAAAAAGu9JvrJrP2K1D9EuNiNf6REno+rJ9qem56a9p4toB5Oh35ntE+xWB+jVm1mndCzb4d0Tf6W4i+0qYpf0G4gAAAAAAAAAAAAAAAAAAAAAHxl3FPuk7D17VtSvyrdK1JVpurHr8SyZqqiDfJFOEHFt7ttrsblLybFwthsZ+W5hLBVHUhFN2tvyNfjsCsTFRcmkuhVvQNR4idOl6Rg6bm6ZXVfV12RGjJpd81NStsvsshFQqfp5yj2793clEyHhLcH6hbqNObjYuRk0W41dNjx6p3SrtrnY9rIVpyjBxnDaTW2+6LJKCO7RkRzeUKyrQik978d78bmN/C06bpyk3w+RUTpQxNc1O3Buu0bMo5cSFNcK4TyZS5Zy5pzjXDmok5SXyOaTS2799zeuN+FtUzuEtNr8Qtry8B0c2ImrLrKKKbMfnUI9vWSTrn1ezkvTLtLAOteYOJWedTehRSXdu648ykcoinK7b1KxUOeLrs9AWnfEbLVFOX1ssiVdkbZc0pONccaUFZNKcnvZHdLsT2Ng4Dx9XwuHdYxJaPnSeXzwqarlG1+M0Oi2Xi0o9a4QjBS3inu5pdneWdUEFEvqZ3KcHBwjZy1c+PHqWxyhRkpandK3uKq+D9peq4Ot1WWaXnRpupsx7rLMe6mFMJuE1Y5WxjHsnVDdb77OWybLUnCivMj6GDmGOli6neSSTslt4Gfg8KsPDSndXIG8IXowyc61app0OttVca8nHTSnYobqF1e72nNR2i497UY7bvdEYV5erS034jZWiXZLr51hW24eSsrD6yalNVNR5nHddkezyJ8ySiXEXaFX7XaZuHzupTpRpTipKDvG900+W6MSvlMKk3OLcXLiQT0G9GN+BRdqGbjVxzpQfiNVqjOWPtCW1k+9V2zlJLbvjGPbs20oqp4X1fIy8yOfpOpZmZdXZGq2zrq41ZMpqUb5XLauytRU0ouXI9139m1zjhxXmKQzuoqsqsoqUpW6q1uFrcilTKIOmoKTSRWnwbNI1bE1LKjbgX049lDhkW5FdlPV2QblUq+dJWycm00vJLfdbduq5fDetaRrnjFOnZN86cud1Eq6LLqb65WS22sqj++hL2nHft7i36/rCgiT+P1e9nUcV/Mjpa8i3+Dx0RipP1Xe5W/pc4M1rVcPC1izDis2FNlWVg0bzshR11k8dwi5SdlijNqUI7vdrs71HwcDUZ2QsXChwjgq2t1Rvzs7BddbrjyxsssVtcd7moyb2k22+yJaBxOsa0Y6zafc900rJtrirX8uJe8qj3mtPja/uNF6YOCY61pk6YpeN0/JsST2W10U/kbl5ITjvF+RNxf70h3oi6HHnY2ZfqlN+O5Rnj4sJxnVZXavV5Dg9nJRklFKXY/km67mWdOdizDZvXoUnSg7JtO/NeXmS18ro1ZqclulYq90P9FeatactQxpV42m2c/NKL6vIti96FTJrayrfaxtbraMU/VG1eE/g6vcsSOHXk24ChZ11eNGc/k+65XfCtczhydzfYnzeVondnWcS+rnFWrXjWqJScVa3L/wCS2OWQhSdODtd8SlnEXCGoT8Wuo0TPxqZ0VVcnVX3TndWlG2yUeXnrc5PdKSW67iduMbcbU9Jp0fULKMXWcjErvpxJT5515FcHZBOe20HLkknFvfaU0t+9y7KKI26QuiXE1fNr1DxnJxMqEYxlZQ16ZQfpWt+2FqXZzJ+RdnYZMs47+VNT9Tu91JXb8LmKssdKEtPrattyEPB14alm61C6yD6rAj4xbzLZK7thRB790ufef/sGW6j5DV+AeDcTRcXxbEjLtlz22zalbdZslzzkkl3LZJJJeRdr32lMxM2zD0ys6nLgv395nZdhPR6dnxZ3ABrDYgAAAAAAAAAAAAAAAAAAAAGi9P3zM6z9Zy/twNm4R9b8H6zxvzMDWen75mdZ+s5f24GzcI+t+D9Z435mABlAAAAAAAAAAAAAAAAAAAAAAAAAAAAAAAAAAAAAAAAAAAAAAAAAAAAAAAAAAAAAAAAAAAAAAAAAAAAAAAAAAAAAAAAAAAAAAAAAAAAAAAAAAAAAAAAAAAAAAAAAAAAAAAAAAAAAAAAAAAAAAAAAAADBcew5tJ1OPdvp2at/NvjWozpGvTrx7i6LgyqysbNsWo4+XjU3Y1dM6a7nS4qF0rLoSg3z7rZPdQl5gDMdCM+bhzRX3f8AJ+OvuYKP+43IhjwZ+kDF1DAxdIoxs1Xabg1LJyLK6FiKSlyRjCcbnY5SfM0nBdkJd2xM4AAAAAAAAAAAAAAAAAAAAAAAAAAAAAAAAAAAAAAAAAAAAAAAAAAAAAAAAAAAAAAAAAAAAAAAAAAAAAAAAAAAABovT98zOs/Wcv7cDZuEfW/B+s8b8zA1np++ZnWfrOX9uBs3CPrfg/WeN+ZgAZQAAAAAAAAAAAAAAAAAAAAAAAAAAAAAAAAAAAAAAAAAAAAAAAAAAAAAAAAAAAAAAAAAAAAAAAAAAAAAAAAAAAAAAAAAAAAAAAAAAAAAAAAAAAAAAAAAAAAAAAAAAAAAAAAA1TpE4zx9Ex8fIyMfMyvGcyrBpowaoXZE8i6Fs61GudkObfqnHaLbblFJPc2sjHp9/wCa/wDphon/AIoA59F76l+L/wAC/rx6L31L8X/gX9eSaACMvRe+pfi/8C/rx6L31L8X/gX9eSaACMvRe+pfi/8AAv68ei99S/F/4F/XkmgAjL0XvqX4v/Av68ei99S/F/4F/XkmgAjL0XvqX4v/AAL+vHovfUvxf+Bf15JoAIy9F76l+L/wL+vNT6VuLa9d0nK0+fDHFsbLI9Zi2S0R7U5Ve7psbVzajvvGWy35ZzXlJ5ABXDoI1r43dNePbwzxVZm32yuy7adGlKuTW8Ka65TtjJ1xrSfal6adnnJC9F76l+L/AMC/ryTQARl6L31L8X/gX9ePRe+pfi/8C/ryTQARl6L31L8X/gX9ePRe+pfi/wDAv68k0AEZei99S/F/4F/Xj0XvqX4v/Av68k0AEZei99S/F/4F/Xj0XvqX4v8AwL+vJNABGXovfUvxf+Bf149F76l+L/wL+vJNABGXovfUvxf+Bf149F76l+L/AMC/ryTQARl6L31L8X/gX9ePRe+pfi/8C/ryTQARl6L31L8X/gX9ePRe+pfi/wDAv68k0AEZei99S/F/4F/Xj0XvqX4v/Av68k0AEZei99S/F/4F/Xj0XvqX4v8AwL+vJNABGXovfUvxf+Bf149F76l+L/wL+vJNABGXovfUvxf+Bf149F76l+L/AMC/ryTQARl6L31L8X/gX9ePRe+pfi/8C/ryTQARl6L31L8X/gX9ePRe+pfi/wDAv68k0AEZei99S/F/4F/Xj0XvqX4v/Av68k0AEZei99S/F/4F/Xj0XvqX4v8AwL+vJNABGXovfUvxf+Bf149F76l+L/wL+vJNABGXovfUvxf+Bf149F76l+L/AMC/ryTQARl6L31L8X/gX9ePRe+pfi/8C/ryTQARl6L31L8X/gX9ePRe+pfi/wDAv68k0AEZei99S/F/4F/Xj0XvqX4v/Av68k0AEZei99S/F/4F/Xj0XvqX4v8AwL+vJNABGXovfUvxf+Bf149F76l+L/wL+vJNABGXovfUvxf+Bf149F76l+L/AMC/ryTQARl6L31L8X/gX9ePRe+pfi/8C/ryTQARl6L31L8X/gX9ePRe+pfi/wDAv68k0AEZei99S/F/4F/Xj0XvqX4v/Av68k0AEZei99S/F/4F/Xj0XvqX4v8AwL+vJNABBvSdx/dqmj5+n4/DXFcLsqh1Vzu0aUalJyi95OFspJdnkTMtofSpKjFxqJ8McXOdOPTVJx0VuLlCuMJOLdybW6fekS4ACMvRe+pfi/8AAv68ei99S/F/4F/XkmgAjL0XvqX4v/Av68ei99S/F/4F/XkmgAjL0XvqX4v/AAL+vHovfUvxf+Bf15JoAIy9F76l+L/wL+vHovfUvxf+Bf15JoAIy9F76l+L/wAC/rx6L31L8X/gX9eSaACMvRe+pfi/8C/rx6L31L8X/gX9eSaACKsvpkrprnbbw3xbVVVCVlllmjqFddcIuU5znLIUYQjFNtvsSTJA4e1SvOw8XNqU41ZmNRlVRsUVZGvIqjbBTUZOKmoyW6Ta337WY7pY9YNc+w+p/oV46J/WDQ/sPpn6FQAbMAAAAAAAAAAAAAAAAAAAAAAAAAAAAAAAAAAAAAAAAAAAAAAAAAAAAAAAAAAAAAAAAAAAAAAAAAAAAAAAAAAAAAAAAAAAAAAAAAAAAAAAAAAAARj0+/8ANf8A0w0T/wAUScRj0+/81/8ATDRP/FAEnAAAAAAAAAAAAAAAAAAAAAAAAAAAAAAAAAAAAAAAAAAAAAAAAAAAAAAAAAAAAAAAAAAAAAAAAAAAAAAAAAAAAAAAAAAAAAAAAAAAAAAAAAAAAAAAAAAAAAAAAAAAAAA1npY9YNc+w+p/oV46J/WDQ/sPpn6FQOlj1g1z7D6n+hXjon9YND+w+mfoVABswAAAAAAAAOAeV5tX8JH7pDx6v+Eh90hqL+6l0Z6geTx6r+Eh90h49V/CQ+7iNRXup9GeoHm+KFX8JD7pDx+r+Eh90hdDuZdGeoHk8eq/hIfdIeP1fwkPuolLjuZdGevYHk8fr/hIfdxPtVdGXqZJ+40/6ipR05Lij6HOx0lJLtfYfB5tf8JD7qIKKDfBHqB5PH6v4SH3aHj9X8JD7qJS5d3MujPWDyfFCn+Eh91EfFCn+Eh91EXHdT6M9YPL49X/AAkPu4n0rtUu5p+4VKOElyPuAdZMFhyDyPPq/hIfdIfFCr+Eh92ily/up9GeoHm8eq/hIfdROPHqv4SH3SGpDup9GevYHkjnV/wkPuon2hNPtT3+3uVKODXFH1B5pZta75w+3JHHj1X8JD7qIuV7qXRnqB5PHqv4SH3aHj9X8JD7qI1Fe6n0Z6weTx6r+Eh92h4/V/CQ+6iU1Dup9Ges5PhDIjLulF+40z7FSxpricnAZ555Va75w+6iAot8D0HB5fihV/CQ+7Q+KFX8JD7uIuX91Poz1g8vj1X8JD7qI8eq/hIfdRGod1Poz1A+FV8ZeplGXuNP+o5tujHvko+60v6wWaXe1j7A8nj9X8JD7qI8fq/hIfdRKXL+5n0Z6weX4oVfwkPukPihV/CQ+6RW6Kd1Poz1A8vj1X8JD7qIWbV/CQ+6RS47qXRnrATBUsAAAAAAAAAAAAAAAAAAAAAAAABGPT7/AM1/9MNE/wDFEnEY9Pv/ADX/ANMNE/8AFAEnAAAiTjnizXFrsdI0eGnet0c6c82OQ/8A9TZRKMZUS/m2k4/P9vcjnfjr6nPxmdttuO/+zn/mJKZFFXvuzOqVI01FKK4J7kWb8efU5+Mhvx59Tn4yJWA7vxZH6T/1XwIp/wA/Pqc/GQ/z8+pz8ZErAaPFlPSP+q+BFO/Hn1OfjIb8efU5+MiVwV0+JX0n/rH4EUf5+fU5+Mh/n59Tn4yJXOCnd+LKekf9V8CKf8/Pqc/GQ/z8+pz8ZErgro8WV9J/6x+BFH+fn1OfjIf5+fU5+MiVzgpo8WU9I/6r4EU/5+ebhz8ZD/PzzcOfjIlcDu/Eek/9V8CKNuPPqc/GQ248+pz8ZErnA7vxY9I/6r4EU/5+fU5+Mh/n59Tn4yJWORo8WPSP+sfgRNOXHUVv/m5+MjK9DPFOfqdOoLUY40cjB1HIwH4pGyNT8XjTzNddOUnvOc+3s7FHsT3N+mvSv3H/AFEXdAEe3iP/AEk1T/gjTpaV7kmtVKcm4pNW4EsAAlMIAAAAAA+M5bRb8yIjxukzWsq/Nr07h7xyrCzcnCld8U6KeazHnyt9XbWnHeMoPs3S5tt3syW7u5+4yLegGL34i/0l1P8A4JFO7sr2MvDaYwlKSUrW43/Q5fGfFnsU/HOH/cHx58V+xT8c4f8AcJV5EOVFND6su9Jh7Efn+5FXx6cWexT8c4X9wfHpxZ7FPxzhf3CVeVHHKNL6sp6VD2I/P9yK/jz4r9in45w/7g+PPiv2KfjnD/uErbI45UV0Pq/kPSYexH5/uRV8efFfsU/HOH/cHx58V+xT8c4f9wlXlRzyoaH1fyHpMPYj8/3Ip+PTiz2KfjnC/uD49OLPYp+OcL+4Sryo45Sndvqx6TD2I/P9yK/j14r9in45wv7g+PTiz2KfjnC/uErbHHKV0Pq/kPSYexH5/uRV8enFfsV/HOH/AHB8enFfsV/HOH/cJW2GxTQ+r+Q9Jh/6cfn+5FPx58V+xT8c4f8AcHx58V+xT8c4f9wlbZDlRXQ+r+Q9Jh7Efn+5FPx6cV+xX8c4f9wfHpxX7Ffxzh/3CVgU0Pq/kPSYf+nH5/uRT8enFT/5qfjnD/uHk1XpD4kxabsi/hbkoorndbN6viSUa64udkuWNbk9oxb2SbfkJfcTU+l31h1d/wD8bnfo1olBpcWX069OUlHQt3bn+5lOEdW8fwMPN5Oq8axaMjq+bn6vr6oWOvm5Vz8vNtvst9u5GaRqHQ8v+QdI+xuF+jVm3Iki3ZGJWSjNpcLncAFxGAAAAAAaf0pcVPRdLyNSVHjHi7oXU9Z1XP119dPq+SXLt1nN6l78u3ZvuatXxvxTJbrhPv8A/wCZxPL/AKh6PCc+ZnUP5WH+m45IuCl1cP5K/qIGnKTV2ktzOpuEKSk4qTbau78FboyM/j04r9in45w/7g+PPiv2KfjnD/uErcqOOVF2h9X8i30mHsR+f7kVfHnxX7FPxzh/3B8efFfsU/HOH/cJV5UOVDQ+r+Q9Jh7Efn+5FXx58V+xX8c4f9wfHnxX7Ffxzh/3CVthsU0P2n8h6TD2I/P9yKfjz4r9in45w/7g+PPiv2KfjnD/ALhKvKhyorofV/Iekw9iPz/cir48+K/Yp+OcP+4Pjz4r9in45w/7hKvKhyoaH1fyHpMPYj8/3Iq+PPiv2KfjnD/uD48+K/Yp+OcP+4StsjjlQ0Pq/kPSYexH5/uRV8efFfsU/HOH/cHx58V+xT8c4f8AcJV5Uc8qGh9X8h6TD2I/P9yKfj04r9iv45w/7g+PTiv2K/jnD/uErAaH1fyHpMP/AE4/P9yKfjz4r9in45w/7g+PPiv2KfjnD/uErbIbIaH1fyHpMPYj8/3Io+PTirf5k/tfFnC/uHGjdI2rfFXT9N1LQ1gfFDxjq7fihVk/K1ErpNRpr/kx9NKPq91vs0SrsRb0iL/OrhT/APrP6JApJOKTu2S0Zwqtx0JbN335K/UlcAExrjWelj1g1z7D6n+hXjon9YND+w+mfoVA6WPWDXPsPqf6FeOif1g0P7D6Z+hUAGzAAAAAA6o+Ge9q5/yX/Ueg8mqfuVn8iX9lhl9PeS8yhvE+TKedmS5peny8mXqn++um/wDeY/rpfPS+6Yvsc5Sk++UnJ+63uz501uUlGKcpNpRjFNttvZJJdrbZx86k3U4n09gcFhaeEjKcI7RXJdDv1svnpe+znrZfPS99k6dGPQQ7q4ZGqzsipJSji1y5JcrXYrprtT9qGzXZvLfdKZdH6NdGxUlVgY0XFLaUq4Ts7PPOacn75sqOAqzV5SscPmnbTLcPNwo0lNrnZWKTdbL56X3TOOtl89L7pl9Y8N4S7Fj1r3IRX+4fG7h/wFf3Mf8A7Ev8Ml7Zp/8Az3D/AP46+X7FCetl89L7pjrZfPS99lovCB1fB0vCdVNdfjeSpRp9JFuuMVtZb3dmyaUf40o9jXMVcka7FxdCVtV2d32bxdPNaTqyoqEb2Wy368jt1svnpe+ywPgetuWqSbb3jhpN7+Txh/8A1IgPTMK3Juqopg7LbpxqrjHvlOTSiva7X3+Qul0S8IV6Pp1ePFJ2yXWZFqW3WWyS5pdvbyrZJLzRiZeWxqSlqvsjnPtCxOEoYb0eEVrk09uSR5en1v439Q9un/6olMetl89L32foLkUwsi4WQjOEu+MkpRfbv2p9j7THLhrC3+Vqf9nD+6bHFYV1pJqVtjg+zvaOnltOUJ01Uu73ZQzrZfPS99nHWy+el77LhdL3Bun3aXlzeNUrKaLba7IwjGVc4QlKMotbNdqW632abT7ynZpcXSnh2vWvc9Y7MZthc3jJqkouPKyZ262Xz0vfZz1svnpe+zqWz6CuEcBaRiZPi1crrqo22TlBSnOU+3tlJOWy32S32RTB05YiTWqxL2mzLC5RSjN0lLU7WskVN62Xz0vfZbnwYt3oGNv2rnye/wCuLDffjbw/oer7iP8AdPZh4ldMeSqEa4LfaMEopb9r7Etjd4bCOjK+q55N2g7TUsxpKnCkqdne6PY0ap0sb/ETVPrDL97qLDa5HnyKYzjKE4qUZJxlFpNSTWzTT7GmvIZkldWOSoVNFRStwafwPz662Xz0vfY62Xz0vfZenM4O0yxctmFjST8jprl/XEgvp/6LMbColqOnVdVCtx8Yog31bi5KKshH/wBHKLcd0vS8u72Wz30eJwNSMXJO569knbDBV6saFSkot7X2av4kE9bL56XvsdbL56Xvs4JV6BejarWLLMvLjJ4ePPq1Um4q6aSlJSku3lgpR9Ts29lv2NPXUIVKslBPc7nOMRgcuwzr1IRtyslu3yIs62Xz0vfZbTwbXJ8PY/lXNlbb/XFpuml8GaZjxUaMOiqK7EoUwj76Ue1+2zN4uLCqKhXCMILfaMEopb9r2ilt3m/w2ElSd3K+x4v2g7TUcwgoU6ShZ3vsUW46tl8VdT3k/l/M37X9E2mE62Xz0vfZfe7h/DlJyljUuUm5Sk4Qbcm9222t22/KebUOFMC2twli0yi004yrhKLT7001syGpgJSk3qNtgu29ClShSlQT0pK+37FEXbL56XvsddL56Xvs2HpN0irA1bNxKY7V02RVcd3LljOFdmycm20udpbvyGubmiqTqQk4t8D17A0cLiaEKypq0oqXBcztG2Xz0vfY62Xz0vfZM/gt8NYmbfnW5NMLpY6x1V1kFJV8/XNyipbrmfKlvtutn52WLr4cwkklj1Jd+yhHbdvd/vfO2bTD4KVWmp6rXOAzztbhcDip4dUVJx57LlfoVs8FO2XxYt3be+DZvu9+zrqC1yMdgaVj0yc6qa4Sa5XKMIxk4vZtNpJ7bpdntIyTNxRpOnDTe55Xm+YRxtd1Yx0J8jpZ3MpN01Tkte1HZtfJl3N/wVZdtmHzeHcK2Up241M5S9VKVVcpSfttx3ZHiaDqRSTsZWQZvDLqzqTgppq1mUL62Xz0vfZx1svnpe+y2/SL0QaVmY9sqMevFyVFyhbRFVpyS7OeNaSsi9km36ZLuaKmZuNOi22uyLVlU51Ti++MoScJJ+2pJo0WLo1MO1d3TPZ+zec4HNotRpqMo/2tL5Hz66Xz0vfZz1svnpe+zO9H3DNmr6hRhQTSm3O2aW/V1R7ZNJ/vu6P8qUS3HC3Rpo+n1wjVh1OaSUrLIKyyT8rlOacu19uy2XmSJMJhqldXvZGL2k7RYHK5qkqanNq9klt5sg3wTpN6tlbtv/I5d73/APS1Gb8MOySt0nZtelze57eXEJ+w9Loplz1VVwlty80YqMuV7NrdLfbsXZ7SO2fptF/L11NdvLvy88FPl32325k9t9l7yNysO1SdO/vPKZ57CWYrGd2rL+zlwsUA62Xz0vfY62Xz0vfZfWPDWEu7GqX+pD/7ECeFNw1i41eLl00wrssvdU5QSjzRddklzqKSk04Ltfb27GsxGBlTpuWq9jv8m7X4bGYqFB0VHVtfZ/oQN1svnpe+x1svnpe+zozLcIYUMnUcHHkt4XZVFU4928ZWRjNb+TeLa+2aqEpyaSZ6JjaOFw9GVV042im+CMZ1svnpe+x1svnpe+y9encLYNdUIRx6oxjFJRjXFRWy2SSUT1/G9heXGqfu1x/um9hl8uOs8kxXbmhOLgqC325fsezSf3Ov+RH+yj2HWC2OzNseaVJXlc5AALQAAAAAAAAAAAAAAAAAAAAARj0+/wDNf/TDRP8AxRJxGPT7/wA1/wDTDRP/ABQBJwAAInXzd/8AZz/zIlcihfN3/wBnP/MiVmRw5+Zl4r+38qOwB1s7iQxDCWcR6fBOUs/DjGN0sdylk0qKyI7c9Dbnsrlut4d63XYerP1THx4RsvyKaa5yjCM7bYVwlOfqIxnNpSk9nsl37EE9DvBuj5/xzZOpYuPlTXEOs1b5Xp4UUKVUpOuM3y0zb5m7IqMtoRW+0Uaxn9ZdwJo1dtlsqlrdGPj2t8tssOGfkVUSjLbsarW0X5oxMxYSLdrvilv4rkQKs0t0Wex9UxZ9aq8imbx5ct6hbCTokk3y3KL+RPZN7S28o0nV8XLi54uTRkxi+WUqLq7oqXmbrk0n2PsIa6eNEp0rRsLH03ExMbFy9Y02rUd06ab8eTm38UMiuMrZUytjTGdkueW036rfY9nAXA2qYetw1KOHoem4rwbcTIxtKtv6vIk5q2iydDw6q+eM1tzp83K2u3uLO5jo1X6/Ir3jvaxLOs6hTi02X32QqqqW8p2SjCK3ajFc02lu5OKS37XJLykNcBcb6zqOnWaytV0lydGRbHRZ1V0LG5bp00PJz5ZXWQh2QblKCT51t3rfc1g6xkYeoU8QVaLfjyx96q8OvJsjKyClPe6GYnFqMo1yjt2qUd/IiJODtJxa+jbKyq8aiGVfgahG7IjTXG+2MM3JUYzujHnnFKMUlJvbZeYko0o923zckvc7ltSb1JciTOLeMs/HyuFKoyoitWv6vOVaVtUv8mha1j27v0nO5bSTe6a7+8zeh9JOkZmfladTl1eMYksaG8raVXkzyoSnCGJNTbyJLl2korscorykZ8RfunRz7tX/AHdUezos4Y09cV8Wf5DhrxOzRZ4a8VpXis7MKyyc8ZcnyCUpKMm4bbtJl8qFPRd8Ur+/Vb6BVHqsTJlaxiVXQx7Mqiu+3bq6J3Vxus3ey5K5S5pbvs7Ec5mpY9M6qrr6arL+fqa52whO3q0nPqoSac+VNN7b7borNw7wrqGu4+tb4OhXZ9uoZ9N+dn3ZMNTwb1LlpVXLhzdFdUY1uEYySaj3drNq6TtDnfqfAmBqkuvtlXn050qrLFC+2vBxvGNp7RnKmycZJppc0ZtPbcs9FjrUW+Te3grle9fQk3i7izlpxatLtx8nM1PIeJhTU43Y9coRnPKybHW2pQoprsk4p9slCPZzGwarrGJiKMsvKx8ZTbUHfdXSptbbqLskuZ9q7vOiO9Q0qjC4l4coxsenFw4YGtLHpoqhTTG+Tw528sK0oqUoc0u7d7SfnPH0pcLZ0NVevY+JhaxRDT1i36Zm7K2FdVk7pTwJ2QlXG2SezjJdu3l3SUfcxbSvxV/fd7B1Jb7G7cXcSTwJadlfIrNMyL4YuVbHeU6pZkqq9PyYTi+R43XPq5/XNck9otPbUQ1x9rOJqPAl2Xg0vHxr8CiOJjqEa3RON9VFFFcIeli4XRhCPL2elW3kJew+bq4c/q+WPN/K2W/d7ZFOFop87tF0XdvoekAEZKfG/wBS/cZGHg/9/EX+kmqf8Ak+/wBS/cZDnQ9pt2TLWeqzLsTqOMc7Js6pRfjNNXVc+HZzd1Nm63a7fSojn95GTT/Dl7iaQax8bOR9Ns/14+KfqofK/wBKfU/KHtd/tnHxq2/TXUvXj4q/u0f3L6Vep9bf4nf7ZIYxtANX+NKf011X14+K3y0vUfSv1HrV/wBD/Sc/Gh//ACmsevHxX+XfxX+5+s//AFf/AOIA2cGr/GfD6Yar68fFj5cfq/pf6j1q/wCr/wBI+M6r6M1L14+LPy3L91+g/U+tv/Qd3tgGK0XpQ0bMzMrTVlRx87FysjElj5O1Ltsx7p0uVE2+S1SlBtRT5tu+KML4P3fxH/pLqn9dJGGR0Bahqut6tm5lscHT7dUzrq36W3KyKp5Nk4yrgny1QafZKb37nytEh+DPgwxaNcxoSsnXj6/nUQlbLnslGqGPCMpy2XNNqKbey7dyOf3kZNL8KXuJjABIYxhcviHAp67rs3Fq8WcFkdZkVQ6h2pyh13NJdU5JNrm232ex9tU1rExFF5WVj4ym9ou++ulSfmi7JLmfuEMcKcJ6dqXF/Fs8/FqzFjy0lV05EVbQndgSUrJUTThOxKG0ZtNxU57bczPZwTomFquvcUWavj42bk4uXjYlFGZVXkQxsBUKzGdVNyca42Pmm5Jdri3v3mVLDxV93sk/jb9yBVZPkS9l6lRVS8i2+quhKMnfOyEKVGbSjJ2Saik3KKT37eZHGTqOPVGqdl9NcLpwrplO2EI3WWLeuuuUntZOSTaUd29uwrdmdnCXGeHRKU9PwtXyKMDtcoVUV341llFLffRXY57bb+qZtXTNqNDxeDKVbW7LOINEvqgpJynTXCcJWRS74J3QW/d6dFXheFnfe3yuO+2exImZ0k6PTqj0m3LqryY40smdk7aYY9ajd1LpnbKxcuTzdvV7b7dpsepavi4vJ4zk4+P1j5YdfdXVzyXkh1klzPtXYvOQzqXDmn3cfRrvwcO2q/hzxiULcaicLcv4pSjK+UZwasv6tJc73lsu/YwuZpObqnEvENdmn6NqFmO8OqirWLb4vHw5UNwnhwhjWqMJycpSsjs1JrtLlh4yWzskru/nbYt72SvdFjk/MRj0x8dy0+/TdNxczDw8nUMjq7snJ5LVhYsa5TldKiVkFvKXLGLm1Hsl3+T5cIaDxPpmiabgUXaRdl4qyK8izLnm21dR1kpYcKJ1Vwk5QqkoPmiuyEdt+1mt9MGjV3a5wb4/i4VuTkW5FWoONKnTe68auUq/k0XOePG2c3BWb7KXnbLMPSj3lm7qz+SdisqktOy3N64X1XUoZuJhZGZp2o0WadLLlnUuvGyr7Z3z6p1YMLpp4vUcnyWO6bi/PssFw30oRow+Ic7WLYKnS+INR03HjXCEbJ4+O6epqjCUl11+05t9u7UW/IeKeNXRx5h1U1wrqq4WlXXXXCMK64Qz5RhCEIpKEEkkkuxJGi5mFVdw1x47Kq7JU8T61dU5wjOVU4vGi7INreE+SU1zLZ7SkvKy+NGMmk+Dt82WOcl7ixHDnEmHqGNHLxb6rKnCE5uNtc3TzQU+S7q5NV2KMu2LfYenS9XxcuMpYuRRkxi+WUqLq7oxl5pOuTSfZ3EGdKuFDB4X0irAxsSjHzc/SI6mlDxbGuotrTm86zHhzKmdsKIzs2k9nts99jOcBcCanh63XqXieh6bhvBtxMnG0my/lyOaauoslTLEqr6yM1tz778ra7e4tlh42bvbd29xeqsrrYlCPEeA9ts7Ee+R4pHbIp9NlbxXiy9P25G84rq/Vemj2dqMfwvr1ufm6h1cYLT8G3xGFvfbkZtXbmSXbtGipuFS7N3ON3kSIt6AeEtPyLNcz8jFqyMqniXUlRZdFW+Luq2q2FmNGaapu53FuyO0nyQTe0UjZehbCldwzPGnbKnItv1ui+2P7pTfPUs6E7O/snHmUlv5kUqUYxuk72aXxL1UbttxN/w9fwbbnj1ZmLZkJyUqIZFU7k4b8ydcZcya2e/Z5GYrg/X7ci7PwMuMIZ2nWwjY691XkYuQnZh5cIttwU4RlGUd3tOmxd2xGnRtiS4fztL0fU9J01WWq/H03W9PhWp2zrplKcMmucFfVdOrfmmm4ylL3WtuwuZ8a5bh+5x4dw45G3d1stQy5UKf8fq1bt7TLZ0lFvmrXTKKTdnzuSSjUul/1i1f7G536NYbcal0v+sWr/Y3O/RrTFlwfkZdD768x0Q+sWkfY3B/RqjbCNujnJ1SOk6dHGxcazHXDWNbRZZfKFlmqKmtVYs4JelxnDlbs702zYlma39BYfrP13yzL16+gu75T/6XvEeCFd+u/Nm0g1fx3W/oLD9Z+u+WJevf0F3fKf8A0vePHdb+gsP1n675Yl69/QXd8p/9L3lxEbQDV/Hdb+gsP1n675Yl69/QXd8p/wDS948d1v6Cw/WfrvliXr39Bd3yn/0veAbQfKySXa2kt0t29u1tJL3W2l9s1zx3W/oLD9Z+u+WJevf0F3fKf/S95HnhE5mqvhzOWRjY9ND07S7r7ar3K2rVfitg9ZjVx29NjxhzNWd+6QBmvCe+ZrP/AJWH+m4xI2n/ALnX/JX9RTCHEnFOVw9mV5VduVov+Srx3Mi1ZXy5VDqWNkTankp2KMWn1myb7Y7F0NP/AHOH8mP9RFFeu/IzKn/Hj5v6I9QAJTDMTk6xiVTnXblY9dldXjFkJ3VwnCjmUeunCT3jVzbLnfZu9tz76bqFORWrce6q+qXqbKZxsrfn2nBtMhbiDh3C1Lj51Z9UMimrh2u+NFjbpstjqTUFdXvy5EEnJ9XNSjvGL29KjG4kZaVlceU6LFU42Lp9GRTVjrarFz5YN0rfF4w7I2bRjNxXdKMVt2JGWsNFri72T34b2IO9afDYnOOu4TveKsvGeSux46vqdya89fNz/wBB9tU1PGxYdZk5FGPW3y899sKYbtNpc1jS32T7PaID1/hPRKuB4ajCjGhl16ZjZlWqRhXHOee1C6M/Go/JesllSaa5u+W3kNi4y4V1PUVoOsV04WdlYOD/AJTpeo7xotsyaKndZTLZwqylJSSc48vYu7Yp6PHrZXa36r9x3rtw3N94w470zS9Oep35EbMVbdW8edds731iraoXOlc4ttvZ9ijJvuMvoOs42dSsjEuqvreycqrIWck3GM3XJ1yajYoyjut+zdEG9Jebp+q8C52Rj6ZVgvCtlBYjpo3wcuvPgszqJVR5FzOdrc4bcytlv3tEi06Rn4mBiQ4bx9FxVZGNuVDJquqqnOVNajbCOClzWvl2lKXa1GPmKToxULu6ldrw2sIzbl4Hh6YuO5addpunYuXiYmVqGUqrcnJ5LVhYsYSlK+VErIJuUkoxc2o+q+17+GNV1KGbiYWRm6bqNNuBLKlnUuvGyb7JXWdU6cGF9ieN1Sgutjum4v7Wj9MekV3azwd4/i4VuTkX2057hTGdN7hjwlKv5NFzsxo2ym4xs32U35WzJXY9dPHen001wqqq4athXVXGMK64RzJKMIQilGMEkkkuxbE3cx0RtzTb9zZbrlqZ6eF+lFU4nEObrFsFRpev6hp2Mq4Vwtnj47r6mmMHJddftKb792ot+QkHhziTD1DGhl4uRVZU64WT2trlKnmrU+S7q5tV2KL7U32bMr1fg1XcO8fOyqu2VPE2tX1OcIzdVkXRHrIOSfV2KEprmWz2nLzsznSjhQweFtIrwMbEox83O0eOqbR8Wx7qLa07Hl240OZVTthRGdm0nyya7d9g8PCUVa6bdvC1kxGpJXvukTtperYuXGUsXJoyYxfLKVF1d0Yy80nXJpPsfZ7R8fjiwOz/AC3E7cjxRf5RT25W8V4svTduRvOC6v1Xp49naiK+AuA9SxNap1LxTQ9Mw3hXYuVj6TbkbZHM1bRZKmWHVU7I2Jen335W129xj+gPhPT8m7X8/IxqsjKp4m1ONE74q1YzpsquhZjRmmqbudxbsjtJ9XBb7RSIXRiru/CxcqrdtuJJvDHEF2fnZ6rjBafg2+JQt7XbkZ1e0strt2jRVzQq7t3NXeSKMvia/g23PGqzMWzIi5J0QyKp3Jx7ZJ1RlzJpJ79nZszQehbEldw1bjytlTkTytcoyLY/ulN89Szoys7+ycVKMu3zI1ro2xJcPZuk6Rqelab1lnXY+m61gQrU7ZwonKayq5wV1V86t1KabjKUvNu0dFNys91y624suU2km+DJP4Q4gtyL8/Ay4whm6dbBTde6ryMXIUrMTKhFtuHNCM4Sju9p02bdmxtRG2Lu+Nclw9RHh3Fjkbd3Wy1HJeOp/wAfkV23tMkiLIKiSasuRdCTdzsRT0j/ADVcKf8A9Z/RIErMinpH+arhT/8ArP6JWY9bgvNfUz8F99/ll9GSuACYwzWelj1g1z7D6n+hXjon9YND+w+mfoVA6WPWDXPsPqf6FeOif1g0P7D6Z+hUAGzAAAAAA6yMZxFb1eNfP52qb96Lf+4yZrPSdf1ek59nzmJkT+5pm/8AcWSdkyfCR1VYrq19SixNfgw8ERyr7NTvhvXjSUaFJdkrtt52bNdqhGSSfz0peWBChd7ol0FabpOHj7bSjTGVnZtvbP09jf8Aryl/QaHAUFOq5Pgj2ftrm0sLl0KEHaU0l7ktzcYxOwB0J4idGYniXVacLHuysiarqprlOUn5IxW72XfKT7tl29qS7zKWFXfCa478av8AiVRP5DjyTyXCXZbau2NW674w75Lt9M0tk4GNia6pQcn/AKzc5FlFTMcVGjHhxb6LmRjx9xPbq2oX5t28VN8tNbe6qog5ckF7e0m212OU5Ps32MEcm29E/Bs9a1CvHaax4bWZU1+9rTS6uL8kpvs9r0z/AHrOYSlXqW4tn0ROph8mwXsxhH/feyVvBf4Ba31jJh6pcmFGSe6g94zv2fln2qL+dTfdJFiKzzaVhwx6oVVxUIVxjCMYraMVFJJRXkWyS+0evc6nD0o0oKKPnPOMzqY/EzrT5vZdFyR9AATmqNX6UPWjUPrW/wDNTKLF6elD1oz/AK1v/MzKLGgzjjH3nsP2X8KvmgXX6CvWHTvrar+wilBdfoL9YdO+tqv7ES3J/vy8jL+1D8Cn+b9Gb0ADoTxMAAA6msdJuKrtKzqpLdTxr4+/XLZ+6n2/aNnRh+L3/kWR/Nz/ALMiye8WZGCbVaDXtL6lB2W98GalLQMOSXbKeVKXt/5Tal/8Kj7xUJlw/Bo+Z7D/AJWV+l3Giyv8aXl+p6/9oMmsuo+a+jJPAB0B4wD52dz9w+h87O5/bBWJSXpsf/L+o/zkPzFRphuPTZ6/6l/OQ/MVGnHHYz8aXmfUnZz+nUvyL6FgfA79XqvuYv8AxyxxXHwO/V6p/wC6/wDHLHHSYL8CP+8zwHtj/VKvmvodgAZpzAAAB8L47xfuFJemzGVWvalCK2TuhL7dlNU5P7cpN/bLuvuKXeED80Opfy6P0THNXmi/lJ+J6D9nM2swcf8Aq/qjbfBJx4vUMy399CiFaf8AFsscpf01R94tMisPgi/Lmf8AzeP/AGrizyJMu/CRre3DvmlT3fQ7AA2ByBwQP4X3yhhfXcfzFxPBA/hgfKGJ9eR/MXmLjPwZeR0HZf8AqVL8xWYz/Rx68aZ9fY352BgDP9HHrxpn19jfnYHL4b8WPmfQ+ff0+p+R/QvbR6le4v6j7M+ON6mPuL+o+zOyPlqfEAAFoAAAAAAAAAAAAAAAAAAAAAAAAIx6ff8Amv8A6YaJ/wCKJOIx6ff+a/8Aphon/igCTgAARPt/n3/2b/8AMiVCGda1jGwON+uzMinHqfDyrVl9tdNbk9RlJRU7JJOTjGT280X5jeo9I+gv/wDd9N+/sb4QhhJK6b5mbiKM5KLSdtK4G3HEkar6I+g/TfTfv3G+EOPRH0L6b6b9+43whJrXVGP3M/ZZHnR/0Q0z+Lc9aw7IWZmu6jkUuvNuqWTp1zhKlXrCyFGylydz6u3tXNLsXN2yXqvBmmZeJj4F2LF4mLZRbj0VysohVPG7aOXqJRe0fNvs/Lueb0R9B+m+m/f2N/fOX0j6D9N9O+/cb4QvniZSkrssWGkl91ma1rTMfMosxcqqF9F0XC2qyKlCcX5JJ+3s0+9NJruMDw70d6VgX15GNVkKylSVHW6hqGTXSpwlXJVU5OROutck5Lsj3M+i6RdC+m+nffuN8IH0j6F9N9O+/cb++W961dX2LvR53vpd/I2XIpjZCUJLeM4yjJdq3jJNNbrtXYzXMTgfS6tLeiV4vLpjhbU8brsh/I7rJW2R652dd2znJ78+637Ow6+iPoX020779xvhB6I+hfTfTvv3G+EKKo0tntcPDzfGLPRkcHadY9Nc8fd6Q09O+S3LxflrjSu6z5L8jjFfJOb3z5Z3A+mXahDVJ0SWdHqt7q8jJpVqoalSr6qbI15Kg1FrrIy25V5j5+iPoP020779xv749EjQfpvpv37jfCF3fW5lPRp+yzz6z0aaPmZc863FnXl2JRtvxcvMwp3RS5UrvE7q1b2JLeW72SRkLOC9NlZpdrxvT6NGcNNfW3LxeE6o0SWyntd6SEF8k5u7fvPP6I2g/TfTfv3G+EOfRH0L6b6b9+43wgdZu138yvo8vZZ9eOuHp51ePZj2Roz8DIjl4V8o80I3KE6p1XJemePdTZZVNR7dp7rtijy8R9HOk6hkTy8mm532VxqtnTm5uMrq4JqNdsMe+ELIJN9jXlZ9F0j6D9NtO+/cb4QeiNoP030379xvhB3zjazsHh5vjFnTWuDq7viXi1qqjScCxXzw64JddbjOt6fVttyrGhZz2yXe5VU+TmNwNS9EXQ/pvpv37jfCD0SNC+m+m/fuN8IWyqakrsqsPNcIs20Gp+iPoP030779x/hB6I+g/TfTvv3H+EKa11RTuZ9GbTb3P3GRd0Ad/EX+kmqf8A2O7pG0LZ/8raa+z6NxvhDU/B0yIWw1+yuUbKrOIdRsrnCSlCcJ9RKLjKLanFxaaa7Gmi1tNqxkU6co0pOStwJfABKYYAAAAAB87vUv3CK/B/7+Iv8ASTVP+ASpf6l+4RP0CWxT4h3kl/nJqne9vLSRS+8veZdFXpS9xLYPP43X8/H7pHHjdfz8fukS3Mbu5dGYzSuGcLFy87Poq5MrUXjvNt6yyXXPErlVR6Sc3CvlhKS9Io779u5i+KOj3SdRyFl5OPNZXV9U8jHycrDunV/BWWYlsHbX/FlubM8yv5+H3SCzK/n4/dIrGpJO6e5R0W1azMPhcJ6dTgPSqsOmGnyrnVLGUfkcoWb9Ypb9spSbbcm923vvua7p3RDw/jqlV6f242TjZdE55OZZbXdhubxtrJ3Obpr55bVNuD37Yt9pvfjdfz8PukPG6/n4/dIKtJJpN7+JR0G7bcPA17izgfTNUspuzMeU7qIzhVdVkZOLcq7PV1u3FshKdUu3eEm12vs7TpxPwJpmpXV5OVjz8aqg6oZGPk5OHkKtvd1u7EshOde+75ZNrtZsfjlfz8fukc+N1/Px+6RRVWrWZV0W+KPFw7omNp+PHGxIShTGU5JTtuvm5WSc5ylbfOVk5OTb3lJ9559c4Yws3IwcvJp6zI0+yduHZ1lsOpstjGM3y1zUbN1Fdk1JdhlvG6/n4fdI6rLr+eh90gpu909x3Ttaxi58NYUtRhqrp3z68V4Ub+st7MaVjtdfVc/Vv5I2+Zx5u3v2PhgcG6bRTqGPXix6jVMjJy8+qc7bYZF+WlHInJWzlyKaS9LHaK27EjO+OV/Px+6iceO1/Px+6Q719R3L6M1vROAtKw8K3TacXmwb01bjZF1+XW4tJKEfGrJuutbJqMWkn2rt7T48PdHWlYF9WRjU5CspUlR12fqGTXSpwlXJU05OROutck5Lsj3SZtXjtfz8PukceN1/Px+6QdV9eI7l7bcDG8M8NYWmxyIYVPUxysu7NvXWW2c+TkcvW2b2zk4b8kfSx2ituxIxGJwfGF+q1yddmlavGyzIw5KanDKvgqMt1zi/3C+vaUl2OM1Jr1b5dq8br+ej90jjxqv5+P3SCqNXu92V7l9Gapw50b6Rp+TDLxsafjFcZwpsyMvMy3jwsShNY6y7ZqjmiuVuKTa7N9uw93BvDs8SeblZNkLs7UMhW5FlcXGuFVS6rFxalLt6qqns3fbKU7ZdnNss745X8/H7pHPjlfz8fukHVcuLvyKKi1wR6NzUul/1i1f7G536NabL43X8/H7pGqdLuTX8Q9X9NH1uzfKvoa0sk9n5E9CEta2fE+vQ/wCsOk/Y3C/RqjbjUuiD1i0j7G4X6NUbaVjwXkiyv99+Z2ABcRAAAA8Op6dRlVSoyaa76ZShKVV0I2Vyddkba3KEk1LacIy7fLFHuABFnhNxS4Yz0kklLDSSWyW2bjJJJdyJJ0/9yr/kR/qRHPhP/M1n/wArD/Tcc3/AyYdXX6ePqI/vl5kRJ+szNlFvDxt1f6GQB5vG6/n4/dIeN1/Pr34ktzE7uXRkU8Q9HU9R4uln5eLKemLQ449eTDJdFtefHN51Gt49scmufUTn6dbR2nJb9uxv3CvC2BpdE8fBx4012TlbbvKy2y62SSnZdbdKVl02ku2TZl/G6/n4/dI5eVX8/D7pF068pWTeyt8ixUGm3Z3Zo9HRFoFdsbYYCSjd4xDHeRlSwo37p9ZHBla8ZS7F+827O4ynFXAWmapbC/Mpud1dTojbRmZmJPqW5SlVJ4t0OeDcpdkt+82Txuv+Ej76Hjlfz8PukW9+203LdF3c7fd+RhsPhDTatPelV4lUdPlXKqWNytwnGzd2c7k3KU5NtuTfNu999+078J8M4elUPGwoWwpdnPy25OTktPkrrUYzyrJyhWoVQioJqK5e7dtvLeN1/PR+6Q8br+fj90ijqtp3YVFrkYrWuGMLNyMLKyaetv06yd2HZ1lkOpsmoxm+WuajZuox7JqS7DmzhvClqFeqyp3z68aWJC/rLVy405uyVfVKfVP07b5nHf2zK+M1/Px99Hzryq32qcGt3HdST9NGTjJbryqSaa8jTKKctrPZbFe7fQw+FwdptFOfRXix6nVMjJys6uc7LYZN+YlHIlJWzlyKaSXLHaK8iR5dE4A0nDwbtNqxebBvTjZj5F9+XW4NbKuCyrJuutd6jHZJ9q7e02bxuv5+PvxOPHK/n4/dIu75pWTKdy+jNT4f6OdJ0++q/GpyFZRzKhW5+fk1UKdcqpKmjIyJV1/I5zj2R7FJmZ4Y4ZwtNWTHCp6lZmXdn5C6y2zrMrI5VdZ8lnLk5uSPpY7RW3YkZLxyv5+P3UTnxuv5+PvoOo3xd7hUWuTNWxeEFXkapW3XZperQnZk4cudThlXVxoyZVyi/wBwvqW8lumpxbW/O9unDfRto+n5MMvGxZ+MVRnCiy/LzMt0RsShNY6yrpqjeK5W4pNrs327DbPHK/n4/dIeOV/Px+6QVWW9nsyncvozA8IcPzxbM7LybIXZ2oXqy+yuLjXCmlOrDxak+3q6qvK+2U52y/fbLZkefxuv5+P3SOrza/n4fdIpKWplypyS2TPURT0jfNXwp/8A1j9EgScsuHz0fukRf0g3qXFXCuzT2+LHc/8AqkCOpwRmYOElN7f2v6MlpAIEpgms9LHrBrn2H1P9CvHRP6waH9h9M/QqB0sesGufYfU/0K8dE/rBof2H0z9CoANmAAAAAB8vN9s1Hpk3+IWqbLffCyVt596Zrs+20bidLI7lsldWJaFXuqkZ2vpadvIofwXpVl2o4FTqnyzy8aEt4PZRldBSb3W23LuXsxK9oQXmikdI4dSe6hFP+SkehEGGwyop73ubvPs/nmkoSlHToVrcTtscM7NmN1rUa8Wm2+2ca66q522Tk9owhCLlJv2kk2ZN7GhhFydlxZovTtxxHR9Pl1cl45k81eNF7NqW3p7HF98IRe/ds24p+q3KeW2SnKU5ylOUpOUpSblKUpPeUpSfa5Ntvdmy9J/Flus59uXPmjUvkePW/wD0VUW+XdfPybc5d/bLbuSNZOXzDE97PSuCPoLsXkKy/CqpUXrz3b6LodsaidtkKqoSnZZKNdcIreU5zajFRXlk5NL7ZcroU4Jhoun11ySeTbtbkzXbzWySW0X/AAcF6Ve432bsijwXuBOtm9VyYekg5RxISXZKa3U7+3yR7YRf8p9j2LNGyyzCaI65cWcH2+7R+lVvRqT9SHF9X/g7AA2x5uAAAax0oetGofWmR+ZkUUZevpQ9aNQ+tMj8zIoozRZxxj7z2H7LuFXzRyXV6CvWHTvrar+xEpUXV6CvWHTvrar+xEjyj78vIyvtP/Ap/m/Rm+AA6E8UAAAOrMRxf8p3/wA1P+yzLsxHF/ynf/NT/sssnwZPhPxo+a+pQcuH4M/zO4X8rK/S7inhcPwZ/mdwv5WV+l3Gjyv8aR699oP9Noea+hJwAN+eNA+Vnc/tn1PlZ3P7YKxKSdNnr/qX85D8xUaabl02ev8AqX85D8xUaacfjPxpeZ9R9m/6dS/IiwXgeer1P/3X/jljiuPgeer1P/3X/jljjpMF+BH/AHmeB9sv6pV819EdgAZhy4AAB0mUt6fvmi1P+VR+i0F0plLOn/5otT/lUfolBrc0/B956B9nP9Sf5H9Ubt4Iny5n/wA3j/2riz6KweCJ8uZ/83j/ANq4s9Evy78Be81vbf8AqlT3HYAGecicED+GB8oYn15H8xeTwQP4YHyhifXkfzF5i4z8GXkdB2W/qVL8xWcz3Rx68aZ9fY356BgTO9HHrxpn19jfnoHK4b8VeZ9D57/T6v5H9C91HqV7i/qPqj5UepXuL+o+qO0PlqfE5AALQAAAAAAAAAAAAAAAAAAAAAAAARj0+/8ANf8A0w0T/wAUScRj0+/81/8ATDRP/FAEnAAA1vXeE9NzrFbmYOJk2qCrVl+NTdYoJykoKc4NqCcpPbu3k/OeP0O9B+k+nfeWP8GbaojlLNMeLReq1RWSk7GqehxoX0o037yxvgx6HGhfSjTfvLG+DNt2Gw0R6Iu76fVmp+hzoP0o037yxvgx6HGhfSjTfvLG+DNsBXSug76p1fxNR9DnQfpRp33lj/Bj0OdB+lGnfeWP8GbaBpXQr30+r+JqfocaD9KNO+8sf4MehxoP0o077yx/gzbAU0roh30+r+JqfocaF9KNN+8sb4MehxoX0o037yxvgzbdhsNC6Ip39T2mal6HGhfSjTfvLG+DHocaF9KNN+8sb4M2wDSuiHfT6s1T0ONB+lGm/eWN8GPQ40H6Uab95Y3wZtYK6V0Q76p1fxNU9DjQfpRpv3ljfBj0ONC+lGm/eWN8GbYBpXQd/U6v4mo+hxoX0o077yx/gx6HGhfSjTvvLH+DNtBTQug76fVmo+hxoL//AGjTfvHG/uGZ0TRMTBg6sPGpxa5Sc5V49NdMJT2jFzcaopObjGK379orzGUQaKpJcEUlWnJWbbO4ALiMAAAAAA+Mo+0R3qXQxw9k3XZFuDKVt9tl1svGsyKlZbOU5y5Y3JR3k29kklv2EkM6otcU+RfTqzpt6W1foRn6BHDX0BL78zfhx6BHDX0BL78zfhyTgU0LoTemVvaZGPoEcNfQEvvzN+HHoEcNfQEvvzN+HJPA7tdCnplX2mRh6BHDX0BL78zfhx6BHDX0BL78zfhyTgU7uPQel1vafxIx9Ajhr6Al9+Zvw49Ajhr6Al9+Zvw5JwHdx6D0ut7T+JGPoEcNfQEvvzN+HHoEcNfQEvvzN+HJO3G5Tu49B6XV9pkY+gRw19AS+/M34cegRw19AS+/M34ck4Fe7j0Hpdb2n8SMfQI4a+gJffmb8OPQI4a+gJffmb8OSduNyndx6D0yr7TIx9Ajhr6Al9+Zvw49Ajhr6Al9+Zvw5JwK93HoPS63tP4kY+gRw19AS+/M34cegRw19AS+/M34ck7cblO7j0K+mVvaZGPoEcNfQEvvzN+HHoEcNfQEvvzN+HJOBXu49Cnpdb2n8TG6LplWJRTjURcKaKq6a4c0pctdSUIR5ptyltGKW7bb8pkOY5QSL+Gxjttttvc7gAqAAAAAADB8U8P4up4tuFm1ddjWuHWV8863JwnGyHp6pKS2nCL7Gu7zGkvoJ4a+gJe743m/DEn7HKLHFPirksK84K0W0iMfQK4b+gJffmb8OcegTw39AS+/M34ck/YbFvdx6EnplbqyMfQI4a+gJffmb8OPQI4a+gJffmb8OScCvdx6FPS63tP4kY+gTw19AS++834cegTw19AS++834ck4FNEOhX0ut7T+JGPoEcNfQEvvzN+HHoEcNfQEvvzN+HJO3G47uPQp6ZV9pkE9J3Rrwtoul5eoTwG5VVuNFcsvN+S5M/SUV7dfu1ztN7d0YyfkIm8GrSNE1TLyNN1XG6zIsh1+Fb4xfU5ci+T4/LVZGMny/JF2b7Qs7e4t1ruh4efXGnOxcfLqjNWRryaoXQViUoqahYmlJRlJb/xmat0ecE6djdbd8b2FpmRVnZLx570Zt8qt11eVVkbOeLCab2oTXIuzZbldEbcCqxdV8W/O+5j/AECOGvoCX35m/Dj0COGvoCX35m/DknAd3HoU9Lre0/iRj6BHDX0BL78zfhx6BHDX0BL78zfhyTgO7j0Hpdb2n8SMfQI4a+gJffmb8OPQI4a+gJffmb8OSduNyndx6FfTK3tMjH0COGvoCX35m/Dj0COGvoCX35m/DknAr3cehT0ut7T+JGC6CuGfoCX33m/DHu4b6JtC03KqzcTDlXk0OfVT8YyrOXnhKEvS2WSi94Tmu1Pv85IGwZVQinexR4uq01qdn4ncAF5Aaz0sesGufYfU/wBCvHRP6waH9h9M/QqB0sesGufYfU/0K8dE/rBof2H0z9CoANmAAAAAAAAAAAB85ecrZ4T/AB5zzWkY0+yPLZmTi12v1VdH2vS2S/1Fv6pErdMnG0NG0+21bPJs3rx62/V2ST2bXziXa/c233aKZ5d87rbLbZynZZOVk5Se7lZJuU5yflk5Nv7ZqcyxeiOiPFno3YPs56XW9Jqr1IPZdX/g+SNk6N+E7dXz6cOHMoP0900t+rojtzS/lttKP8aS8m7Ndrg5NRinKUmlGMU2229kkl2ttlwegTgRaPgKVsV45k8tl8u9x7HyVJ/OwjJr25OT8prcvw3ezu+CPQO2Wexy3CunB+vPaK6ePuN50DTKsSmrHphGEKoQrjGPqYxglGMV9pd77TKA42OoSsj56nNzbk3dvc7gHG4KHIAANY6UfWjUPrXI/MyKKF6+lD1oz/rS/wDNSKKGizj+09h+y/hV80cl1egr1h0762q/sRKVF1egr1h0762q/sRI8o+/LyMr7T/wKf5v0ZvgAOhPFAAADqzEcX/Kd/8ANT/ssy7MRxf8p3/zU/7LLJ8GT4T8aPmvqUHLh+DP8zuF/Kyv0u4p4XD8Gj5ncL+Vlfpdxo8r/GkevfaD/TaHmv8A+STgAb88aB0n3P3GdzpPufuMFYlIumz1/wBS/nIfmKjTjcemz1/1L+ch+YqNOOPxn4z82fUfZz+nU/yL6FgfA99Xqf8A7r/xyx5W/wAD31eqf+6/8csgdLgfwY+88C7Yf1Sr5r6I5ABlnMAAAHWRSvp9+aLU/wCVR+jUF1JFK+n35otT/lUfo1Brc0/B956B9nH9Sf5H9Ubt4Ivy5n/zeP8A2rizyKw+CL8uZ/8AN4/9q4s8iTLvwF7zXdt/6pU930OwAM45A4IH8MD5QxPryP5i8nggfwwPlDE+vI/mLzFxn4MvI6Dst/UqX5is5nejj140z6+xvz0DBGd6OPXjTPr7G/PQOVw34q8z6Hz3+n1fyv6F7qPUr3F/UfVHyo9SvcX9R9UdofLU+JyAAWgAAAHz6xedHYFbHYAAoAAAAAAAAAAAAAAACMen3/mv/phon/iiTiOOnHR9Ry8fSLNNw/Hr9P17A1KeN4xRi89WJDJlJddkSUY7zlXHs5muffZ7MAkcEZ/HlxZ7DPyj034MfHlxZ7DPyj034MAkwEZ/HlxZ7DPyj034MfHlxZ7DPyj034MAkwEZ/HlxZ7DPyj034MfHlxZ7DPyj034MAkwEZ/HlxZ7DPyj034MfHlxZ7DPyj034MAkwEZ/HlxZ7DPyj034MfHlxZ7DPyj034MAkwEZ/HlxZ7DPyj034MfHlxZ7DPyj034MAkwEZ/HlxZ7DPyj034MfHlxZ7DPyj034MAkwEZ/HlxZ7DPyj034MfHlxZ7DPyj034MAkwEZ/HlxZ7DPyj034MfHlxZ7DPyj034MAkwEZ/HlxZ7DPyj034MfHlxZ7DPyj034MAkwEZ/HlxZ7DPyj034MfHlxZ7DPyj034MAkwEZ/HlxZ7DPyj034MfHlxZ7DPyj034MAkwEZ/HlxZ7DPyj034MfHlxZ7DPyj034MAkwEZ/HlxZ7DPyj034MfHlxZ7DPyj034MAkwEZ/HlxZ7DPyj034MfHlxZ7DPyj034MAkwEZ/HlxZ7DPyj034MfHlxZ7DPyj034MAkwEZ/HlxZ7DPyj034MfHlxZ7DPyj034MAkwEZ/HlxZ7DPyj034M1/hvpe17UcjUcXF4QlO7SslYmbGWvYEFXfKCsUYynUlYuVp80d0ATYCM/jy4s9hn5R6b8GPjy4s9hn5R6b8GASYCM/jy4s9hn5R6b8GPjy4s9hn5R6b8GASYCM/jy4s9hn5R6b8GeHTeP8AinIg518FXRSnODV+tYuNPmg9m1Xk48Jyhv3TS5X3psAloEZ/HlxZ7DPyj034MfHlxZ7DPyj034MAkwEZ/HlxZ7DPyj034MfHlxZ7DPyj034MAkwEZ/HlxZ7DPyj034M1/jvpd17RMDI1PUeElj4mOo89j4gwJvmsnGFcIwrpcpylOcVtFPv9oAmwERaH0i8S52Nj5mLwgrsbKpryKLYcRady2U3QVlc1vXut4yXY+1GR+PLiz2GflHpvwYBJgIz+PLiz2GflHpvwY+PLiz2GflHpvwYBJgIz+PLiz2GflHpvwY+PLiz2GflHpvwYBJgIz+PLiz2GflHpvwY+PLiz2GflHpvwYBJgIz+PLiz2GflHpvwY+PLiz2GflHpvwYBJgIz+PLiz2GflHpvwY+PLiz2GflHpvwYBJgIz+PLiz2GflHpvwY+PLiz2GflHpvwYBJgIz+PLiz2GflHpvwY+PLiz2GflHpvwYBJgIz+PLiz2GflHpvwY+PLiz2GflHpvwYBJgIz+PLiz2GflHpvwY+PLiz2GflHpvwYBJgIz+PLiz2GflHpvwY+PLiz2GflHpvwYBJhqvR9pvitedD4m/ExWanmXRh454542rJQfj/Nu/F+t7X1P7zl9s1348uLPYZ+Uem/BmJ0DU+IdPWRHE4H6pZWXdm3r45sGfWZWQ4u6z5LGXLzcsfSx2ituxIAmIEZ/HlxZ7DPyj034MfHlxZ7DPyj034MAkwEZ/HlxZ7DPyj034MfHlxZ7DPyj034MAkwEZ/HlxZ7DPyj034MfHlxZ7DPyj034MAkwEZ/HlxZ7DPyj034MfHlxZ7DPyj034MAkwEZ/HlxZ7DPyj034MfHlxZ7DPyj034MAkwEZ/HlxZ7DPyj034MfHlxZ7DPyj034MA2bpY9YNc+w+p/oV46J/WDQ/sPpn6FQaHxZrvFmfp+dg/Gf1XjuHk4nW/HBps+r8YpnT1nJyrn5effbdb7d6JA6P8G3E0jS8XIh1d+Np2Dj3Q5oy5LacWquyHPBuMtpxa3i2nt2NgGxAAAAAAAAA+fL2nk1HMhTXKyyShCEXKUpNKKjFNttvuWy339o9u5XbwnuPdo/EfGn6aaUsxxfaq3s407+Rz7HL+Kku1TIcRWVKDkzaZPltTH4mNGC4vd9FzZFXS9xnPWtSndFyWNVvVjQa22q39NY4+Sc5Ld+VLkX70044ZnOB+GrtWzaMKjddbLmts23VVUdnOyXuLsSbW8pRXlOVk516nVs+jaNPD5PgV/bGEf8AWST4NHAfjmV8U8iH+T4s+XHjKPpbb47b2bPvjDfsfzz794NFqIrs2MRwpo1GBi0YmPDkqorjGMV7S75P99Jvdt97bbfeZhnT4agqUFFcT54z/N6mY4qVaXDgl0XI+gBxJmSaUhzwjOOczR6sOGDYqr8iyxtuuE/kVcEpraaaW851vf2vdNe8Hzj/AFXVdRupzciNtEMaU1BVVw2sdkFGXNGKb9K5rbfbtNF8JrXPGtZdEXvDCqjWtu7rbfkk3v8AyXUvdizO+CNTvmZ81+8qx191K1//AEmp9JlLE6U3boem/wAFoUcgeInFd499Vt93sWiABtjzI1bpR9adQ+tb/wAzIouXq6S4uWl5yXe8a9L3XVJFFTRZx/b7z2L7Lv8A7vuOEXX6DPWHTvrav+yilHlLpdAtnNoOnteSlR+53i/6UR5P9+XkZX2nr+RTf/b9GSAADoTxMAAA6sw/F/ylkfzc/wCyzMGv9IGQqtOy7H3V0WzfuRrlL/cWVPusycGr1ofmX1KIFwfBo+Z3D/lZX6XcU+Lk+DtR1fD+AvPGc/8AaWzs/wDqNJlv4r/3met/aE1/D6K8V9CSAAb48bB87O5+4fQ+c+5+4CqKSdN/r/qP85X+j0mmm59OCa4g1JP+Fqfv49LX9DNLOOxn40vM+o+zW+XUvyL6FgvA89XqfuYv/HLHFbPA8n8m1SP8TDa9/JT/ANxZM6TA/hRPBO2StmtXzX0R2ABmnLAAAHQpX0/fNFqX8vG/RKC6dr7GUo6drFLiDU5LyWUr3sWhP+lM1mafgrzPQPs5T/iLf/V/VG9eCH8uZ/8ANY/9q0s+Vn8EGvfJ1F/O14v9LyH/ALizCJcv/BiavttJPNKlvD6HYAGccmcED+GB8oYn15H8xeTwQP4YHyhifXkfzF5i4z8GXkdB2W/qVL8xWczvRx68aZ9fY356BgjO9HHrxpn19jfnoHK4b8VeZ9D57/T6v5X9C91HqV7i/qPqj5UepXuL+o+qO0PlqfE5AALTqz4WT2Un5kz77mvcd6zHA0/Lypd1WPZNJ/vuWDaXut7L7ZbJpK7JaFN1JqEVdtpfEqp0i9IOpvVc9UZ+TVTDKtqrhVa4QjGlutcqj2JPk3+2WV6F8m67RMC3ItnddKnnlbbJzslztyTlJ9r7Gl7iRSm2yU5SnJuUpScpSfe5Se7b9ttl2uhuG2haZt5cLGl9t0Qb/pbNZgasqlSTbPRe2WXUMHgqMYRSltdri9jdQAbU81AAAAAAAAAAAAAAAAAAAAAAAAAAAAAAAAAAAAAAAAAAAAAAAAAAAAAAAAAAAAAAAAAAAAABDHQH2a/x9F+qWu489v4s8KDg/eRM5DPQR80vH/2YwP0AAmYAAAAAA1jo4+VLfXj5cyvXv5b/AHR/uX/U/wCD/imzmsdHHypb68fLmV69/Lf7o/3L/qf8H/FANnAAAAAAKpeHzpnEWfhUQw8GT0HTa5ahqOZ4ziQU8jeVNcPF53q+caq5SfZB7vI/ilrSMvCn+Y3iH7Hz/OVgGp+BlpvEOn6F8TtbwZY9FMoZGk5DysPIVuHlp3Spcce+c6+Sxua50uzISXqNieTCcB+tWmfY/D/RqjNgAAAAAAAAAAAAAAAAAAAAAAAAAAAAAAA1XgTTfFpap/yb8Tlfq2Vk7rM8bWoO1V76jy7vxR28v7j2cvJ7ZtRq3BOm+L26o/ib8T1fqd+Rz+OeNLUHYob5/Ju/FHPbbquzbl9sA2kAAAAAAAAAAAAAAAAAAAAAAAAAAA43B58q1Qi5NpJJttvZLbte7fcgViruxqfStxbTo+nXZNjUrGuroqb2626SfJFbdu3Y235IxkUq1XPuyci2++bstuslZZOXfKcnu/cXkS8iSRunTbxxPWdQk4TfieM5VY6T9LY99p3e7JpbfxYx7m2aIc1mOK7yelcEe+dhuzqwWH7+qvXnv5LoC2Pg8cCfE3D8ayIcuXlRjOakvTVwW7rq7fUtJ7yXZ6aWz32TIl8HLgX4o5vj18N8TDmpKL9TbkpKUI+3CCcZv23Bdq5kW0hHZJL3DLyzCaf5kjlftA7Sd9P0Si/VX3n49D7AA3R5YfNsw/Fmp1YOJflWy5a6qpTk/Moxb7F5ZPu28vYjI5V8a05SajFLdtvZdna22yrHhB9Jy1OXxOwZqWFXLmusi/S5FkXvFRflqhJb7/vpJNdkd3i4nERpQcnxN5kGTVsxxMacF6qd5Pkl+5FeuajPLycnJt9XkXWWy7d0ueblyr+Kt9l7SROHgdQ+Tao/NXhpP3XlN/7iA9yxfgfUbV6jZ89ZTD7iEn/9ZpMum54hN+J7D21oxw+Td3FWS0r5osOADpTwIxmu48bse2qXdOE4/aaaf9DKDaniTouuosW1lFtlVkX5Jwm4SX3UWfoNYipnhMcIvC1JZtcf8nzu2W3dC+CSa9rnjs/bcbPManNaLlTUlyPRfs6zOOHxjozf4i280RMWr8FXV43aQ8bf5Ji3Wxkt+1xsm7oz/kvnaX8hlVNzb+iPjWeiZyuXNPHsSryal2ylWnvGcU/30G21505Ls33NXgMQqVVX4PY9I7b5RLMME1T+9H1kutuXwLvo4MPw3r2Nn0QyMa2Nlc1unB7+6n5U0+xp7NNdpmIo6lNNXR861KcqcnGSs1tZ8T6gAqWHzkiLPCS1+OJol9PNtbmbY8I+Xab+S/aVan2+fZeU3fifiTG07HsyMq2FdVa3cpP3kortlJvsSW7ZTzpX43u1vO62SdePTzwxq33xrk1zTn55z5Yt+baK8m7wMbiI04Nc2df2RyKrjcXCbXqQak3y25GoxTb2Xa32JLvbL1dHGkeI6Zh4u/bTj1QftyUIpv7ct39sqp0EcIPVdUrlODeLhuN1z2fLKae9Ve/nlNczXljF+cuVTBRSj5EkiDK6LUXN8zd/aHmcKtaGGg/ucfPkegAG2PNQGAAU68JbS5Ua9bbytQy6qrYy8jlBdTJL21yQb/lLzkZlqvCd4SebpyzKo73YXNY0lu5UyS66PZ5lGM//AGftlVFE5XM6ThVb5Pc+h+wmaRxOAjTv61Pa3lwJZ8F/WFjavLHk0o5lPLHd7b2UPmjH7jrC2h+fWl5tuNfTdRN1202Rsrku+MoNST9tdnd5VuXC6JekXH1nHi0415VcUr6XL00Zdza37Z1t90vb27GbHKsSnDQ+Jw32hZHVjifSoK8ZL1vBkkA4TOTcnmIRwcnnuvjFNtpJLdtvs90FUm+B4eINQqxca2+2ahXVXOUpS7FGMYttv2kk2UT4j1GWXm5GTLffIyLbdn3xU7JSivtRaX2iX/CD6UI5sZaZgWqVG+2VdB7q1xe6qhJeqhzJOTXZLZJdm5Dejabdl5FONjx57r7I11x8nNJ7byfkglu2/Ik35DRZhWVWSpw3PZOxOUvLsNPG4hadS2vtsv3LHeCRpDrwcrLktvGb+WL89dHpV/8A9JWr7ROpr/R/w/Vpen4uFUuympLfbZyk25TnJL99KcpSf8o2A21Cn3dNR6I8tzrG+l4ypW5Sk/hwR9AATmsOCCPC9+UMP67j+ZuJ3IH8L35RwvryH5i4xMZ+FLyOg7L/ANSpfmKzmd6OPXjTPr3G/PQMEZ3o49eNM+vcb89A5bDfirzPonPf6fU/I/oXuo9SvcX9R9UfKj1K9xf1H1R2h8sT4nIABafKbIE8K/ihV49Gm1z2nkTVt0V27U1PeKfm5rFFrb+DkSj0gcaYujY8r8maT7VXXHtssltuoQj3t+d9yXa9kU04z4iyNUzb83J7J3S9LFNuFVceyFcd/wB7GPl8r3fe2azMcUqcNK4s73sP2fnjMXGtOP8ALhvfq+SMQXt6OsbqtMw6/nMemH3NcY/7iiKP0C0OtQx6oryQjt9pJGNk62kzf/adKzpQ8/lYyAAN4eRgAAAAAAAAAAAAAAAAAAAAAAAAAAAAAAAAAAAAAAAAAAAAAAAAAAAAAAAAAAAAAAAAAAAAAhfoL+aXj9eX4r6e9vLs8DsfuMmghnoS+azpB+yGi/8AdsgCZgAAAAADWOjj5Ut9ePlzK9e/lv8AdH+5f9T/AIP+KbOat0dfuGUv+WPS6hlrfWf3eXp098V+XT+35H7SYBtIAAAAABGXhT/MbxD9j5/nKyTSMvCn+Y3iH7Hz/OVgG5cB+tWmfY/D/RqjNmE4D9atM+x+H+jVGbAAAAAAAAAAAAAAAAOjOEYriTVq8HEycy2M514tFuRZGCTnKFNcrJKCbScmovZNpb7dqI6xemeNsI2VaBxDbVZFTrsr05TrnCSUoyjONrUouLTTXY00UclHZktOhOcW4rbqS5uNyK/Rhfsd4l/Bb+FHowv2O8S/gt/ClmpdS/0Wf+tEqbjciv0YX7HeJfwW/hR6ML9jvEv4Lfwo1LqPRZ/60SpuNyK/Rhfsd4l/Bb+FHowv2O8S/gt/CjWuo9Fn/rRKm43Ir9GF+x3iX8Fv4UejC/Y7xL+C38KNa6lfRZ9PmiVTVeDNO8XyNWl8TfEFkahO/rfHPGlqLlCKeZ1W78Tb226vs9Tual6MMvY7xL+C38KYXh3pEhi3590OFeIKJZuSr7LIYt98smSgo9ZZC2ahjT71yVtx8u47xFPRZ9PoThuNyK/Rhfsd4l/Bb+FHowv2O8S/gt/CjWuo9En0+aJU3G5Ffowv2O8S/gt/Cj0YX7HeJfwW/hRrXUeiz/1olTcbkV+jC/Y7xL+C38KPRhfsd4l/Bb+FGtdR6JPp80SpuNyK/Rhfsd4l/Bb+FHowv2O8S/gt/CjWuo9En0+aJVBFPowv2OcSfgv9acVdMdXX4tN2ja5ieN5VOLVbl4Ucenrbp8kFKc7vdeyTe0ZNJ7DVHqPRZ9CWAdYPsOxIY4AAAAAAAAB85EGeFBxrPDx4aZjuUbMuEndKPZyY+7jJJ/PTe67O6MZ+0TmyDunfou1HWs6nJw5Yyrhj9VJXWWQm59ZOTcerrkuXZx8vkfYY2K1um1Dizd9nZYeGNhPEO0FvvwuuBWM4htut20t1u0t2l5Wk2t37W6Ja/Y+6589gf7bI+AH7H7XPnsH/AG2R8Ac76BXvex7j/wCY5Xo0qouhsPBXTRpWl4dOFVgZijVDbdRo3k/VTnJq1b2Sk5N9nfJ9xn34Run/AEDm+9R8MR/6AGufwmF/t8j/AA4Xg/a5/Caf/t8n/DmxjPFRVlE4athuztSbnOo2273u+L4m/vwj9P27MLMb8zVCXv8AXMxGq+EdLZrGwG/NK29R2/1IRfN90jWPQA1z5/T/APb5P+HOPQA1z5/A/wBvkf4Yq6mLfL6FaWD7Mxd3NvzbNY446TNW1eMq77+roffRSnXXJeacm3Kxd3Y5NbrfZGmJktLwf9d+fwP9tkfAHD6ANc/hML/b3/AGFUw2JqO8ldnWYDtDkeChoouMV4Iicsr4Ide2Dmz/AOuyj71FD/3mhR8H/XPnsD/bZHwBNfQNwRl6Hg3Y+XOiVtuTO5dRKc4KEq6IJNzhB829cvJ5V2mRl+Eq06mqUbI57tp2lwmNwXdUZqUrrbwJOABvjyA6mqdJXCdOs4NmJdv2+nqmvV12RT5Zx9tbvs8qbXlNqOqRbKKkrPgS4evOjUVSDtKLun4ooZxjwzmaVlSxcyvlkt5V2drrsjvspwl++Xtd6fY0mYVF8eKeFsLU6XTmUQug/nl2xfz0ZLZwl7cWmQjxd4O75nPTcrZPfajITlFe1G2C5lH2nGT9s0OJyuSd6fD5nsmRfaFRnBU8ZtL2uTIY4T4r1DSrHZh5VlKb3nW9pVS7Nt5QlvFy2jtvtv5miU9K8IvOrilkYVN8l2OULp09vncXCf8AQafqnQ3r9De2F10V+/purkvtKyUZf/CYK3gPWYNqWmZj281M5r7TgnuQweLpbK5tcXS7P5g9dSUG3zTs/fYluXhK3/Smv7+f+HMXrvhDajdHlx8WjFbW3NKyeRt7cdowW/8AK39xkcY3AmsT9Tpeav5VE6/6bIozukdDuvZL2eEqY/P3W1pL7UHKXvRJu+xktl9DX/wjs1Q9dyjt1lf5XNV4m4kztTt67MyLb5LfljJpVx371GEUowXYu5LfZHu4G4NztZv6nEqfLGW1t8k1VUvPKXllt3QW7fm23ambgzweq4NW6pk9b2/K9G9db9qV3ZKS/kqD7F7hN3DuhYuDTHHxaK6K4r0sK4pR7e9vbvb8rfayXD4Cc5aqrNbmvbbC4Sj6Pl8V01Wsvd1MZ0c8IUaLhQxaF3emtm0ueyxpc05td7ey7PIkku42txOTrubmMVFWXA8or151qjqVHeTd231Z9AAXEQAAB48yhWwlCSTjJbNNbp7rZpp96KidNPRpdo988iiErNPtlvCS3k8eUn+52eVQ37IzftJ9vfcQ8mdiV3RlCyMZwktpRkk001s00+xprzmLisNGtGz49TfZBntbK6/eU94vjHqj8+9z76bn3Y9kLqLbKrIdsbKpOE4+5KL329rylnONugLAynO3BnLAse75IR6yhv8Amm04dvzkopb9xFWtdBuu47fVVU5cd+x1WKEtv40buRJ+0mzSVMvrU36qv4o9jwnbPLMfT0Vmot8Yy4fHgezhrp31bHSjkxqzVFJby+QWPb56Va5X9ybHLwlLvpXD79f+HIty+jrXantLTMnf/o4xtX3VTkjyx4K1lvb4l52/t41iX3TjsXxrYqKtuYVbJ+zlaWpyj7pWXwTJVzfCNy5Qaq0+quzySlkzml7sFTFv7ojnjLpL1jVIuGRk8tUls6cdOmEk+9S2k5Tj7UpSXZ3HOB0Wa9fJRjp1sd/31kqoRS8755r/AO5vfC/g+Z1kovPyaservddO9tjXm55xjGEvbXOireLrbO/0IEuzmWvXHTKS39p/qQ5puFflXV0UVzuutkoxrrTlOW/mS8nlb7kk2Wj6Cuiz4kx8bzIwlm2R2ST3jRW0vSRfc5t+qa8yS8rluXA3R7pukQ/yXHirGtp3T9PbJd+znLtUd/Ito+0biZ2DwCpPVLdnGdpO2VTHp0KC0Uvm/wDHgdwAbM4U6Ij7pV6S8fQHixvouu8bVzh1XV+l6nq+bm6yyPf1kdtt+5m/pkQ+EH0cZ2uywZ4U6I+LLJVivnZDm67qOTk5K577dXLffbvXf5Iqzkotx4mwyqFCeIjHEO0HxfuMNLwjcLbswcxvyJqlL3+uIo6XekievSqSr6miluUYSanOcpJLmk0to7LdJLf1T7X5M2+gDXPn8H/b5HwA/Y/63/CYH+3yPgDUVViakdLjseoZW+z2CqqtGfrLg3d2IlR6dIzZ419F8dusptrtjv3fI5xkk/Ot4olD9j9rv8Jg/wC3v/w5yugDXPn8H/b5H+HMGOArp3UTq6/bDKqtN05TTTVmbpgeEViKEeswslSUUpKt1Tin5UpSnFte3sj1fsjcH6Cy/eo+FNB/Y/65/CYP+2yPgB+x/wBc+f0//bZHwBse8xXQ4eeC7NN31v4s3yXhHYW3Zg5bfkTVKXvq1mtcSeEPlTTjh4sKXtt1l1jsa3/6KCik1/K+0Yj9j7rn8Lgf7bI+AH7H7XP4TB/22R8AJVMU1a30JKGG7M0patWrzv8AQjbiHXMvULnfmZNuRa99nOXpYb9u0ILaNcfaikjHksLwftc+fwv9tkfAHP7H7XPn8D/bZHwBrp4LESd2mdjhe1eT4aChSlGKXJIi/SaOtyKK/wCEuqh93OMf95f3TF8hh/Ij/UVh4b6B9ZpzMW62zC6qnJotsUbr3Lq67ITmoKVKTltF7JtL20Wgxa+WMY+ZJG2y3DzpJ6la55t28zmhmNWDoS1KKfzsekAG0OAAAAAAAAAAAAAAAAAAAAAAAAAAAAAAAAAAAAAAAAAAAAAAAAAAAAAAAAAAAAAAAAAAAAAABDPQl81nSD9kNF/7tkTMQv0OdnGfSGl3eMcOPbydulWbvbzsAmgAAAAAA1Xgf0tmq1/8ry21PIsVmqdtb61QfV6XLy6bDbaC8j5zajVMGDo1rLhy6rbHNxaMl3XTVmk40seTx44uIu+jImnO2ce59j8uwBtYAAAAABGXhT/MbxD9j5/nKyTSMvCn+Y3iH7Hz/OVgG5cB+tWmfY/D/RqjNmE4D9atM+x+H+jVGbAAAAAAAAAAAAAAAANP6YPWHVvsbm/o1px0PwXxC0nsXrbg+T/q1R36YPWLVvsbm/o1o6H/AFh0n7G4X6NWR/3+4yr/AMn3m0dVHzL3jnql5l7x9dz52TSTbaSSbbb2SS7235ESWMbUx1cfMveRx1S8y948Olaxi5alLFycfIUHtJ0XV3KLe+yk65PlfY+/zM+fxwYO+3jmLv4w8PbxirfxtNJ4u3N8sbyiur9V6ZdnaU0O/BlO88TJ9UvMveHVLzL3jGPiDA3a8dxN43+KteMVbxyt+XxZrm7L9+zq/Ve0d9R13CxpQhk5eNjzs9RG6+uqU+3b0kbJJy7fMV0vhYa/E9/VLzL3gql5l7x5NR1LHxq+uyL6aat4rrLrYVV7y9SuebUd35POcYepY907aqr6bbKGo3112QnOmUt+VWwi262+WWylt6l+YpofTYd54nr6teZBVrzL3iNum7juek14GNi5GJRm6hn4uJ1uTyzjh42RKxWZs6HZFyhHq2k5NR333fYfXhvV9TrydNxrdQ0zVaMtZdlubV1eJfKFdbdMcXGryJrISshJSnHfZb9i2e0qoy0qT5/oWd89ViRFUvMveHVru2XvEU8O9JTqu4ns1W+qGJo+a6cZKNddkq40SudcN2uuukovljvu9jeuEOKsHVcavKw8iq2E6abpwVlcraI319ZCGRCE31Nm26afljLzFs6M48Vtt81cuVZPmZ3ql5l7w6peZe8eHTdZxcrn8WycfI6tqM+ourt5JPfZT6uT5X2PsfmZ8J8QYCck83EThf4tJeMU7wyW9lRL03pb9+zkfb7RbpfCxXvPEyvVLzL3h1S8y941bRteuzNUzKaVX8T9NgsW+xpuy7UrFTe66pb7KqjHlFS8rnkJdnVvfL0a7hTveLDLxZZSbTx431yvXKm5J1KXOmknv2eRhwd+A7zxMl1a8y94dWvMveNY4Z4htsz9Q0zLjCOTiyjlY8q04wv07KstWNYlJt9bXKuymfkcqlJbKaS2pMo4tOzKqdzpKteZe8RZ0/RXNw7/AKS6Z/xyVmRV4QHquHf9JNL/AOORz4GThX669/0JRp7l7n+4+zPjV3L3D7MlMeXEAAFoAAAAAAAAAAAAAAAAAAAAAAAAAAAAAAAAB1aOnVLzL3j6gFbny6peZe8dlE7gC4AAKAAAAAAAAAAAAA42OQAfLql5l7w6mPzq94+gBXUzjkXmR2ABQAAAAAAAAAAAAAAAAAAAAAAAAAAAAAAAAAAAAAAAAAAAAAAAAAAAAAAAAAAAAAAAAAAAAAAAAAAAAAAAAAAAAAAAAAAAAAAAAAAAEM9DfzZ9If1xw3/3VYTMQx0R9nHHSJBepU+FZ7fxrNIucv6UgCZwAAAAADA8V6OsqFNsVOeRg2vMxK45NmNVbk11zVVeRKvfmocpLdNP3Gt088ADW+HuJYXSeJlOujU8bGxbtQxoOcqceeUtoRjkSioWbyTSSbfu95shiuIdDxNQx7MXNohfj28nWVz3Sn1c1ZDdxafZNJ9/kMPqfCtk3nTxtTz8W3OtxLZSVitrx1ipRdeJTNctELILae27fZ5gDbQarn6VrD8ddGqVJ35GPPEjbg1uOFjw2WRTvGW+RKzZtTn6nfsQz8PW3431GXhLnyceWErcebVOLHbxmu5xe9lsu3ll5ADaiMvCn+Y3iH7Hz/OVmx52Lrj8b6jKwI82TjywusptfVYsdvGa79n6e6XbytdiNA8J3G1NcJ8Uynk47olTXPGgqWp14kXX19Vkt/T2yl3S8gBJ3AfrVpn2Pw/0aozZHfCenazPSqOq1KinrKNLnhvxONjx8aGNV4xRYpPa2c+3af73czefo2rWeN9XrPUK7Jx7MXbT8ebw8avbr8beUvk7t7fkku2O/YAbSDVs/QM+zxvl1i+pX5NF2PyY9O+HTVt1uNBv91hZs95S7Vv2DP4byrfG9tXzalk5OPfV1fVxeJXTtz49L27arNvTb9vaAbSDVc7hSd3je+q6rWsrJx8iPUZKreLGjbejGfI+ros29PHt338gz+D67vG+bO1OKzMjHyWoZkorHlj7bVYu0fkNEtvTQ7ebdgG1A1bP4Lxb/G+suzdszJx8qxRyrIquzG25I0bfuVT29NFdjOM/gjAv8b61XyWbk4+XevGborrsbl6rq+WS6qHYt4x7H5QDajpKSXa2kvO3sazm8C6bf431tNkvHsmjLyf8oyI81+Nt1Mo8ti6uK2XpY7J+XcZvAek3eN9biKfj+RRl5W92R8lyMbbqLNlZ6Tl2XZHZPypgGwyvgt95wXK0pbyS2b7k932Nms9JfGNejaZl6jyRyvE540bMeFqhN9fk00Nb7PlmoWuaTXby+TvPRmcEaVd411uJGfjuRRl5O87vkuRjbdTY9p+lcdl2R2XtGu9LPR3XqWlanjYFNFOdqd+HdbdbKcYSsoyKeaybXNs1jxtW0V27gGA1rpU0bXNB1WOJkqvJemZu+Hk7U5K/ya3fki243L24OXt7G8dD/rDpH2Nwf0aoiPK6B9L0bRNSysiUtQz6tOy5wtsXJRRZHGscZUUJ9s4vbaU3LtSaUWS50P8ArDpH2Nwf0aoi/v8Ad+pl7dz7zbURJ4UWTfXotcauRU3algUZzsnZVT4nZa+sjfbWnKuiViqhKST9LOS2e+zls8Wr6fRlU24+TVC6i6DrtqsipQshLscZRfejIpSUZptXSMGonKLSIh4H4F1PG1rE1OOHoWm4ccXIx8ujSbb143C1KzHnKp4ldUpwuhF82+/K32vZI8XQXwpp+Tm8S5+TjV5GTRxXqsMaV8VbHGdV1N8bcaM0403uck3ZHaT6utb+lRInD3RrpGn305OLRfGzH5ljqzOz8irHUq50tU0X5Eqq11dtkeyPYpvbYzXD3DuHp3jfidPU+O5l+fk/JLbOty8jl6635LOXJzckfSx2ituxImlXvez8OhEqdrXRDvQdwtgZWo8TZmVjVZN+PxJqEcZ3xVsMdxtjb1tELE41XuXLvYlzfIodq2Pv0VcP6dq0uIsnWMXGzs1a5nY1njtFdssWjGUYY1NDui3VTGqTcZR27329nZLPDvDWFp8sueJT1Ms/Kszsp9ZbZ1uTdt1lm1s5KG+y9LDaK8iRheIOjTRs/Ityr8SavvjGGTOjKy8RZUIrljHKji2wjkJR9L6dN7dncVdeLbvtdL5fuO7aS2IG1e2V3AdtLsnZi0634pgXc/NKWBDUVXRKFj35lHecU+3sgl5Cc1wvbpeKocNYul419llbyp5sL9siuEbPkltuP8lvyeeS9PY32Sn29xltU4J0zK0+vS7sSHxPqdTrxq5WUQg6JKdfK6JxktpLfv7e3ffc2RRFbEqaslZXb+NisaVn7iBenrSutlwlPUsfBszrdf0zEzJ0089NtMrLHPHjK+Lsnityb5J7reT7O0yfE+DTjcYcJ0Y9NVFNeJrKhTTCFVUE8dNqFcEoxW7b7F5WSbxJwxhajLEnmU9dLBy6s7FfWW19VlUPeqzaqcVZs/3s94vypnGdw1hX52JqVtXNmYMLq8a52Wx6qGRHkuXVxmq580ezeUXt5NhHFJJRfJNfEpKk7togiWBTfjdI6upru6q/KvqVlcbOrtq0+513Q5k+S2Pa1Jdq8h9uJsKGFwDg26fj4+O83E0SOqX1RWO7aLIUK+zJvx4dY05TcZTe7Sts8/bN2n8K6fjzz51YyT1Sx25/NOyyOROUHCXNC2bjGLg2uWKS7e48WgcBaVg4+RiY+K/FsuCrux7r8jKpdS50qYV5Vk41VfJLPSQSXpn7RJ6Urp22TTt5JL9C3uXYjzgzgTUqNY03UqsLQNMw6aMqrLhpN1++dRkUp47nB4ddc3C6Fc1JvdpvteyR5ehnhbT8vVuJ8vLxqsm7H4gyljdfGNsMdxmrOtpqmnGu9yUfkiXN8jhs1sSPw/0caRgXU34tORCWO5PHhPP1C7Hx+eEq5dTjXZEqYeknJdkexSe2xluHuG8LAnmWYlPVTz8meZlvrLbOtyLPV2bWzar3+dhtH2iyeJvdLmrdOdyqpWtdGn9CVcnh6xCcpRvev61G5ppTjZLKm4tP+blW17Tj5DTeCcOXC2Zpmnalpen5MMnMsx9P17Ergsp5WRG3l8dhbDrY5FlcpQdkZtcsWu3Zkq4vDHU6hnXwnF4WqUp5mJKLX+WQhXQsiqUdtlbjJwsT7d6amu+R4eH+jDRMG+nIx8SbtxubxXr8vMyq8XmSjLxarKunCl7JLeKTW3ZsWxqx31cHy8eW9y5we1uKMbmpvjTD6v8Ae8P5njG38HLPxlQpf68bNvcn7ZJZq/DnDs6MvUNQybI3ZWbYq4uEdoY+BjSsWFjV7rm35bJWzflsunt2RibMmQVHe3gSQTV7nLIp8IH1XD3+kul/8clZkU+EH6rh7/SXS/8AjkM/umXhPvr3kpU9y9z/AHH2Z8ae5e5/uPsyQhlxAABaAAAAAAAAAAAAAAAAAAAAAAAAAAAAAAAAAAAAAAAAAAAAAAAAAAAAAAAAAAAAAAAAAAAAAAAAAAAAAAAAAAAAAAAAAAAAAAAAAAAAAAAAAAAAAAAAAAAAAAAAAAAAAAAAAAAAAAAAAAAAAAAAAAAAAAAAAAAAAAAAAACGeiX5u+kX/sj/ANz3kzEMdFvpePOkBd/WV8KWe5yaVdDb2/OATOAAAAAAAAAAAAAAARl4U/zG8Q/Y+f5ysk0jLwp/mN4h+x8/zlYBuXAfrVpn2Pw/0aozZhOA/WrTPsfh/o1RmwAAAAAAAAAAAAAAADUel71h1j7G536NafLohuXxC0jtXrbg/o1RmuJtKrzsTJw7XONeXRbj2ShspxhdXKuTi2mlJKT2bTW+3YyOsToZjVCNdevcQ1VwjyV116koQhCKUYxhGNSUYqKSSXYkkRNNPUlcy6TpypuMnZ3uSz1sfOvfHWx8698iz0HpeyLiT8J/qh6D0vZFxJ+E/wBUV1PoU7qn7XyJU62PnXvjrY+de+RZ6D0vZFxL+FP1Q9B6Xsi4l/Cn6opqfQd1T9r5Ep9bHzr3x1sfOvfIr9B6Xsi4k/Cf6oeg9L2RcSfhP9UNT6DuqftfIlLrI+de+cdcvOvfIu9B5+yLiX8J/qR6Dz9kXEv4T/Ulby6DuqXtfIlLrY+de+Osj5175FvoPP2RcS/hP9UPQefsi4l/Cf6oXfQd1S9r5EqdbHzr3zjrY+de+Rb6D0vZFxL+FP1I9B6Xsi4l/Cn6kXl0HdUva+RKXWx8698dbHzr3yLfQel7IuJfwp+pHoPS9kXEv4U/Ui8ug7qn7XyJS62PnXvjrY+de+Rb6Dr9kXEv4T/Uj0HX7IuJfwn+pGp9B3VL2vkSh10fOvfOevj51/QRb6DsvZFxJ+E/1I9B2Xsi4k/Cf6kapdB3VL2vkSi7Y+de+RZ09tb8Pbbb/HJpn/GO3oPy9kfEn4U/VHGP0OV9fi3X6xreX4plU5dVWVmrIp62ifPByhOn3VumntKSTW5SWprgX01Tpy1ar+BKtfcvcR9DpFdh3JTDYAAKAAAAAAAAAAAAAAAAAAAAAAAAAAAAAAAAAAAAAAAAAAAAAAAAAAAAAAAAAAAAAAAAAAAAAAAAAAAAAAAAAAAAAAAAAAAAAAAAAAAAAAAAAAAAAAAAAAAAAAAAAAAAAAAAAAAAAAAAAAAAAAAAAAAAAAAAAAAAAAAAAAAhnow+b7j3634X/wC7riZiF+jT0vH/AB0n3zxeGZx9yOBbB7+3uATQAAAAAAAAAAAAAAARl4U/zG8Q/Y+f5ysk0jLwp/mN4h+x8/zlYBuXAfrVpn2Pw/0aozZhOA/WrTPsfh/o1RmwAAAAAAAAAAAAAAAAAAAAAAAAAAAAAAAAAAAAAAAAAAAAAAAAAAAAAAAAAAAAAAAAAAAAAAAAAAAAAAAAAAAAAAAAAAAAAAAAAAAAAAAAAAAAAAAAAAAAAAAAAAAAAAAAAAAAAAAAAAAAAAAAAAAAAAAAAAAAAAAAAAAAAAAAAAAAAAAAAAAAAAAAAAAAAAAAAAAAAAAAAAAAAAAAAAAAAAAAAQz0d/8A9weNPsfw5+i2kzEL9HvZ0gcZp9jlp3Dsl7aWNam151v2AE0AAAAAAAAAAAAAAAEZeFP8xvEP2Pn+crJNIy8Kf5jeIfsfP85WAblwH61aZ9j8P9GqM2YTgP1q0z7H4f6NUZsAAAAAAAAAAAAAAAAAAAAAAAAAAAAAAAAAAAAAAAAAAAAAAAAAAAAAAAAAAAAAAAAAAAAAAAAAAAAAAAAAAAAAAAAAAAAAAAAAAAAAAAAAAAAAAAAAAAAAAAAAAAAAAAAAAAAAAAAAAAAAAAAAAAAAAAAAAAAAAAAAAAAAAAAAAAAAAAAAAAAAAHCAOQAAAAAAAAAAAAAAAAAAAAAAAAAAAAAAAACGeB//AO4nFf2H0L+zYTMQzwP/AP3E4r+w+hf2bACZgAAAAAAAAAAAAAACMvCn+Y3iH7Hz/OVkmkZeFP8AMbxD9j5/nKwDcuA/WrTPsfh/o1RmzCcB+tWmfY/D/RqjNgAAAAAAAAAAAAAAAAAAAAAAAAAAAAAAAAAAAAAAAAAAAAAAAAAAAAAAAAAAAAAAAAAAAAAAAAAAAAAAAAAAAAAAAAAAAAAAAAAAAAAAAAAAAAAAAAAAAAAAAAAAAAAAAAAAAAAAAAAAAAAAAAAAAAAAAAAAAAAAAAAAAAAAAAAAAAAAAAAAAAA+SXb7/vf/AJs+zzn1OGAcgAAAAAAAAAAAAAA6SZ83Ne4fRlfMXo+0nXuL+LfirieM+K/EPqP8oyaer6/T31nyvZDm36mHqt9uXs23ZJSpRndybSSvtvzS6rqRVJuNkldssD1sfnl7466PnXvkWfse+EvpW/v7UP8AEj9j3wl9K39/ah/iS/RS9p/BfuU1T6Ep9dHzr3x10fOvfIs/Y98JfSt/f2of4kfse+EvpW/v7UP8SNFLq/h/kap9CU+uj517466PnXvkWfse+EvpW/v7UP8AEj9j3wl9K39/ah/iRopdX8P8jVPoSn10fOvfHXR8698iz9j3wl9K39/ah/iR+x74S+lb+/tQ/wASNFLq/h/kap9CU+tj50cdZHz/ANJF37HvhL6Vv7+1D/Ej9j3wl9K39/ah/iRopdX8F+41T6G/8SVX3YmTVh5XieXZRbDGyuSu3xe9waqtdV0ZQsjGfK3GUXutygfR9xlxxl8Zyw1qM8fWsy6Gl6pkeI6ZLqsXT7Ju6TqeK6Uqq42yUoxTlslu90W9/Y+cI/Sv/wCe1D/EmNo8GrhOGZdleITlXbRVVHGeZmquqyE7XbkRmr+tlOyMqYuLlyrqN0t5MKNJc2/cv3L05c0S/XYkknNPZbbtrd+29klv7iPr1sfOiLP2PfCX0rf39qH+JH7HvhL6Vv7+1D/EjTS6v4L9yzVPoSn10fOvfHXR8698i39j3wl9K39/ah/iTj9j3wl9K39/ah/iRopdX8P8jVPoSn10fOvfHXR8698iz9j3wl9K39/ah/iR+x74S+lb+/tQ/wASNFLq/h/kap9CU+uj517466PnXvkWfse+EvpW/v7UP8SP2PfCX0rf39qH+JK6KXtP4L9xqn0JT62Pz39I6xfPL3yLf2PfCX0r/wDn9R/xJx+x74S+ln/z+o/4kaaXtP4L9xqn0JS62Pz0ffI08KGSfB3EO23rfP8AOQPh+x74S+lb+/tR/wASdbfB34QnGUZaRupLZr4oakt17qydy1qkubfuX7lylO+6RvnAs4/ErTO1et+H+jVmY66Hzy98i2Pg9cIJJLSpbJJJfFDU+5di/wD1R2/Y+cI/St/f+o/4kaaXNv4L9xeXQlHro/PL3x1sfOiLP2PfCX0rf39qH+JH7HvhL6Vv7+1D/EldNL2n8F+5bqn0JT66PnXvjro+de+Rb+x74S+lb+/tQ/xJx+x74S+lb+/tQ/xI0Uur+H+Rqn0JT66PnXvjro+de+RZ+x74S+lb+/tQ/wASP2PfCX0rf39qH+JGil1fw/yNU+hKfXR8698ddHzr3yLP2PfCX0rf39qH+JH7HvhL6Vv7+1D/ABI0Uur+H+Rqn0JT66PnXvjro+de+RZ+x74S+lb+/tQ/xI/Y98JfSt/f2of4kaKXV/D/ACNU+hKfXR+eQ66PzyIt/Y98JfSt/f2of4kfse+EvpW/v7UP8SNNLq/gv3K6p9ESkpp+37hzzEDcEcH6donHU8TTMfxbHnwvLIlDrr7t7Z6pXXKfNkTnJekqgtk9uzu7WTyiKpFJqzuvgKc3JO6s0fQAFpKAAAfKUl5zqrCI+NNF4lnnZFmJlqGLKSdMedLljyx3XK6nt6bcjLUuMNbx7bKbc26NlcpRlHaDS2ez2aj2ryp+2ajFZpHDv14ySva50WX9n541Lupxbte3NFqlYvOgp+2V94ZxuKdQx45NGZtXJPldkoRlJJuLe0ant2xfeerUMHjDFhK3xiU1FczVXUWT2XmjOpOXuJN+0XLMW46tMrcfcRzyOMajpurDUna1+fQnhncr7wd0xZNdkatRgranLldsY8ltfak5TguyyK7eyKi/d7idtNzK8iuFtU4zrsjGUZRe6lGSTTT8zTRkYXHU8QnpfDlzMLH5ZXwbSqR2fBrg/ee8AGaa4AAAAAAAAAAAA6A6Tl5fMYrRNexMx2LFyKr5UuKtVcoycHLm5VPbub5Zfcssc4ppN7srGMmm0nZczNgHxve0Ze4y5uwSucOUT6dpVPN491d5sr/GLozVr2x031cEpbdS6+6W23K21ze3v2lotOtlOuEpR5ZSjGUovvUnFNp+2n2faMLDY2NdtRTWk2WPyyeEjByaetX2PaADONYAAAAAAAAAAAAAAADjcHmyrYwjKUmlGMXKTb2Silu22+5bIo3ZFUrux9HP2zp18O7mj75XniXjjUtbzlhaZOyiiUuSHI3XKcY7t3WWr01dfKm9l5OzaTO/EnBOs6ZjSzq9Qut5PklsY2XVzjFd77ZtWRiu177dm/Z2GqeZX1OEXKMeLN7HJNOmNWahKVrRfHfhcsR9s7IiXoU48t1DmxMxxlfXBWQtikutr3Sk5RXYpxk49q7Gp9y2e8sGbhsRGtBTjwZq8ZhKmGqOnNbr/dj6AAyTFOp1mc7mK4mpvsxMmGNLkyJUXRplvty2yrkq5b+Tabi9/aKN2TZWKu0r2vzMlzr/APGFZHzor/r+BxTh0TyLstuqqMp2OFqlJRjs5NJ1rfZbv3EzT8TjLWbZ11xzbnOc4VxT5UnKbUIpvbs7WjTVs2jSkoyjJNnS4Xs3PEU3OnOLS4+HmWwdqOesj5yDaOHOLp9vj0dv5xfAmN1nT+LcaLk77LopbvqJQskv9XZOX+qmSvMJRV3CRiwyeEpaVVhfzLB8y9r3zuVNr461aM1Gedd2SSlFqKfY/TJ9m68paeu19Qpf9Hzf/CXYTHxxGrSmtPUjzTJqmBcNck9fCx9+ePdufQqnqHH2rvNlkdfdCUbWlRu+qglLbqpV+plttyttc3f279paHT7JTprlKLjKVcZSi++MnFNp+2n2EmGxsa7koprSR5hlc8JGEpNPWr7HplI6RsXnRC3HmicSvIy76cqaxeeU6q673GfJ3pKOyW/tbkfcI8R6hLUMFPOy3GeXiRnCWRZyShK+uMoSg57Si02mn37mPVzRU6ipyi1d2uZmGyKVehKtCcXpV2lxLZA6VvsXuHMmba5oLA4Zh9D4gw8x2Rxciq91NKxVSUnBy5uVSS9S3yy+5ZmGy2MlJXTuhKMo7SVn4ncAF5QAAAAAAAAA6I4cvOxJ/wC8rf0scYalHVL6q8i3Hpx5QjVCqTr5t4Rlz2NP5Jvzbrfs227O8wsZilQipNN3dtjPy7L54yo4RaVlfcsicmqdGeq35ulYuTkra6cJcz2Uebkm4xs2XYueMVLs7PTdnYbSv/sZNOopxUlwaMSrTdObg+KdvgfQAEhGAAAAAAAAAAAAAAAAAAAAAAAAAAAAAAAAAAAAAAAAAAAAAAAAAAAAAAAAAAAAAAAdZEU9GfzX8a/9nv8Au+0laRE/Rn82HGv/AGe/7vsJqP3Z+X6oin95EtAAhJQAAAAAAAAAAAAAAAAAAAAAAAAAAAAAAAAAAAAAAAAAAAAAAAAAAAAACJf/AFh/9kf/ADkloiX/ANYf/ZH/AM5JaJanLyLIcwACIvAAAPlaux+4VJ6SfXbN/nv/AKUW2t7mVI6SfXfN/nP9yOc7RfhR/Mdx2I/5M/ylgehP1mw/5M/7cjdbF2NEe9Deo1Q0jEhOyMXGM902otfJJPtTfZ2bMy3EXHmnYUHKzKrclvtXCSnY2vJyQbfm7Xsu3t2M/DVqcaEdUkvV/Q57H4WtPFzUYttzfJ9WV96WsKGPrGbCuKjGUo2cq22TnCMpdi7t5yk/tkv+DpnTu0xwm21j32Vwb+dahb3+07H/AEEKa7l5Gs6lfdVVZO3IsXJVGLlKMIqMIb7di2jGO77u9ljujDhr4mafVTLZ3Pey5xfpXZPZtJ+VJKMd/Ly7+U1GVU28TOovubnVdoq0IZdSozf8xJXXFqyNuRyfC6+MItyaikm229kvdZDfFXS5bLI8V0ilXScurjbKMpq2X/RQi05rv9M35O7btfQ18VClbU+PLmcVhMDVxLagtlxb2S82TUmdmQNk8ScXYkHffiJ0r00l1ddnLHz8lFvMopd7fd5TcOjXpMo1Tai9LHy9t+Tm3hZyreTrk+1tJNuL7UvPs2RQx0JSUWnFvrsZFbKK1ODnFqcVxcXe3mSNE7M1vjzUczF0++/Bq8YyYdV1dfVzt35rYRm+StqUtoSk+x/vdyFc/pa1ymxwuoopmlu4WUXwmt1unyzs32a8pXEY2FD79ymAymtjL91bbk3v8Cxi904aNV6Ktbv1HS6MvI5eutdvPyrlj6S6cFst3t6WKNY6UeL9ZwMp14WJG3GjTGcrpY99qjNufMnKucYpJKPublzxUVTVTfS9zHjgpyrOjtqTtvwutiU0jsV14e6WNWvzcWqfi7ruyaKp8tU0+SdkIy5XKx7Plk+0sDdby183ftHfb3FuW4bG068XKN7Imx2WVsJNQqWvJX2PBxRqUMXFvvse0a65yfuJN7Lzt7bJeXdER+DPNyu1KT72sVv223ktmndIPGuo6lHkuqli4/Mm6oxsSck+aHNbNen2a3SSS7N9uxbY/gLibP053PCqjb13V9ZvXZZy8vPy7dXKO2+8u/fuRpa+ZReKjxtG/mdVhez1RZdOV1qm1zWy8y2u50bIa6P+kHV83UcfFysaFdNnW88o0Xwa5K5zjtKc2lvKKXavOZjpR4q1vByoU6fhdfQ8eNkrfFr7krHO2Moc9UoxW0YQe3f6b20buGLhKDnZ2Ryc8uqRqqk2r+at8TbHwfpsslZksSl5G/N1nJHfn+fa7nP+NtubDH2kVwl0x6xFuMqsWMk2pJ03pxaezTUrexpk/cPZUrsam2e3NZXCc9lsuZxi3sn3LdkeDxNGq2qat1J8yy/E4eMZVns+G99jJpnUiPpG4z17AyspY+HV4jUq3G+dNtm6lXCc5SlC1LlUpTW+2y5e0wnAnSpmZGfVXmyojjzja5OEXDl5K3Zu5Sm2opRkUqZjSp1FCV0+BdRyTEVaLrQs4pX2d38CdzlIgviHpiybbJ16Xi81cHt1s4WWOa86rrada7Ozmb9tLuMfonTXm12xWXRVbS2lJ1KVVkV5ZR55OM9vM9t9u9CWaUoy039/Ivh2exU4a0l103V/gWFG5jdD1GvKphkUyU4WRjOMl3OMluvcfnXke5kJPv37jYKaaujSyg4ycWrNHYbEM8c9L7ruliaZVG6yM+rd095Rdm/LyVVwalb29m+6W/cpLtMddr3F9Vbyp4q6nl5+Xlqk+Xv7YQt61dnett1sa+WZQUmopytzXA21PJazipTcYauCk7N+ROw5iA7OmDNvx4UY2NGObY4x51JTq2f75Rm01Jvs2baXe2+4+PRjx9q1mq1YmXZLIhdOVU4TrrjKuyCm3KLrimtnBpp9m2/cWRzWlKajG7vt7yeXZ7EQpynOy0q9m92uqLDAIG1NCdWan0rTmtIz+r35vFru7v5eR7938Xc2k8GtKuWPbC7l6uVc4yUmlHlaalu33Lbcgrq8GuqZPhZaasZNXs07e8rf0IZUKtapU9l1sLKot+STXWL7bVbX2yc+lDUq8fS8yc2knTZCKf7+U4OMEl5d5SX9L8hWK+Tw8uTxrI2Oi5uq2MlKMuSzeDTXY00k/tm+6Vo+r8Tzhdk2qvDi9otdla5G4y6qjmcnZvum5v2u3bY5TA4txhOhGN5Nvy8z0LPMtjKrSxc5KNPTG/XbeyXifTwctPsnqF2Rs1VTS629uxzsnFxW/wDJhJ+95yxKXlI90nV9D0CHxPWRCuyjbrVJPrJTlGM+abjHaUpRcX2e0uzbY93onaP9F1/0/wD2N5g5UsNSUJSVzlM07/HVnVpwlpsktnwXBm6bnbc1fRON9LzblRj5VdlzUpKCUt9oreT7Ul2I2fY2VOpGavFprwNJVpTpu000+j2O4AJCw1PpU9aNQ+tb/wA1IrDwv8vYX15i/nqyz/Sp60ah9a3/AJqRV/hiSjnYcpNJLLxm23skldBttvuWxyWd/wDJp/7zPQ+yn/Cr+X6Fwcbbkj/JRhMfirT7c2eBC7my69+erq7Fy7JN+nceV7JruZ5dY4xwcPHdlt9aag2oJqcpNeSMINym/cId6JdQeXxJbkyWzujkTS+djKUHGH2o7L7RuKmNjGUKcWm5bHL4bKqlSFSrJNRgm7+J8/CA0OOPqMciEeWGVBuWy2XWVtRk+zyuEov/AFW/KWHwO2qvzckf6jV+kXgevWaqYztlQ6ZSlGUYKTalHla2bWy7n9o1zpD4j1zTsirHwMPxmhYsZyu8Wvu2s55wlDmqmor0sIS5e/03topTpejznOS9V9C+viHjaVKlq9aCa3225bm6T4O02eT47LEpeRvzdY4LfmX79ruc+z1W25sCXcVwn0x6xFuMq8SEk3GSdNycWns01K3safkJ+4czJX4uPdPbnnVXKey2XNJRlLZPuW7JsHiaNVtU1b5GPmOX4nDxjKs7p8N77Hq1T9ys/kv+plQ+EfXHA+vcX9JrLeal+5T/AJL/AKmVD4R9ccD69xf0ms1uc/i0vzfqbzsv+BX/AC/uXAqfYvcRjeKNRhiYl99j2hXXOT9yMW9l529tkvbR7Zz5anLbdxjvt59luVk4/wCNtR1GtQuqljY3Mn1SjNJyT5oc05r07W26SSXZvt2LbPxuLVCld7tmnyfK5Y3EWTSSavfp4G4+DLNyt1KT72sZv3XLJbJyKncBcT5+mO54VUbet6vrN67LNuXm5durktt95d+/ciTuj3pE1bN1GjFyseuumzrOecaL4SThXOaSlObit3Fd685h5Xj4ypqDvqv7uJtO0OTVKdec1p0pLnvZJciY37gOtklFbvs28pEXG/S1yZDw9MpV93P1bte8q3ZvtyQhBqVr37N90t12bm1r4mFKN5O31ZzmGwVXEStBcOL5JeLJiOpCF+scX0UvLsx6p1qPNKtQjKcIrt3cIWKTe3ek2+/sWxsvRp0mVajPxa+Cx8rbeK5+aFu2/M4N9qlst+V9u3c3s9oqeOhKSi04t9djJqZTVjBzi1NR46Xe3mSTE7Gs9IOp5mJgW34NPX5EXWoV9XZampWRjJ9XU1J7RbfY+zYhnU+ljXaJcl+PRRNpNQsx74TcXuk1GdnbHdPt9pjE42FD71y3BZVVxf4dvJvcsUjlIibT+k106JTnZUY2ZVs7oQqrTgrJRtmo9+/JFQgm5dvk8rRp76YNXqv3ux6YwbjLqJV2VzcH2rllKbabW3pmmvaI5ZpRik23v+pkUshxNWUlGK9W6+HGxYnYwOucJ6fnTjZk4tVtkFtGc4Lfb51vvlH2nujU+K+Nc74nYWZpWM8iWQ95wdVtzrjyNtSVMk4tTXLu+wj7L6Xdcom676MamS74W498Jx37t4ztTXvFMTjqUF66utvIYLKcVVl/KaUldWvZ7cSwmPTGEVGCUYxW0YxSSiktkkl2JJeQ+xqnRdrt2pabTl5ChG2btUlCLjBcl1lcdlKUmvSxXlMP0ocQazhWVLTcSORXKuU7ZypstcZJ7JLq7I+Tt27WZXpEI0lO2zSexr/RajrOk2tSbW/UkRo6orrp3S1qksmmFzohW764WxVU4yUeeKmt5zbjLl5vcNs4z6XXTb4tp1CvtXpZ2S53CNib5oRhDaVjW3a00ux95jQzSlJN34fE2Nbs/iqcorSnqV78reZMHlDK443TLq1dvyemicU/T1KFtc154qTm+V+6mTZwRxRj6rjRvp3Xa42Vy25q7I7c0JbeXtTXnTTJMPj6VZuMXuuT2IMbk+IwsVOa9V81ujYtjmKOr8pGXSV0oVabN4uNBX5SXpt3tXTut0ptdsp7bPlW3Y1u12b5FfEQoxvN2Rh4XB1cTNQpq7/TqyTZIPzkEYfEXF2ZUsnHx49S1uvkdVfNHzxjdbzSi/I/L5Nz5YnTFm0V205WIvGYJxi1z1RUu7a2ue8obd/Y+3bujvusL+KU47yTS6vmbNZDWk2qbjKS4pNNrzJ85juVm9ETXsfOj4zNt80ZSxpQrUJ1y5Wo1uEebdxktmm+3v37UWTxpbxj7iJ8LjIYi+lNNdTFx+WzwmnW09SvtuegAGaa4AAAAAAAAAAAAAAAAAAAAAAAAAAAAAAAAAAAAAAAAAAAAAAAA6sifoz+bDjX/s9/3fYSwyJ+jP5sONf+z3/d9hPR+7Py/VEcvvIloAEBIAAAAAAddyHfCL4m1jSK8PL0q/frLLVdiTqonVKjFxcrPyLFZOHWRl1GPPdc220exb98xMivpc1rTatV4eozsrFqXjebZdXkW1RisezR9SxlO5WPaNM7LY1py2Um2u3tJsM0pptXVns/Isq/d42MjxtxvyaBXqWnSjLI1GvEq0xTSaeRnuEaZSi018jjOVsk+5UT37tjVdE4j1m7gyzXJ6nLx5YmTnwccXDVUVjwvUcbkdT3rk4puXquxbNLdPV+jvCuwsjL03U7Y0aXwjZnTx8nIsVdVr1aPLp1ls5tRlOvGvzOzfseZUu9RPRw9r+DDo3shPLxoz+Jmbh8juqU/G7o5TqxuTm36+UU2od7Sb22W5mOnCMLJJ+st/B32INUpPd8jecnjXLwNE0qyU/ilq+sPFqw4WQrx6pZOVVCyTsVEFyYtUXKTfbLsS37d17tf0ziSnAvuxNWqytQVE5RxrMGiGJKzkb5Mfq/k1c0/UOydibUVJbNtaXr9M8nRuFta0xLP+IcsW3Ix8WUbbJ47xYU5sK1Bvmya9l8j7/VeVbOQMbpT0K6qE8fPqyrrF8jwsfe7UJzfdX4jH5NXPfsfPGKXlaXaY81ZJxS3bvt/tiSN3dNmvdIvEWqRu4enhZVmBXq99GNfj34tM7Md20TyOZwvrVkb16iUZNJci7E9znifiHV9DzdHjdn0anj6pqNGnTxpYtdGXW7udyyqLKLNp1V7Q5oyg9uZem9MtsT046lh25HC1GpWY+JZLUa8nLxZZkFLHqli3xcp3RlBqpXek6xbRbT2Z5dJwsPhbXpS1FVT0/VJTnpWs5T6y3AvlBddpt+VbJ9VRKuKdc91uotNy2bjKlBwXC9ntbjv1LN9T3N0yuJc3UtXytJ0u2GLTptdL1HUJVK+zr8mLnTi4dU/kfOoLmnZPmUfU8u/afLUdez9DztOp1DKWoafqmTHAryrKKsfKxM2cZSoVvi6jTfRbySjuoQlFrf0yMRoOZToGu6xbn2KnTdbli52FqU2lhq6NTrvxr8n1FM3vCcHNqMo77PfsPj0g6hTxLnaLp2k2wzMfE1PH1TUM/GlG7Dx6cRTcMfxmtut5NspbKEW2tt3siPTHUkvu24+79y67s3fcyebxRk5mv52jw1OrSPEq8OVEOootytQeRWrbLa5Ze9fUQbVe1cXLm5m2uxHv4Us1+Vuq4OpZEN668SzTtUw8RVVWQsVsLk6rnZWsiNlCcq3KWyvi1smttc4o1DQtQ1HUtM4nw8OuOFbVHB1DIrlj0WY9+LRk9StQlJdTkxnZPeCnBS2i0nszr0XXU4WZqiwtRtyeGKMah1ZWZk9bi4+Z1lkbqMTNue12Mq+rbak4qUkt9+++0bbKzsuK+j8ehbd34nz4B1vVs3SMbUsziF4ssrLswa4R07Esi8h6jPT8aKShzNzmq9+5LmbbSTZl+J8/iDB4bz8nIyo16npksq1ZUKcZ06hjV89lM+olGSoi6pwi49klOiXbs93GfRrDhi7RtNuzNU0/C1LA1meoc9mXWrn4tq118a3ju6LlC3G2ipJPbnjLaW2z3Xj/jzH1PhfX8uNlVWBZHIwdLutfUz1Cccdc86o2Ncylf10IRS5mqJNokqJd7ZJab9EufzVii+7dvc92t6jrmFob1pa1j2SpwoZtmPl4NMaLl1KteNGymyE67JycYRlu920tt3uvHxHxbq0LOG9SWZPC0nWp4tOXjPFxp2YN+VjRsx0r7a2+rnbzRlKa9L3+VJa1qnD2JhY+k8R41deq6RRi0VaphysedVTBKHNqGJCc5QV9NsV1lfdtX3RcXJSpxvg4fE/D+XThZFGRXk0OWJfTZGcIZVPLbjvni/SSjbGCkuxpOSexbNwjJPZptpuyVvC3gVWpp77nfpGy85XaVi6dmyxcjNy5VzUaMe+Lxaq3flXzV8Hy8ldahHla3nkw3T8mE03P1VcVWaXZqlluFTpdepcksXCjOc7MqyjqJWQpTVSjHfdbS9s83QPqmTrn/LWdVOuzHw6dJphNKPNfUoWatkqvb0itylVWl5Fhe2zy4Wv4MuPMuEczGc/iHVhcqur3eXVn2OeKvTduRFPd1r0y2fZ2MhUbNxdtl4dSrcnZ34mb0LXtR1/JzZaflR07ScHJswo5MKK8jLzsqnZZE6vGFKmjFhJ8qfJNzab3j3GS0eetQ1DMwMy/rca3Ahbp2o0Yka3VbXZZXkRyVJSpeV8mx5Rj2RlGltR9XtpvRhrOPwzbnaLrNsMGPj+Tl6dnZD6nEzcTJn1iSyZ/IoZEHzKUJST7VtvtuSFp3GWLlzsniuNun0U2WZGqOxV4cJwcXGum2a5MlcnWTnZCXJBQim25bK2atK0VtyZct1e+5HXA2s6vl4eVl5vELxo0apfp0XDTsOcZShlxxKJOKg5c05zrWy7Fv37Js33hjUc3Bw82Wv5NG2FfNR1JxrxqcnEnCq2q51KTVM4ytlS4+WVPZzbpuFOBo8M5WFl2Zup6biZsOIcjPpuszKVb1ePqcciqUKZWR54W1QlBS2fZa2t9kbpxTxfg69pOqTsqyJ6JRn4GHXqGI5RyOujdTOzPphKDcsei+zGS2jLm6u17NdinrRi5WXC++yVvLqWQlZX5kicJ8c6RqspQ07Px8qcYuyUKpfJIwjKMXKUGlKMeacVu15TZiDuAdVtlxDiU+PYHEMPEcuuOqYijXnabVvRa6NRjizePZVbOqpR5lGfPGT2j2805GHWhGMrLh/vl9CWm3JXZ2ABYSAAAAAAAAAES/+sP8A7I/+cktES/8ArD/7I/8AnJLRLU5eRZDmAARF4AAB8ru5lSOkn13zf5z/AHItvd3MqT0k+vGb/Pf/AEo5ztD+FH8x3HYf/kz/ACm7cB9FdOo4FOVPItqnZGW8Y9XKCak49m63a9KvKa3xvwTfos1ZONeXjzfLGyUZwjGfqkrIQmmt0ns1Jp7PuJw6FPWXD/kz/OSOvTRgRv0fL3XbXBWp+VOpqzdfai17jZWWX05YVSirS03v7iGOc1o5hKnN3i5uNtuF7ceJr3QnreBkxnXViVYuTWk7IxjHeyLeysjPbecd9k092m137pkrsqZ0W6q8PVsOzfaE7FRZ5nG70q5vaU3B/wCoi0Wp6xjYkY2ZWRTjQm+WMrrIVRctm9lKbSctk3t7RNlGIVSj61k4uxhdpcvdDFWV2pK64sj3wh9elj4MMWuXLPMlKMmns+qglKzb3W4RftSka14OOiQssyc2cU3W401tr1O6cptebdcnb7vnHhLemt0+ae8HDI5ZLtXfjvdNdj3T/oMz4M0v8iy15Vltv3HRQl/UzGb73MLS4RWxsVHucl1Q4zlu/f8A6iXLKVKO0kvMVU6Q8N6brGQsdurq7Y3UOPZyuUIy2XmipuS28yLYFX+naaes27d8aq4y93tl/VJE+eJRpxkuKktzH7INzxE6cvuyg7osJwXqqzsDGydkutphKUe9Rk4rmX2pbr7RCHhF0KOfjy29NKlxb86jPdL35S98lXoVg46LhqXe4zkv5M7JTj/8MkRj4Sfy7jfzE/7ZZmTcsGpPi0iuRRVPNXCPBOS9yuSL0B+suN/LyP0i03XVILqp9n71/wBRpHQD6yY38vI/SbTd9SaVVj8nK/tbI2GH/wCLH8v6GkzD/nT/ADv6lS+FYparhJdyz6El7SvjsW6xvUr3ConCMlLVcJruedQ17nXRZbvH9SvcRrsj+7P8xv8Atf8AfpfkRFHhI0L4n0NJfLdfk/6K8wfgzUqVupbpP0uJ/wAc2Dwk/W6n67r/ADdxgfBg/ddS/k4n/iCKrBfxCPkSUJv+Bz3/ALl9UTjCiK7ope4kLoJ9+xhOKeKcHTY1yzbupjbJqD6uyzmcUm+yqLa7Gu/zmZ5k4+73HQXi7xT3XI4y01aTvZ8yqfSvFLWc9JbLrYPs/jU1Sb+2239ss5wf8pY/81X/AGIlZulz16z/AOcq/MVFmuEvlPH/AJmv+xE0eU/8ip5nZdo3/wDRYf8AL+iOOJalLGu3W65JJ+3unuVI0HBllZNONB8s7rY1qXb6VSfLNvyuPK5bryrct5xD8r3fzcv6mVf6J1/y1g/zs/6KrGi3OaademnzZf2Xqyhha8lxUb/Jlk+GeHsbBx4UU1RjCMUuyK3k9u1yffKT722Q34RGgU0XY2VVBQlfzxt5UknKGzhN7fv2nJN+VRj5ifo+chzwm/3HB/nZ/wBgys1oQWGdlwsans/iKjzCLcn6zd/gzJ+DlnSs02dUnuqciyMPajJQs2+6sk/tm19J2ROnSc6ypuM1RYlJd8d4tOS8zSe/2jSfBn+Ucv67l+ZoJR1vErvototSddlcoTi+5xknGS95smwqlLCLfdxIMy008wk7bKd7e+5WHocx67dZxVYk+TnlGL7nJQez+0+33YotJdWtttuzZ/1FT8xLR9TVmLkQyfFrnKE4vf0u7jKuxpKPO4uUJbNrtfd3KS8rpsplRy14t7yJR2Sbh1Km12enUuZrd/Opvbybmty2tTpQnCf3rvxN72hwtTFVadWl91xS6W9z4EXcbUxo1TMjS9lDJslXy9nI+fnSj5uWT2/1SyvCmi4qVOZ4rVXlW1RlOyNVatblGLlzTit22+9+XYhXgXo+ztUyvG82FlOPO2VtvWxcLL5SlzNRrkt4wk32tpLZ9m/ksbTBQiorsSSSJ8pwslKdScbJu6Ri9o8dBwp0actUoxtJrh5HpAB0ByB4su+NUJWTajGEXKTfYlst22/IkkyuXFHFGbxHnV4WNKVePOxxqr7YqcI7uVt23bJKMW9u6O3Zu+1y9035MqtEzHHfearqbXzttkKpb+04za+2Qv0G5ldWr1OzZdZXOuLfkm9prt87UJL7ZoMyxDdeFK9ovidfkOBisLVxWnVKF1FcbO17mU6SujSOm4VOTjOdrqfLkyk921JrlsUUtoxi900vJJd+z3+fQVxcsLK8TyJbUZMkotv0td72S9xT7E/bUfbLB6pg15FM6bIqddsJRlGS3jKMk0015mmyqvSDwvbpOa6Zbyok3Oi35+G/Ym/4SHYmvcflRh43DPC1VXpq0eZssnx0czoTweIl6z3i3+nkT7xX0d6XqFl2XbVPr7opytjdavUQUYNQ5+RNRjH975O3cgXhvhWWfqk8Gqb6uq21W2pb7UV2OHOl3c0vSr/WRu2l9K0o6PZVa3LOrSoqk1vzqS2jdJ+eMU+bzyX8Y3XoP4Wlg4XX3x2ycvlssUvVRh3wrflT2k2155bPuJpQpYucNC24ya+jMKFbE5VTqRqN3+7BP6rwsZbhPo703TbI300z8YjFx62Vtkt+ZcsvSc3L2r+KbmjB2cU4Mc6OnO//ACuS3jTyWPs5HPtmo8q9LFvtZnO031CEIrTBJJdDksRUqVJaqjbb3u+h9AATkBqfSl606h9a3/mpFWdHxI3ZOPS24xuuqqbW3MozsjBtb9m6Ui0/Smv+Sc/61v8Azcir/CXy/g/XmL+egcpniUsRTT/3c9D7JTcMFXkuNv0JT13oWiqJ2Y2TOVqjzKNsYcspLybwS5d+7fZmt9BVUq9bVc4uM4V3wkn3xlGcYyi/bTTLI0R3gvNsuwjXh3gXKxuIcjUfkKxLeslFKUus5rFGT3i47L0/N5TOqZbFVYVILhY1GHz2pKhVo1Xe8Xbgt+hKkT52RXmPqjpPuZupbo5RFTuliKWtZ6SSXWVvs87oqk37rbb+2Wa4M+Ucb+Zq/sRKz9Lvr1n/AM5X+j0lmeDvlLG/ma/7ETnsp/5FTzO07Rv/AOiw/wCX9Ee7Uf3Kf8mX9TKhcIeuWB9e4v56st7qP7lP+TL+plReDvXLA+vcb89EZ1+LT/N+xb2X/AxH5P3LfUL0q/koiXwkqV4jj9kV/ldfk/6K8lrH9Sv5KIr8JNf8n0/Xdf5u42WYJejS/KaTJm1jYfmRr3gy0xlZqG6T9Li9/wD7cnOFEV3Rj7xB/gwrazUVt+8xP+OSvxRxVg6ZGuWbd1KtbjW+rss5nFJvsri2ux+Ux8q0xw0ZPbxfmZfaTXLMZxjd8NvcjWenTiCWHprhW3G3JmqYSi2pRjJSlKS27U+SLW/kckRv4POnU3Zt2RY05Y1cOr5ttua5zi5r+Nywa/1mbH4S2/U4Ul6nrJr/AFnW+X+hSNC6MOELdVnkKrMeK6er3UYSnzKXNs+ycNtuV+f1XkNdi6s5Y2KUdVuC4G+y3DUo5NOUpaHJ7ytfna225Zu2+qSacobbd3MirPHTWDreTPDko9TkxtrcdtuaUIWS2S7EuaUlt7WxI8ehvL+nNn+xs+HPLLoNsbbepRbb3beK9233tvr+1mTjqdeuo6Y6Wne90YGT18Fg5TcqupSi46dL58yX+GdQjl4eNfHba6muxLzc8FLb7W+xEXhMUJS0+SS3/wAoW679vkT29zclbgvRpYGFRiSt65019X1nJyc22+3pOaXL2bLvfcRX4Tv/AO3/APvH/CJ8yi/RHq42Rhdn3H+JxUH6up/CzNZ6INP+KOfh12Jyo0+ud7jJbw62dtkoPbztuEv/AGRsHSh0Z6hlajZk4ahOu9V8yclDqpRhGD3Uu+tqKfpd32vs7Ee/waMFdRl5O3ppWxq3/i11xlsva3tf/wCImVkOBwEKuHip89/2MrOM2qYbMJyo8rxty34mv8C6F4hp+NiNqbqhtOXbs5yblNx37eXmb238mxDHhGUxWo472W8sfZvytKyW39b98sUV28JBf8oY/wDMP84SZxTjDDaVwViHszVlUzBSk93d/EkjwfvWPG/l5H6Rab7kr0r9xmheD96x438vI/SLTfr/AFL9xmdhf+PH8q+hqMz/AOZU/O/qVC47ilqmektl41c9l7c5N/0ssL0VcJVYOHW5wi8i6EbLpuKc3KS5uTm7+SG/Kl3dm/e2V+45j/ytnfXdn9tltNPXyOH8iH9Rp8powlXqSa3TsdR2kxU44ShTi9nG791iLfCA0KqWA8yNcVZROvaSjHdxnZGDTl5YenUu3ucTXPBpzJLIzKN3yShVPl8ilFuO68zaa95eY3/p89Y8r2pY/wCk1Ea+DY/8vyPrdfnIl+IioY6DjzRHhJurk1RT30y2+RYHKl6Sb8yZUHGm8rUYO7td+bDrebt9Xeuff7UmXBthumVf6WtFqwNRsli3xbsm7XTGXySiyTdjfpVtGPN2xTaa5l2NLclzunJqE+SfAg7J1oRnUpv7042T6Msvp9KVUEktlFJJLZebbZFcun3Frr1h8iSlPHrtlsu+fNZDd+3yQj7xtOhdNkIY0YZONdK+MEpOrq+rcktt3zzTjv3tJS23NTq0LVeJM6eXKl1U2OK6yxSVdVS2UVU2k7ntu/S9jbbfLuRY+ca9GMKavJ29xNk1GeBxcqtdqMYp8+N+FiT+h7SqMvS8HKyceqy+jrKqrbaoTtjGm6cIcs5LmSUYrbzbbkmJGM4Y0mvBxaMWrfkqrjBN972XbOX8Zvdv22zKNG6wtHu6aT42VzlsfiO+rykvuuTaXRNn0ABlGGAAAAAAAAAAAAAAAAAAAAAAAAAAAAAAAAAAAAAAAAAAAAAAAAdWRP0ZfNhxr/2e/wC77CWGRP0ZfNhxr/2e/wC77Cej92fl+qI5cUS0ACAkAAAAAABxscgA42OOVHYAHGx8o0wUnJRipPvkopSfuvvZ9gLg42GxyAD5yimtmt0+zZ9qZxXXGKUYpRS7lFJJe4kfUC4PlOpNNNJp9jTW6a8zXlOVWl2LsXmR9ALsHXkXmOeU5AuDjY5AABxscgA+dlcZLaUVJeZpNe8xCCSSS2SWyS7kvMfQC4OvIvMc8pyBcHyjBLfZJbvd7Lbd+d+d9h9QAAAAAAAAAAAAACJf/WH/ANkf/OSWiJf/AFh/9kf/ADklolqcvIshzAAIi8AAAwGfxNgUznVbl48LILacJW1qUXtvs4uW6ez8pV3jzLqv1PNuplGVc7d4yj2xklFLeL7pR3T7V2MnXifokwc/LuzJ35UbL5KcownSoJqKj6VSqbS2iu9sxj6DsD6JzPu6PgTQZlhK+KWiyST4nX5BmOEwEnUk25ONrW2R7eiPijBr0nErsy8eqVcZRlGy2uDT529nGUk12Pf209zc9crrz8C+Fc4WV5FFkYShJShJShKO8ZRbTXb3o0GPQbp/0Tmfd0/BEicN6RXg4tGJW5yrogq4ysac3Fdzk4xSb9xIzMNTrKmqU0klG10abHVaLrOtSbbcnKzXjcqA42U2tNSrtqns0+yULIS7U/NJSX9BI3FfE/xfek4NUJqUrIdekvUTajCSi/30Yxc235tvbJJ4x6KsDULpZG88ayfbZKrk5ZS88ozi1zPytbb+Xc9XAvRvg6XJ3Q6y7I2aVtzTlCL71GMUox38r7X3rfbsNTh8sr0qjjf1WdNmHaDCYmjCbi+8hGy6Xasefpf4Vln6btRHfIx9rKorvlsmpRXtuDe3tqJGnQZxLDAy7sbIfVQvcVGU/Sxrtg5R5Jb+p5k2t35YJeUsdsR9xp0X4Oo2SvSlj3S7ZWVNJTfdvODTjJ+2tm/KzYYjASVRVqf3ly6mkwOaQ7iWGr30S3TXFP8AY2jVtexsamV1t0IQit93Jbd26S+eb8iXb5is2Yr9d1e10RaeVb6VtNquqEYwVktu5KMYt+32LtaJLx+g+vmXXZ9k60+yMK1BqPlSlKUkn7fKSNwpwlhabW4YtSi5ds5tuVk355Sl2v3O5b9mxbUw9bFOKqJRine3Umw2Nw+XxlKjJznJWvaySMjoeDHGopx61tXVXGuK80YxUV/QiIfCU0myXimXGLcIdZVY0m+XncXW3t3JtSW78rivKTZ2Hl1XT6sqqdN0I2VzTjOMkpRlF96aZnYrCKrRdPh0NXl2YvDYqNe17PfxvxIN6FuP8fCx5YWbZ1ajKU6ZuLcOWWzlCTit4yU+Z7vs7X29nbsPSB0lU20vA0qcsjMyPkalXF8tXN2NqTSUp8u+23Ytt21ts/pn9CeBOxzqvyKoSe7gpVzUfajKcG9v5TkbPwj0f6fpu8qanK5x5ZX2y57HHypPZRgn5VFLfymuoYbFRp902lFbX52NxjMZl863pEFJyb1aXZK/iVt4ctji6ljTukoRoy63a3vtCMLo8zfl2Wzf2i1+ka3iZOyx76bWoqTVVsJtRfYm1FvZb+U0DUuhjBuutulkZcXdbZa4xnSoxlZNzagnU2opvZbtmwcA9H+Lo9ltlFl9krYRhLrZVtbRe625IR2e5dluFq4duLS0t8SmfZlh8cozi2pRja3Iw/hD4k7dJcoJvqbq7JbJv0vbBt7dyXOu32iPOgXiLFwLsmGVbGlXQr5bJyUI81bnupTl2JtT3W/zrLC5+NC6E6rIxnXZFxlGXapRa2kmn5Gm0RjqnQngW2SnVdkUxk9+qjKuUIrzLng5be7JlcZhKnfxrU92trFmW5nQWEnhK90pO6aNd461evXtY0/DxH1tFFjnZODbg05QlNp+aMI9ku5ubRMeoaxi4ihHIvqplKL5Y2WQg5KPe4qTW6W67jD8DcD4WkQl1EZOySSndY1KyaXalvslGPtRSXYvMfPjzgLH1idM77r63QpqPVOvZqxxb5usrlv6hd2xlUqVWMZSaTlLlyNfXrUKk4002oQ589+ZXrpIzqsnVcy+myNlVk48s4tShLlrrg3Frscd4vtXeWK4M4mwLMfGqhl0Ox1whGvrYc7kkk0o83M5bprbbfsZqL6DdP8AonN+7p+BMjw30Q4OFlUZUMjKlOiXPGMp08raTXplGpNrt8jRr8Fg69GrKbS9Zm5zXMcHisNCnFyTpqy247GxcXcS4OPVkVW5FMLIVy5q5WVqe7g5RXK5buTTWy27d0Vv6OM2rH1bDtunGFUJ7SlJpRjzQsgnJvsUd5LtfcTrxd0VYWp5dmZZfkwssUVKNcquTaMIwWynXJ90V5TD+gbg/RWZ93T8EVx2Er1qsZpK0WUynMcJhcPUpylK9SNntw2JEwNew7a7LK8micKI810o3VyjVHaT5rGpbQjtGT3e3qX5iHPCE13FyYYlWPfXa4zlOXVzhNRi4uKcnFtJt77L2mb9wx0a4mDjZ2LC7IlDOp6mxzlW5QjyWx3g41pKW1svVJ9yMBLoM0/t/wAqzfa9PT8ET4ylXq0NCW7MHK8RhcLiu9k21F7bcduZivB817ExcTKryL6qZSyOfayyEG4uqtJrma3W8ZLs8xIHSjkWPRsyzFk5SlTzRlU9965bc84OPf6Rye6NUXQbgfRWZ93T8EbZxjq9GiaXzSi7Y1QhRVCTSlZLblgpSUdlulu3t3J9nkKUKdWlh3CpZJRtcYytRxGMVWjeTlJPS/dsQR0dcTafp/WPLw1lWylzV2qFUpwjyRjyJW7cqTTe8e/m7e5G9U9LemQ9NHAui/nlXQv6VYadwhwpbxBk3WqFOHRCW03VBuLcvTKuMXPZSUWm2tkt12Pc370DcPbtysrm8rTo2951Nr3zVYaGKa/lpOPV2Oix9TLVP+c5KbteKbstj26N0x6ZbNQsjdjRbS5rK4uC37FvKqctl7bWxJWJkwtjGdcozhNKUZxacZRfammuxpryldukroy+JeN43Xe7aoyhGcZxUZxUpqMWpxe0lzSittltvv2m++Dfk3WabbCzd105M4VN79kXCubhHfyKcpP3WzaYLGVu97mpHe3FGkzXLcL6OsThpNxvZp/7clkAG7OXNc470X4o4GRivZdbW1FtbqM01KEmvLtKMX9oqjmY+RhZUq5qdORRavadcotSi4vy9qUk12NbMuYajxpwHg6qt763G1LaF1bSsivNvs1Ne1JNLt22NLmmXOulOm7SR0vZ/PFgtVKqtVOXH9zWuBulnCvohHOsWNkRio2KacapbJJzhLtSTf72TTXb3pbmI6Y+L9Gy8N012rIv9VVKuLahNdzlNrl5Wt00t3tv7TT0Coc26zpKG/qXVFy28np1JL+g2jhLoq03AnG2cZ5N0WnGdzTjCS7eaMIpQT322bTa27GQxhiqtPuqkUla12T1K2W0Kyr0JSbTvpWyv0v0K48l2PbCU4Tqsjy2VqyOz9UnGfJOO0ovZNbpp+2THw/00VRoUMrHmrYx2UqUpQlJeZSkpRb7OztXf2kjcXcGYWpVqF9K3in1dsPSzr37+WW3d3dj3T8xHy6C6us38ds6rf1PVw6z3Ob1O+3l5DFp5bicLN9004s2lfPMvzGmvSouM48LGN6KbbtX17I1ScGoQg9u/aLko11Q322bVcZt+327dpPmxguEuG8bTMeOPiw5IpuUm3zTsm9t5zk+2UnsvcSSWySRnE0b7B0JU4es7ye7OOzLFQr1bwVopWS8Ed2eTLyIVQlZZKMYQTlOUmoxhGKblKUn2Rikm235j1GO1rT4ZWPfjWOShkVWUzcWlJQtg4ScW00pbSe26ZlO9nbiYMUm1fgaX0lcV4E9LzYV5ePZKzHtjCMLa5ucpVtRjFRk3JttdxXfhu+FeZi2SkowryKJyb7owhZCUm/aSTZOT6DtO+icz7uj4E6y6DdP+iMz7uj4E5zGYGvXqxnZeqdrlOa4LB0J0rt6+dvA3jG4v0zlhvm4valt8np7d/N6btNjTIpx+hHToSjJZOZvGSkt50bbp7rf5D3dhKkIbLZeQ3eGdTfWrHKYuNFP+U2+PHY+jMVq+t4uLyrIvpqc03BWWQg5KO27ipNbpbru85lEaZx/wFj6zKiWRbdW6FZGPVOtJqbg5b9ZCXb8jXdt5SSq5qL0K7IcOoSmu8bUfArz0l59WTquZdVZGyqdkFCcWpQly0wi2muxx5ovtXeWJ4L4mwLMbFqjl47tdUYRq62HWOSik0o83NzbprbbfsZqcug3T/onN+7o+BMlw50RYWFk05UcjKlOmXPGMp0cja37JKNKe3b5GjSYLCV6NWU2l6zOrzXMcHisNTpRck6astuOxs+v8S4OMrq7cqiFsI7yrldBTjzRUlvFy3TcWmlt27rzlW+FsiFWoYVk5RjXDKonKcntGMY3RlJyb7opJvf2if8AinoowdQzLsyy/Khbd1fNGE61WuWuFUeVSrcl6WC72+1sxkeg3A+icv7uj4Erj8JXr1IySVostyfMcHhKNSE3JyqRs9uH+3JC0fXcTKfV4+TRbOMeaUK7a5zUexczjFtqO7S39tGleERiTs0nngm3RdXOWyb2jtKLb27kuddpk+A+jfF0i+eRTdkWTsrdbVsq3FRbjLdclcXzbxXl85uGoYsL4Tqsip1zi4yjJbxlGSakmvKmm0bGVKdag4TVm1Y0NLEU8Nio1KbclGSe5XvoF4lxMC/LhlWQqV0K3CyxqEeapz5lKUuxNqe63+dZlOONVhr+s6fh4b62mixzssju4NOUJWNPzKENlLubm0bFqfQlgW2OdV19MJPfqoyhKMV5oc8G0vdbNr4I4HwtKi+ojKVs9lO6x81kku1LuSjH2opLsW++xr8Lg68YKlKyine/M3uPzLCTqSxMLuclaz4J2tc83Spww9S02dMNuur5baN3susgn2N+Tmi5R/1t/IQd0W8SfEfUJdfGUKrPkWRFp88JRe8ZuO27cJcya7/TPy7FpjR+NOjjT9Tl1s4ypu/hamoylt3KSacZru71v2bbomxWAlKaq03aUTEyvN4U6M8PXTcJ9OKZncXijBsrV0MqmVTSfOpw5e3ztS7H7TIv6ReN7NStq0vRpysds49bfS5RS5ZKSULY+pgmt5TXZskk32najoKrUt5505Q+dVUYy+6cmv8A4SQuC+CsHSoNY9T6ySSndZLnsnt29su6Md/JFJe0XpYip6s0orqiGXoVB66bdSXJNWS8+p69K5cHDphlZDfUVwjZkZFi5pSbS3nOb8spbLd+VLtIb8IrVsXJlhRourtcOuclXYp8qkoJOXI3tvtLbfzMmbi/QatSw7cK6VkK7er3lU0prkshYuVyjJL00F3p9m5oHoHYH0Vmfd0fAjH0K1Wk6cErNLiXZLi6GGxCr1W003suG6Mb4PmvYmNhZFd99NU3kSs5bLIQlyyrqimlJrdbxkt186TBp+fVkVqymyFlb3SnXKM4trsa5otrdMjD0DcDy5OZ93R8Eb9wZw9TpeJDDpnZOuDlJStcXN88nJ7uMYrvfmL8vhVpQVOcVZLiRZtWw9erKrSbvJ3sz36nqVGNFTyLq6YOSipWyjXFyabUVKTSctk3t7TK7dPGrY2VqFTxra7VXRyylXNTjHeTaXNFtc2zT29wnPjrhWnV8aOPfO2uMbY2xlU4KXNFSilvOMlttJ+TzGkLoOwPonM+7p+CIcyoVa8XTgtupkZDi8PhKqrVW7q+yPp0KcSYNGk0U3ZWPTZCd/NG26uuS5rpyjupyT7Yyi9/bJC1vV8XFUfGL6q3OMnDrLIQclHbmcVJrdLdb7edEdegdp/0Tmbfy6PgjZ+POAsbV/F+vtvr8WjYodTKC36zq+bm54S3/c1ttt3skwyrU6OhxV0rIx8bPDVcT3kZPTKTb23V9yuPF2VXdqWXdCanXPJsnCUe2MoubacX5U15S0HD/EeDkxrhVk02TcN1CNsJScUu18sZb7LfzGhvoOwvJlZn250fAGe4N6L8LS8lZNV2RZZ1c6+W2VbhtPbd7Qri9+zzmJgcJXoVZSklaTubXOMwweKo04Qcr042W3ExPTfxJh2aRk49eTVO2U6I8kLISnvC+Ep7xjJvsjGW/uEf9A2q4+Nn3dfbCtWU8sZSmoxlJSUmlKTS5tt3t7TJA1HoX0+62215OWpW2Tskozo5VKcnJpb0N7bs+PoG4Hkys3/aUfAlK+FxE8Qq1l6vIuwmYYKlgp4duV5u97cHsSQs6u/HlbjWQti4y5Zwkpxk47rbmi2ns1t9plYOFNaoxM2y/UseWTOUp8ysSc67ufebcLOxy3Ul27NdpYrTNPxtC0x1qdksfFhdbKdm07HFud0/URSfe0kl5iB5V2cR6pKONj0YqblKVkYtzUE0nO1xko22NuK7En29+ybGaObcLfe9nkU7PKku81p93befBr/5Nvr6WdLi04YFy27vkdC29zazsMrp/TVp7ko2UZFMX+/ddcor3eSbl7yZ8MfoNxeXazLyJS8rh1UV70q5Ne+Yji7ochjY87sPJslKCcuruUGpcqbcYygo8kml2b7rfzd6htjacdVo+Wxk2yitJU9UrvZN3Jm0LWMfOqjfjWxtrfdKL83emn2xkvKmk0ZRkAeDVk2+NZdKbdEqoWSW75Yzi+WDS7k3Fv3eReYsCbrBV3WpKbVmzl81wSwteVKMrpbp+DOwAM014AAAAAAAAAAAAAAAAAAAAAAAAAAAAAAAAAAAAAAAAAAAAAAAB1IZ1PhLinE13WdU0Wehyo1bxDmjqMs93Q8RxVjraGLBRjvOVr9VLdcnd2omXc4T/wBxWE3G9uDVvmWyina/Iin9sP6kfxyP2w/qR/HJLALu88EW6PEif9sP6kfxyP2w/qR/HJLAHeeCGjxIn/bD+pH8cj9sP6kfxySwB3ngho8SJ/2w/qR/HI/bD+pH8cksAd54IaPEif8AbD+pH8cj9sP6kfxySwB3ngho8SJ/2w/qR/HI/bD+pH8cksAd54IaPEif9sP6kfxyP2w/qR/HJLAHeeCGjxIn/bD+pH8cj9sP6kfxySwB3ngho8SJ/wBsP6kfxyP2w/qR/HJLAHeeCGjxIn/bD+pH8cj9sP6kfxySwB3ngho8SJ/2w/qR/HI/bD+pH8cksAd54IaPEif9sP6kfxyP2w/qR/HJLAHeeCGjxIn/AGw/qR/HI/bD+pH8cksAd54IaPEif9sP6kfxyP2w/qR/HJLAHeeCGjxIn/bD+pH8cj9sP6kfxySwB3ngho8SJ/2w/qR/HI/bD+pH8cksAd54IaPEif8AbD+pH8cj9sP6kfxySwB3ngho8SJ/2w/qR/HI/bD+pH8cksAd54IaPEif9sP6kfxyP2w/qR/HJLAHeeCGjxIl4C4T4h+OGet63PSPWmWmV16ZLM+ja8qE5QyofzybU/nPS97JaALJTcnui9JJWOwABUAAAAAAAAAAAAAAAAAAAAAAAAAAAAAAAAAAAAAAAAAA+aRq/SPwvDV8KeO5OElKNlU0t+ScU1FteWLUpJrzSZtKZzsR1KcakXFrZklKrKlNTi7NO5XDQcvWOF7La54juxpy55OKm6nslFzhdGLUW4qKcZr96u42ivptUltHT7pT+djKLW/m3S3/AKCYZ0wffFM6vGj85D3ka+ngalJaYSaj0e5t62aUaz1VaSlJ8ZJtfJEHajHWuKJxqljS0/T1JSm7E93t2pvnUZWteRKKjv3vsW0vcJ6FVp2NVi0r0la23e3NKTe8pyaXbKUm2/dMtXBLyHbYyKGFVNuTeqT5swsTjpVYqnFKMF/avr4s+oAMwwQAAAAAAAAAAAAAAAAAAAAAAAAAAAAAAAAAAAAAAAAAAAAAAAAAAAAAAAAAAADFa/pteXj3Y1ibrvrlVNJ7PlmnF7PyPt7yAZ6Fq3Dec8jHpllUSTi5wrc4zrbUuWcK+2qaaW0u7fyvdosgdJw38i+2YGJwca7UrtSjzNjgsxnh4yhZShLjFkM0dNnZtPT7lPywjNS7fL3xT7/aPJrPE2t69F4eFp88Wi2PLZbY5LeEuyXyScYqMWns1FSlsnsTa8SHzkfeRzCmK9Skix4OpJaZSbXwJfT6EXqp0kpLg229zVOjPgyvSMdwUusus5Xda1s5Sitkkv3ta3lsv4zflNx2OTjczqdKNOKilsjXVq0q03Obu2dwASEQAAAAAAAAAAAAAAAAAAAAAAAAAAAAAAAAAAAAAAAAAAAAAAAAAAAAAAAAAAAAAAAAAAAAAAAAAAAAAAAAAAAAAAAAAAAAAAAAAAAAAAAAAAAAAAAAAAAAAAAAAAAAAAAAAAAAAAAAAAAAAAAAAAAAAAAAAAAAAAAAAAAAAAAAAAAAAAAAAAAAAAAAAAAAAAAAAAAAAAAAAAAAAAAAAAAAAAAAAAAAAAAAAAAAAAAAAAAAAAAAAAAAAAAAAAAAAAAAAAAAAAAAAAAAAAAAAAAAAAAAAAAAAAAAAAAAAAAAAAAAAAAAAAAAAAAAAAAAAAAAAAAAAAAAAAAAAAAAAAAAAAAAAAAAAAAAAAAAAAAAAAAAAAAAAAAAAAAAAAAAAAAAAAAAAAAAAAAAAAAAAAAAAAAAAAAAAAAAAAAAAAAAAAAAAAAAAAAAAAAAAAAAAAAAAAAAAAAAAAAAAAAAAAAAAAAAAAAAAAAAAAAAAAAAAAAAAAAAAAAAAAAAAAAAAAAAAAAAAAAAAAAAAAAAAAAAAAAAAAAAAAAAAAAAAAAAAAAAAAAAAAAAAAAAAAAAAAAAAAAAAAAAAAAAAAAAAAAAAAAAAAAAAAAAAAAAAAAAAAAAAAAAAAAAAAAAAAAAAAAAAAAAAAAAAAAAAAAAAAAAAAAAAAAAAAAAAAAAAAAAAAAAAAAAAAAAAAAAAAAAAAAAAAAAAAAAAAAAAAAAAAAAAAAAAAAAAAAAAAAAAAAAAAAAAAAAAAAAAAAAAAAAAAAAAAAAAAAAAAAAAAAAAAAAAAAAAAAAAAAAAAAAAAAAAAAAAAAAAAAAAAAAAAAAAAAAAAAAAAAAAAAAAAAAAAAAAAAAAAAAAAAAAAAAAAAAAAAAAAAAAAAAAAAAAAAAAAAAAAAAAAAAAAAAAAAAAAAAAAAAAAAAAAAAAAAAAAAAAAAAAAAAAAAAAAAAAAAAAAAAAAAAAAAAAAAAAAAAAAAAAAAAAAAAAAAAAAAAAAAAAAAAAAAAAAAAAAAAAAAAAAAAAAAAAAAAAAAAAAAAAAAAAAAAAAAAAAAAAAAAAAAAAAAAAAAAAAAAAAAAAAAAAAAAAAAAAAAAAAAAAAAAAAAAAAAAAAAAAAAAAAAAAAAAAAAAAAAAAAAAAAAAAAAAAAAAAAAAAAAAAAAAAAAAAAAAAAAAAAAAAAAAAAAAAAAAAAAAAAAAAAAAAAAAAAAAAAAAAAAAAAAAAAAAAAAAAAAAAAAAAAAAAAAAAAAAAAAAAAAAAAAAAAAAAAAAAAAAAAAAAAAAAAAAAAAAAAAAAAAAAAAAAAAAAAAAAAAAAAAAAAAAAAAAAAAAAAAAAAAAAAAAAAAAAAAAAAAAAAAAAAAAAAAAAAAAAAAAAAAAAAAAAAAAAAAAAAAAAAAAAAAAAAAAAAAAAAAAAAAAAAAAAAAAAAAAAAAAAAAB/9k=;" vertex="1" parent="1">
          <mxGeometry x="280" y="200" width="1280" height="720" as="geometry" />
        </mxCell>
      </root>
    </mxGraphModel>
  </diagram>
  <diagram id="K4VdT1MRmLjR8sHetJzL" name="Page-2">
    <mxGraphModel dx="794" dy="438" grid="1" gridSize="10" guides="1" tooltips="1" connect="1" arrows="1" fold="1" page="1" pageScale="1" pageWidth="850" pageHeight="1100" math="0" shadow="0">
      <root>
        <mxCell id="0" />
        <mxCell id="1" parent="0" />
        <mxCell id="ILk1LmdYHZQfOC4U89t0-1" value="Student" style="ellipse;whiteSpace=wrap;html=1;aspect=fixed;" vertex="1" parent="1">
          <mxGeometry x="170" y="150" width="80" height="80" as="geometry" />
        </mxCell>
        <mxCell id="ILk1LmdYHZQfOC4U89t0-2" value="Leaner" style="ellipse;whiteSpace=wrap;html=1;aspect=fixed;" vertex="1" parent="1">
          <mxGeometry x="170" y="280" width="80" height="80" as="geometry" />
        </mxCell>
        <mxCell id="ILk1LmdYHZQfOC4U89t0-3" value="api - localhost:8089/getmyDetails" style="text;html=1;align=center;verticalAlign=middle;resizable=0;points=[];autosize=1;strokeColor=none;fillColor=none;" vertex="1" parent="1">
          <mxGeometry x="260" y="175" width="200" height="30" as="geometry" />
        </mxCell>
        <mxCell id="ILk1LmdYHZQfOC4U89t0-4" value="api - localhost:8090/getmyDetails" style="text;html=1;align=center;verticalAlign=middle;resizable=0;points=[];autosize=1;strokeColor=none;fillColor=none;" vertex="1" parent="1">
          <mxGeometry x="260" y="300" width="200" height="30" as="geometry" />
        </mxCell>
        <mxCell id="ILk1LmdYHZQfOC4U89t0-5" value="student" style="ellipse;whiteSpace=wrap;html=1;aspect=fixed;" vertex="1" parent="1">
          <mxGeometry x="70" y="530" width="80" height="80" as="geometry" />
        </mxCell>
        <mxCell id="ILk1LmdYHZQfOC4U89t0-6" value="Leaner" style="ellipse;whiteSpace=wrap;html=1;aspect=fixed;" vertex="1" parent="1">
          <mxGeometry x="70" y="670" width="80" height="80" as="geometry" />
        </mxCell>
        <mxCell id="ILk1LmdYHZQfOC4U89t0-7" value="Gateway" style="shape=process;whiteSpace=wrap;html=1;backgroundOutline=1;direction=south;" vertex="1" parent="1">
          <mxGeometry x="280" y="490" width="50" height="280" as="geometry" />
        </mxCell>
        <mxCell id="ILk1LmdYHZQfOC4U89t0-8" value="localhost:9090" style="text;html=1;align=center;verticalAlign=middle;resizable=0;points=[];autosize=1;strokeColor=none;fillColor=none;" vertex="1" parent="1">
          <mxGeometry x="260" y="450" width="100" height="30" as="geometry" />
        </mxCell>
        <mxCell id="ILk1LmdYHZQfOC4U89t0-9" value="" style="endArrow=classic;html=1;rounded=0;" edge="1" parent="1">
          <mxGeometry width="50" height="50" relative="1" as="geometry">
            <mxPoint x="160" y="569.5" as="sourcePoint" />
            <mxPoint x="260" y="569.5" as="targetPoint" />
          </mxGeometry>
        </mxCell>
        <mxCell id="ILk1LmdYHZQfOC4U89t0-10" value="" style="endArrow=classic;html=1;rounded=0;" edge="1" parent="1">
          <mxGeometry width="50" height="50" relative="1" as="geometry">
            <mxPoint x="160" y="709.5" as="sourcePoint" />
            <mxPoint x="260" y="709.5" as="targetPoint" />
          </mxGeometry>
        </mxCell>
        <mxCell id="ILk1LmdYHZQfOC4U89t0-12" value="" style="endArrow=classic;html=1;rounded=0;" edge="1" parent="1">
          <mxGeometry width="50" height="50" relative="1" as="geometry">
            <mxPoint x="330" y="620" as="sourcePoint" />
            <mxPoint x="390" y="620" as="targetPoint" />
          </mxGeometry>
        </mxCell>
        <mxCell id="ILk1LmdYHZQfOC4U89t0-13" value="" style="endArrow=none;html=1;rounded=0;" edge="1" parent="1">
          <mxGeometry width="50" height="50" relative="1" as="geometry">
            <mxPoint x="390" y="770" as="sourcePoint" />
            <mxPoint x="390" y="480" as="targetPoint" />
          </mxGeometry>
        </mxCell>
        <mxCell id="ILk1LmdYHZQfOC4U89t0-15" value="api - localhost:9090/student/getmyDetails" style="text;html=1;align=center;verticalAlign=middle;resizable=0;points=[];autosize=1;strokeColor=none;fillColor=none;" vertex="1" parent="1">
          <mxGeometry x="420" y="460" width="240" height="30" as="geometry" />
        </mxCell>
        <mxCell id="ILk1LmdYHZQfOC4U89t0-16" value="api - localhost:9090/leaner/getmyDetails" style="text;html=1;align=center;verticalAlign=middle;resizable=0;points=[];autosize=1;strokeColor=none;fillColor=none;" vertex="1" parent="1">
          <mxGeometry x="420" y="750" width="240" height="30" as="geometry" />
        </mxCell>
        <mxCell id="ILk1LmdYHZQfOC4U89t0-17" value="" style="endArrow=classic;html=1;rounded=0;" edge="1" parent="1" target="ILk1LmdYHZQfOC4U89t0-15">
          <mxGeometry width="50" height="50" relative="1" as="geometry">
            <mxPoint x="390" y="480" as="sourcePoint" />
            <mxPoint x="440" y="430" as="targetPoint" />
          </mxGeometry>
        </mxCell>
        <mxCell id="ILk1LmdYHZQfOC4U89t0-18" value="" style="endArrow=classic;html=1;rounded=0;" edge="1" parent="1">
          <mxGeometry width="50" height="50" relative="1" as="geometry">
            <mxPoint x="390" y="771" as="sourcePoint" />
            <mxPoint x="420" y="770" as="targetPoint" />
          </mxGeometry>
        </mxCell>
        <mxCell id="ILk1LmdYHZQfOC4U89t0-19" value="Filter" style="rounded=1;whiteSpace=wrap;html=1;" vertex="1" parent="1">
          <mxGeometry x="337.5" y="590" width="45" height="30" as="geometry" />
        </mxCell>
        <mxCell id="ILk1LmdYHZQfOC4U89t0-20" value="Zuul gateway&lt;br&gt;" style="text;html=1;strokeColor=none;fillColor=none;align=center;verticalAlign=middle;whiteSpace=wrap;rounded=0;" vertex="1" parent="1">
          <mxGeometry x="240" y="40" width="110" height="50" as="geometry" />
        </mxCell>
        <mxCell id="ILk1LmdYHZQfOC4U89t0-21" value="localhost:8089" style="text;html=1;align=center;verticalAlign=middle;resizable=0;points=[];autosize=1;strokeColor=none;fillColor=none;" vertex="1" parent="1">
          <mxGeometry x="160" y="535" width="100" height="30" as="geometry" />
        </mxCell>
        <mxCell id="ILk1LmdYHZQfOC4U89t0-23" value="localhost:8090" style="text;html=1;align=center;verticalAlign=middle;resizable=0;points=[];autosize=1;strokeColor=none;fillColor=none;" vertex="1" parent="1">
          <mxGeometry x="160" y="670" width="100" height="30" as="geometry" />
        </mxCell>
      </root>
    </mxGraphModel>
  </diagram>
</mxfile>
